<?xml version="1.0" encoding="utf-8" standalone="no"?>
<!DOCTYPE svg PUBLIC "-//W3C//DTD SVG 1.1//EN"
  "http://www.w3.org/Graphics/SVG/1.1/DTD/svg11.dtd">
<!-- Created with matplotlib (http://matplotlib.org/) -->
<svg height="608pt" version="1.1" viewBox="0 0 932 608" width="932pt" xmlns="http://www.w3.org/2000/svg" xmlns:xlink="http://www.w3.org/1999/xlink">
 <defs>
  <style type="text/css">
*{stroke-linecap:square;stroke-linejoin:round;}
  </style>
 </defs>
 <g id="figure_1">
  <g id="patch_1">
   <path d="
M0 608.699
L932.606 608.699
L932.606 0
L0 0
z
" style="fill:#ffffff;"/>
  </g>
  <g id="axes_1">
   <g id="patch_2">
    <path d="
M67.4688 585.397
L904.469 585.397
L904.469 27.3969
L67.4688 27.3969
z
" style="fill:#ffffff;"/>
   </g>
   <g id="line2d_1">
    <path clip-path="url(#pb2cad31217)" d="
M67.4688 499.837
L131.853 458.917
L196.238 449.617
L260.623 386.377
L325.007 492.397
L389.392 390.097
L453.776 423.577
L518.161 86.9169
L582.546 367.777
L646.93 330.577
L711.315 122.257
L775.7 269.197
L840.084 196.657
L904.469 172.477" style="fill:none;stroke:#d2631a;stroke-width:2;"/>
   </g>
   <g id="line2d_2">
    <path clip-path="url(#pb2cad31217)" d="
M67.4688 500.847
L131.853 474.856
L196.238 448.865
L260.623 422.874
L325.007 396.883
L389.392 370.892
L453.776 344.901
L518.161 318.91
L582.546 292.919
L646.93 266.928
L711.315 240.937
L775.7 214.946
L840.084 188.955
L904.469 162.964" style="fill:none;stroke:#540000;stroke-width:2;"/>
   </g>
   <g id="matplotlib.axis_1">
    <g id="xtick_1">
     <g id="line2d_3">
      <path clip-path="url(#pb2cad31217)" d="
M131.853 585.397
L131.853 27.3969" style="fill:none;stroke:#000000;stroke-dasharray:1.000000,3.000000;stroke-dashoffset:0.0;stroke-linecap:butt;stroke-width:0.5;"/>
     </g>
     <g id="line2d_4">
      <defs>
       <path d="
M0 0
L0 -4" id="mcb557df647" style="stroke:#000000;stroke-linecap:butt;stroke-width:0.5;"/>
      </defs>
      <g>
       <use style="stroke:#000000;stroke-linecap:butt;stroke-width:0.5;" x="131.853365385" xlink:href="#mcb557df647" y="585.396875"/>
      </g>
     </g>
     <g id="line2d_5">
      <defs>
       <path d="
M0 0
L0 4" id="mdad270ee8e" style="stroke:#000000;stroke-linecap:butt;stroke-width:0.5;"/>
      </defs>
      <g>
       <use style="stroke:#000000;stroke-linecap:butt;stroke-width:0.5;" x="131.853365385" xlink:href="#mdad270ee8e" y="27.396875"/>
      </g>
     </g>
     <g id="text_1">
      <!-- 2000 -->
      <defs>
       <path d="
M46 36.5312
Q46 50.2031 43.4375 55.7812
Q40.875 61.375 34.8125 61.375
Q28.7656 61.375 26.1719 55.7812
Q23.5781 50.2031 23.5781 36.5312
Q23.5781 22.7031 26.1719 17.0312
Q28.7656 11.375 34.8125 11.375
Q40.8281 11.375 43.4062 17.0312
Q46 22.7031 46 36.5312
M64.7969 36.375
Q64.7969 18.2656 56.9844 8.42188
Q49.1719 -1.42188 34.8125 -1.42188
Q20.4062 -1.42188 12.5938 8.42188
Q4.78125 18.2656 4.78125 36.375
Q4.78125 54.5469 12.5938 64.375
Q20.4062 74.2188 34.8125 74.2188
Q49.1719 74.2188 56.9844 64.375
Q64.7969 54.5469 64.7969 36.375" id="BitstreamVeraSans-Bold-30"/>
       <path d="
M28.8125 13.8125
L60.8906 13.8125
L60.8906 0
L7.90625 0
L7.90625 13.8125
L34.5156 37.3125
Q38.0938 40.5312 39.7969 43.6094
Q41.5 46.6875 41.5 50
Q41.5 55.125 38.0625 58.25
Q34.625 61.375 28.9062 61.375
Q24.5156 61.375 19.2812 59.5
Q14.0625 57.625 8.10938 53.9062
L8.10938 69.9219
Q14.4531 72.0156 20.6562 73.1094
Q26.8594 74.2188 32.8125 74.2188
Q45.9062 74.2188 53.1562 68.4531
Q60.4062 62.7031 60.4062 52.3906
Q60.4062 46.4375 57.3281 41.2812
Q54.25 36.1406 44.3906 27.4844
z
" id="BitstreamVeraSans-Bold-32"/>
      </defs>
      <g transform="translate(110.603365385 601.271875)scale(0.16 -0.16)">
       <use xlink:href="#BitstreamVeraSans-Bold-32"/>
       <use x="69.580078125" xlink:href="#BitstreamVeraSans-Bold-30"/>
       <use x="139.16015625" xlink:href="#BitstreamVeraSans-Bold-30"/>
       <use x="208.740234375" xlink:href="#BitstreamVeraSans-Bold-30"/>
      </g>
     </g>
    </g>
    <g id="xtick_2">
     <g id="line2d_6">
      <path clip-path="url(#pb2cad31217)" d="
M260.623 585.397
L260.623 27.3969" style="fill:none;stroke:#000000;stroke-dasharray:1.000000,3.000000;stroke-dashoffset:0.0;stroke-linecap:butt;stroke-width:0.5;"/>
     </g>
     <g id="line2d_7">
      <g>
       <use style="stroke:#000000;stroke-linecap:butt;stroke-width:0.5;" x="260.622596154" xlink:href="#mcb557df647" y="585.396875"/>
      </g>
     </g>
     <g id="line2d_8">
      <g>
       <use style="stroke:#000000;stroke-linecap:butt;stroke-width:0.5;" x="260.622596154" xlink:href="#mdad270ee8e" y="27.396875"/>
      </g>
     </g>
     <g id="text_2">
      <!-- 2002 -->
      <g transform="translate(239.685096154 601.271875)scale(0.16 -0.16)">
       <use xlink:href="#BitstreamVeraSans-Bold-32"/>
       <use x="69.580078125" xlink:href="#BitstreamVeraSans-Bold-30"/>
       <use x="139.16015625" xlink:href="#BitstreamVeraSans-Bold-30"/>
       <use x="208.740234375" xlink:href="#BitstreamVeraSans-Bold-32"/>
      </g>
     </g>
    </g>
    <g id="xtick_3">
     <g id="line2d_9">
      <path clip-path="url(#pb2cad31217)" d="
M389.392 585.397
L389.392 27.3969" style="fill:none;stroke:#000000;stroke-dasharray:1.000000,3.000000;stroke-dashoffset:0.0;stroke-linecap:butt;stroke-width:0.5;"/>
     </g>
     <g id="line2d_10">
      <g>
       <use style="stroke:#000000;stroke-linecap:butt;stroke-width:0.5;" x="389.391826923" xlink:href="#mcb557df647" y="585.396875"/>
      </g>
     </g>
     <g id="line2d_11">
      <g>
       <use style="stroke:#000000;stroke-linecap:butt;stroke-width:0.5;" x="389.391826923" xlink:href="#mdad270ee8e" y="27.396875"/>
      </g>
     </g>
     <g id="text_3">
      <!-- 2004 -->
      <defs>
       <path d="
M36.8125 57.4219
L16.2188 26.9062
L36.8125 26.9062
z

M33.6875 72.9062
L54.5938 72.9062
L54.5938 26.9062
L64.9844 26.9062
L64.9844 13.2812
L54.5938 13.2812
L54.5938 0
L36.8125 0
L36.8125 13.2812
L4.5 13.2812
L4.5 29.3906
z
" id="BitstreamVeraSans-Bold-34"/>
      </defs>
      <g transform="translate(368.126826923 601.271875)scale(0.16 -0.16)">
       <use xlink:href="#BitstreamVeraSans-Bold-32"/>
       <use x="69.580078125" xlink:href="#BitstreamVeraSans-Bold-30"/>
       <use x="139.16015625" xlink:href="#BitstreamVeraSans-Bold-30"/>
       <use x="208.740234375" xlink:href="#BitstreamVeraSans-Bold-34"/>
      </g>
     </g>
    </g>
    <g id="xtick_4">
     <g id="line2d_12">
      <path clip-path="url(#pb2cad31217)" d="
M518.161 585.397
L518.161 27.3969" style="fill:none;stroke:#000000;stroke-dasharray:1.000000,3.000000;stroke-dashoffset:0.0;stroke-linecap:butt;stroke-width:0.5;"/>
     </g>
     <g id="line2d_13">
      <g>
       <use style="stroke:#000000;stroke-linecap:butt;stroke-width:0.5;" x="518.161057692" xlink:href="#mcb557df647" y="585.396875"/>
      </g>
     </g>
     <g id="line2d_14">
      <g>
       <use style="stroke:#000000;stroke-linecap:butt;stroke-width:0.5;" x="518.161057692" xlink:href="#mdad270ee8e" y="27.396875"/>
      </g>
     </g>
     <g id="text_4">
      <!-- 2006 -->
      <defs>
       <path d="
M36.1875 35.9844
Q31.25 35.9844 28.7812 32.7812
Q26.3125 29.5938 26.3125 23.1875
Q26.3125 16.7969 28.7812 13.5938
Q31.25 10.4062 36.1875 10.4062
Q41.1562 10.4062 43.625 13.5938
Q46.0938 16.7969 46.0938 23.1875
Q46.0938 29.5938 43.625 32.7812
Q41.1562 35.9844 36.1875 35.9844
M59.4219 71
L59.4219 57.5156
Q54.7812 59.7188 50.6719 60.7656
Q46.5781 61.8125 42.6719 61.8125
Q34.2812 61.8125 29.5938 57.1406
Q24.9062 52.4844 24.125 43.3125
Q27.3438 45.7031 31.0938 46.8906
Q34.8594 48.0938 39.3125 48.0938
Q50.4844 48.0938 57.3438 41.5469
Q64.2031 35.0156 64.2031 24.4219
Q64.2031 12.7031 56.5312 5.64062
Q48.875 -1.42188 35.9844 -1.42188
Q21.7812 -1.42188 13.9844 8.17188
Q6.20312 17.7812 6.20312 35.4062
Q6.20312 53.4688 15.3125 63.7969
Q24.4219 74.125 40.2812 74.125
Q45.3125 74.125 50.0469 73.3438
Q54.7812 72.5625 59.4219 71" id="BitstreamVeraSans-Bold-36"/>
      </defs>
      <g transform="translate(496.958557692 601.271875)scale(0.16 -0.16)">
       <use xlink:href="#BitstreamVeraSans-Bold-32"/>
       <use x="69.580078125" xlink:href="#BitstreamVeraSans-Bold-30"/>
       <use x="139.16015625" xlink:href="#BitstreamVeraSans-Bold-30"/>
       <use x="208.740234375" xlink:href="#BitstreamVeraSans-Bold-36"/>
      </g>
     </g>
    </g>
    <g id="xtick_5">
     <g id="line2d_15">
      <path clip-path="url(#pb2cad31217)" d="
M646.93 585.397
L646.93 27.3969" style="fill:none;stroke:#000000;stroke-dasharray:1.000000,3.000000;stroke-dashoffset:0.0;stroke-linecap:butt;stroke-width:0.5;"/>
     </g>
     <g id="line2d_16">
      <g>
       <use style="stroke:#000000;stroke-linecap:butt;stroke-width:0.5;" x="646.930288462" xlink:href="#mcb557df647" y="585.396875"/>
      </g>
     </g>
     <g id="line2d_17">
      <g>
       <use style="stroke:#000000;stroke-linecap:butt;stroke-width:0.5;" x="646.930288462" xlink:href="#mdad270ee8e" y="27.396875"/>
      </g>
     </g>
     <g id="text_5">
      <!-- 2008 -->
      <defs>
       <path d="
M34.8125 32.625
Q29.5469 32.625 26.7031 29.7344
Q23.875 26.8594 23.875 21.4844
Q23.875 16.1094 26.7031 13.25
Q29.5469 10.4062 34.8125 10.4062
Q40.0469 10.4062 42.8281 13.25
Q45.6094 16.1094 45.6094 21.4844
Q45.6094 26.9062 42.8281 29.7656
Q40.0469 32.625 34.8125 32.625
M21.0938 38.8125
Q14.4531 40.8281 11.0781 44.9688
Q7.71875 49.125 7.71875 55.3281
Q7.71875 64.5469 14.5938 69.375
Q21.4844 74.2188 34.8125 74.2188
Q48.0469 74.2188 54.9219 69.4062
Q61.8125 64.5938 61.8125 55.3281
Q61.8125 49.125 58.4219 44.9688
Q55.0312 40.8281 48.3906 38.8125
Q55.8125 36.7656 59.5938 32.1562
Q63.375 27.5469 63.375 20.5156
Q63.375 9.67188 56.1719 4.125
Q48.9688 -1.42188 34.8125 -1.42188
Q20.6094 -1.42188 13.3594 4.125
Q6.10938 9.67188 6.10938 20.5156
Q6.10938 27.5469 9.89062 32.1562
Q13.6719 36.7656 21.0938 38.8125
M25.4844 53.4219
Q25.4844 49.0781 27.9062 46.7344
Q30.3281 44.3906 34.8125 44.3906
Q39.2031 44.3906 41.5938 46.7344
Q44 49.0781 44 53.4219
Q44 57.7656 41.5938 60.0781
Q39.2031 62.4062 34.8125 62.4062
Q30.3281 62.4062 27.9062 60.0625
Q25.4844 57.7188 25.4844 53.4219" id="BitstreamVeraSans-Bold-38"/>
      </defs>
      <g transform="translate(625.794038462 601.271875)scale(0.16 -0.16)">
       <use xlink:href="#BitstreamVeraSans-Bold-32"/>
       <use x="69.580078125" xlink:href="#BitstreamVeraSans-Bold-30"/>
       <use x="139.16015625" xlink:href="#BitstreamVeraSans-Bold-30"/>
       <use x="208.740234375" xlink:href="#BitstreamVeraSans-Bold-38"/>
      </g>
     </g>
    </g>
    <g id="xtick_6">
     <g id="line2d_18">
      <path clip-path="url(#pb2cad31217)" d="
M775.7 585.397
L775.7 27.3969" style="fill:none;stroke:#000000;stroke-dasharray:1.000000,3.000000;stroke-dashoffset:0.0;stroke-linecap:butt;stroke-width:0.5;"/>
     </g>
     <g id="line2d_19">
      <g>
       <use style="stroke:#000000;stroke-linecap:butt;stroke-width:0.5;" x="775.699519231" xlink:href="#mcb557df647" y="585.396875"/>
      </g>
     </g>
     <g id="line2d_20">
      <g>
       <use style="stroke:#000000;stroke-linecap:butt;stroke-width:0.5;" x="775.699519231" xlink:href="#mdad270ee8e" y="27.396875"/>
      </g>
     </g>
     <g id="text_6">
      <!-- 2010 -->
      <defs>
       <path d="
M11.7188 12.9844
L28.3281 12.9844
L28.3281 60.1094
L11.2812 56.5938
L11.2812 69.3906
L28.2188 72.9062
L46.0938 72.9062
L46.0938 12.9844
L62.7031 12.9844
L62.7031 0
L11.7188 0
z
" id="BitstreamVeraSans-Bold-31"/>
      </defs>
      <g transform="translate(754.449519231 601.271875)scale(0.16 -0.16)">
       <use xlink:href="#BitstreamVeraSans-Bold-32"/>
       <use x="69.580078125" xlink:href="#BitstreamVeraSans-Bold-30"/>
       <use x="139.16015625" xlink:href="#BitstreamVeraSans-Bold-31"/>
       <use x="208.740234375" xlink:href="#BitstreamVeraSans-Bold-30"/>
      </g>
     </g>
    </g>
    <g id="xtick_7">
     <g id="line2d_21">
      <path clip-path="url(#pb2cad31217)" d="
M904.469 585.397
L904.469 27.3969" style="fill:none;stroke:#000000;stroke-dasharray:1.000000,3.000000;stroke-dashoffset:0.0;stroke-linecap:butt;stroke-width:0.5;"/>
     </g>
     <g id="line2d_22">
      <g>
       <use style="stroke:#000000;stroke-linecap:butt;stroke-width:0.5;" x="904.46875" xlink:href="#mcb557df647" y="585.396875"/>
      </g>
     </g>
     <g id="line2d_23">
      <g>
       <use style="stroke:#000000;stroke-linecap:butt;stroke-width:0.5;" x="904.46875" xlink:href="#mdad270ee8e" y="27.396875"/>
      </g>
     </g>
     <g id="text_7">
      <!-- 2012 -->
      <g transform="translate(883.53125 601.271875)scale(0.16 -0.16)">
       <use xlink:href="#BitstreamVeraSans-Bold-32"/>
       <use x="69.580078125" xlink:href="#BitstreamVeraSans-Bold-30"/>
       <use x="139.16015625" xlink:href="#BitstreamVeraSans-Bold-31"/>
       <use x="208.740234375" xlink:href="#BitstreamVeraSans-Bold-32"/>
      </g>
     </g>
    </g>
   </g>
   <g id="matplotlib.axis_2">
    <g id="ytick_1">
     <g id="line2d_24">
      <path clip-path="url(#pb2cad31217)" d="
M67.4688 585.397
L904.469 585.397" style="fill:none;stroke:#000000;stroke-dasharray:1.000000,3.000000;stroke-dashoffset:0.0;stroke-linecap:butt;stroke-width:0.5;"/>
     </g>
     <g id="line2d_25">
      <defs>
       <path d="
M0 0
L4 0" id="mc8fcea1516" style="stroke:#000000;stroke-linecap:butt;stroke-width:0.5;"/>
      </defs>
      <g>
       <use style="stroke:#000000;stroke-linecap:butt;stroke-width:0.5;" x="67.46875" xlink:href="#mc8fcea1516" y="585.396875"/>
      </g>
     </g>
     <g id="line2d_26">
      <defs>
       <path d="
M0 0
L-4 0" id="m0d5b0a6425" style="stroke:#000000;stroke-linecap:butt;stroke-width:0.5;"/>
      </defs>
      <g>
       <use style="stroke:#000000;stroke-linecap:butt;stroke-width:0.5;" x="904.46875" xlink:href="#m0d5b0a6425" y="585.396875"/>
      </g>
     </g>
     <g id="text_8">
      <!-- 100 -->
      <g transform="translate(32.64125 591.220625)scale(0.16 -0.16)">
       <use xlink:href="#BitstreamVeraSans-Bold-31"/>
       <use x="69.580078125" xlink:href="#BitstreamVeraSans-Bold-30"/>
       <use x="139.16015625" xlink:href="#BitstreamVeraSans-Bold-30"/>
      </g>
     </g>
    </g>
    <g id="ytick_2">
     <g id="line2d_27">
      <path clip-path="url(#pb2cad31217)" d="
M67.4688 492.397
L904.469 492.397" style="fill:none;stroke:#000000;stroke-dasharray:1.000000,3.000000;stroke-dashoffset:0.0;stroke-linecap:butt;stroke-width:0.5;"/>
     </g>
     <g id="line2d_28">
      <g>
       <use style="stroke:#000000;stroke-linecap:butt;stroke-width:0.5;" x="67.46875" xlink:href="#mc8fcea1516" y="492.396875"/>
      </g>
     </g>
     <g id="line2d_29">
      <g>
       <use style="stroke:#000000;stroke-linecap:butt;stroke-width:0.5;" x="904.46875" xlink:href="#m0d5b0a6425" y="492.396875"/>
      </g>
     </g>
     <g id="text_9">
      <!-- 150 -->
      <defs>
       <path d="
M10.5938 72.9062
L57.3281 72.9062
L57.3281 59.0781
L25.5938 59.0781
L25.5938 47.7969
Q27.7344 48.3906 29.9062 48.7031
Q32.0781 49.0312 34.4219 49.0312
Q47.75 49.0312 55.1719 42.3594
Q62.5938 35.6875 62.5938 23.7812
Q62.5938 11.9688 54.5156 5.26562
Q46.4375 -1.42188 32.0781 -1.42188
Q25.875 -1.42188 19.7969 -0.21875
Q13.7188 0.984375 7.71875 3.42188
L7.71875 18.2188
Q13.6719 14.7969 19.0156 13.0781
Q24.3594 11.375 29.1094 11.375
Q35.9375 11.375 39.8594 14.7188
Q43.7969 18.0625 43.7969 23.7812
Q43.7969 29.5469 39.8594 32.8594
Q35.9375 36.1875 29.1094 36.1875
Q25.0469 36.1875 20.4531 35.125
Q15.875 34.0781 10.5938 31.8906
z
" id="BitstreamVeraSans-Bold-35"/>
      </defs>
      <g transform="translate(32.64125 498.220625)scale(0.16 -0.16)">
       <use xlink:href="#BitstreamVeraSans-Bold-31"/>
       <use x="69.580078125" xlink:href="#BitstreamVeraSans-Bold-35"/>
       <use x="139.16015625" xlink:href="#BitstreamVeraSans-Bold-30"/>
      </g>
     </g>
    </g>
    <g id="ytick_3">
     <g id="line2d_30">
      <path clip-path="url(#pb2cad31217)" d="
M67.4688 399.397
L904.469 399.397" style="fill:none;stroke:#000000;stroke-dasharray:1.000000,3.000000;stroke-dashoffset:0.0;stroke-linecap:butt;stroke-width:0.5;"/>
     </g>
     <g id="line2d_31">
      <g>
       <use style="stroke:#000000;stroke-linecap:butt;stroke-width:0.5;" x="67.46875" xlink:href="#mc8fcea1516" y="399.396875"/>
      </g>
     </g>
     <g id="line2d_32">
      <g>
       <use style="stroke:#000000;stroke-linecap:butt;stroke-width:0.5;" x="904.46875" xlink:href="#m0d5b0a6425" y="399.396875"/>
      </g>
     </g>
     <g id="text_10">
      <!-- 200 -->
      <g transform="translate(32.10125 405.220625)scale(0.16 -0.16)">
       <use xlink:href="#BitstreamVeraSans-Bold-32"/>
       <use x="69.580078125" xlink:href="#BitstreamVeraSans-Bold-30"/>
       <use x="139.16015625" xlink:href="#BitstreamVeraSans-Bold-30"/>
      </g>
     </g>
    </g>
    <g id="ytick_4">
     <g id="line2d_33">
      <path clip-path="url(#pb2cad31217)" d="
M67.4688 306.397
L904.469 306.397" style="fill:none;stroke:#000000;stroke-dasharray:1.000000,3.000000;stroke-dashoffset:0.0;stroke-linecap:butt;stroke-width:0.5;"/>
     </g>
     <g id="line2d_34">
      <g>
       <use style="stroke:#000000;stroke-linecap:butt;stroke-width:0.5;" x="67.46875" xlink:href="#mc8fcea1516" y="306.396875"/>
      </g>
     </g>
     <g id="line2d_35">
      <g>
       <use style="stroke:#000000;stroke-linecap:butt;stroke-width:0.5;" x="904.46875" xlink:href="#m0d5b0a6425" y="306.396875"/>
      </g>
     </g>
     <g id="text_11">
      <!-- 250 -->
      <g transform="translate(32.10125 312.220625)scale(0.16 -0.16)">
       <use xlink:href="#BitstreamVeraSans-Bold-32"/>
       <use x="69.580078125" xlink:href="#BitstreamVeraSans-Bold-35"/>
       <use x="139.16015625" xlink:href="#BitstreamVeraSans-Bold-30"/>
      </g>
     </g>
    </g>
    <g id="ytick_5">
     <g id="line2d_36">
      <path clip-path="url(#pb2cad31217)" d="
M67.4688 213.397
L904.469 213.397" style="fill:none;stroke:#000000;stroke-dasharray:1.000000,3.000000;stroke-dashoffset:0.0;stroke-linecap:butt;stroke-width:0.5;"/>
     </g>
     <g id="line2d_37">
      <g>
       <use style="stroke:#000000;stroke-linecap:butt;stroke-width:0.5;" x="67.46875" xlink:href="#mc8fcea1516" y="213.396875"/>
      </g>
     </g>
     <g id="line2d_38">
      <g>
       <use style="stroke:#000000;stroke-linecap:butt;stroke-width:0.5;" x="904.46875" xlink:href="#m0d5b0a6425" y="213.396875"/>
      </g>
     </g>
     <g id="text_12">
      <!-- 300 -->
      <defs>
       <path d="
M46.5781 39.3125
Q53.9531 37.4062 57.7812 32.6875
Q61.625 27.9844 61.625 20.7031
Q61.625 9.85938 53.3125 4.21875
Q45.0156 -1.42188 29.1094 -1.42188
Q23.4844 -1.42188 17.8438 -0.515625
Q12.2031 0.390625 6.6875 2.20312
L6.6875 16.7031
Q11.9688 14.0625 17.1562 12.7188
Q22.3594 11.375 27.3906 11.375
Q34.8594 11.375 38.8438 13.9531
Q42.8281 16.5469 42.8281 21.3906
Q42.8281 26.375 38.75 28.9375
Q34.6719 31.5 26.7031 31.5
L19.1875 31.5
L19.1875 43.6094
L27.0938 43.6094
Q34.1875 43.6094 37.6406 45.8281
Q41.1094 48.0469 41.1094 52.5938
Q41.1094 56.7812 37.7344 59.0781
Q34.375 61.375 28.2188 61.375
Q23.6875 61.375 19.0469 60.3438
Q14.4062 59.3281 9.8125 57.3281
L9.8125 71.0938
Q15.375 72.6562 20.8438 73.4375
Q26.3125 74.2188 31.5938 74.2188
Q45.7969 74.2188 52.8438 69.5469
Q59.9062 64.8906 59.9062 55.5156
Q59.9062 49.125 56.5312 45.0469
Q53.1719 40.9688 46.5781 39.3125" id="BitstreamVeraSans-Bold-33"/>
      </defs>
      <g transform="translate(31.90625 219.220625)scale(0.16 -0.16)">
       <use xlink:href="#BitstreamVeraSans-Bold-33"/>
       <use x="69.580078125" xlink:href="#BitstreamVeraSans-Bold-30"/>
       <use x="139.16015625" xlink:href="#BitstreamVeraSans-Bold-30"/>
      </g>
     </g>
    </g>
    <g id="ytick_6">
     <g id="line2d_39">
      <path clip-path="url(#pb2cad31217)" d="
M67.4688 120.397
L904.469 120.397" style="fill:none;stroke:#000000;stroke-dasharray:1.000000,3.000000;stroke-dashoffset:0.0;stroke-linecap:butt;stroke-width:0.5;"/>
     </g>
     <g id="line2d_40">
      <g>
       <use style="stroke:#000000;stroke-linecap:butt;stroke-width:0.5;" x="67.46875" xlink:href="#mc8fcea1516" y="120.396875"/>
      </g>
     </g>
     <g id="line2d_41">
      <g>
       <use style="stroke:#000000;stroke-linecap:butt;stroke-width:0.5;" x="904.46875" xlink:href="#m0d5b0a6425" y="120.396875"/>
      </g>
     </g>
     <g id="text_13">
      <!-- 350 -->
      <g transform="translate(31.90625 126.220625)scale(0.16 -0.16)">
       <use xlink:href="#BitstreamVeraSans-Bold-33"/>
       <use x="69.580078125" xlink:href="#BitstreamVeraSans-Bold-35"/>
       <use x="139.16015625" xlink:href="#BitstreamVeraSans-Bold-30"/>
      </g>
     </g>
    </g>
    <g id="ytick_7">
     <g id="line2d_42">
      <path clip-path="url(#pb2cad31217)" d="
M67.4688 27.3969
L904.469 27.3969" style="fill:none;stroke:#000000;stroke-dasharray:1.000000,3.000000;stroke-dashoffset:0.0;stroke-linecap:butt;stroke-width:0.5;"/>
     </g>
     <g id="line2d_43">
      <g>
       <use style="stroke:#000000;stroke-linecap:butt;stroke-width:0.5;" x="67.46875" xlink:href="#mc8fcea1516" y="27.396875"/>
      </g>
     </g>
     <g id="line2d_44">
      <g>
       <use style="stroke:#000000;stroke-linecap:butt;stroke-width:0.5;" x="904.46875" xlink:href="#m0d5b0a6425" y="27.396875"/>
      </g>
     </g>
     <g id="text_14">
      <!-- 400 -->
      <g transform="translate(31.55625 33.220625)scale(0.16 -0.16)">
       <use xlink:href="#BitstreamVeraSans-Bold-34"/>
       <use x="69.580078125" xlink:href="#BitstreamVeraSans-Bold-30"/>
       <use x="139.16015625" xlink:href="#BitstreamVeraSans-Bold-30"/>
      </g>
     </g>
    </g>
    <g id="text_15">
     <!-- Secondary minus Primary count -->
     <defs>
      <path id="BitstreamVeraSans-Roman-20"/>
      <path d="
M52 44.1875
Q55.375 50.25 60.0625 53.125
Q64.75 56 71.0938 56
Q79.6406 56 84.2812 50.0156
Q88.9219 44.0469 88.9219 33.0156
L88.9219 0
L79.8906 0
L79.8906 32.7188
Q79.8906 40.5781 77.0938 44.375
Q74.3125 48.1875 68.6094 48.1875
Q61.625 48.1875 57.5625 43.5469
Q53.5156 38.9219 53.5156 30.9062
L53.5156 0
L44.4844 0
L44.4844 32.7188
Q44.4844 40.625 41.7031 44.4062
Q38.9219 48.1875 33.1094 48.1875
Q26.2188 48.1875 22.1562 43.5312
Q18.1094 38.875 18.1094 30.9062
L18.1094 0
L9.07812 0
L9.07812 54.6875
L18.1094 54.6875
L18.1094 46.1875
Q21.1875 51.2188 25.4844 53.6094
Q29.7812 56 35.6875 56
Q41.6562 56 45.8281 52.9688
Q50 49.9531 52 44.1875" id="BitstreamVeraSans-Roman-6d"/>
      <path d="
M54.8906 33.0156
L54.8906 0
L45.9062 0
L45.9062 32.7188
Q45.9062 40.4844 42.875 44.3281
Q39.8438 48.1875 33.7969 48.1875
Q26.5156 48.1875 22.3125 43.5469
Q18.1094 38.9219 18.1094 30.9062
L18.1094 0
L9.07812 0
L9.07812 54.6875
L18.1094 54.6875
L18.1094 46.1875
Q21.3438 51.125 25.7031 53.5625
Q30.0781 56 35.7969 56
Q45.2188 56 50.0469 50.1719
Q54.8906 44.3438 54.8906 33.0156" id="BitstreamVeraSans-Roman-6e"/>
      <path d="
M41.1094 46.2969
Q39.5938 47.1719 37.8125 47.5781
Q36.0312 48 33.8906 48
Q26.2656 48 22.1875 43.0469
Q18.1094 38.0938 18.1094 28.8125
L18.1094 0
L9.07812 0
L9.07812 54.6875
L18.1094 54.6875
L18.1094 46.1875
Q20.9531 51.1719 25.4844 53.5781
Q30.0312 56 36.5312 56
Q37.4531 56 38.5781 55.875
Q39.7031 55.7656 41.0625 55.5156
z
" id="BitstreamVeraSans-Roman-72"/>
      <path d="
M30.6094 48.3906
Q23.3906 48.3906 19.1875 42.75
Q14.9844 37.1094 14.9844 27.2969
Q14.9844 17.4844 19.1562 11.8438
Q23.3438 6.20312 30.6094 6.20312
Q37.7969 6.20312 41.9844 11.8594
Q46.1875 17.5312 46.1875 27.2969
Q46.1875 37.0156 41.9844 42.7031
Q37.7969 48.3906 30.6094 48.3906
M30.6094 56
Q42.3281 56 49.0156 48.375
Q55.7188 40.7656 55.7188 27.2969
Q55.7188 13.875 49.0156 6.21875
Q42.3281 -1.42188 30.6094 -1.42188
Q18.8438 -1.42188 12.1719 6.21875
Q5.51562 13.875 5.51562 27.2969
Q5.51562 40.7656 12.1719 48.375
Q18.8438 56 30.6094 56" id="BitstreamVeraSans-Roman-6f"/>
      <path d="
M19.6719 64.7969
L19.6719 37.4062
L32.0781 37.4062
Q38.9688 37.4062 42.7188 40.9688
Q46.4844 44.5312 46.4844 51.125
Q46.4844 57.6719 42.7188 61.2344
Q38.9688 64.7969 32.0781 64.7969
z

M9.8125 72.9062
L32.0781 72.9062
Q44.3438 72.9062 50.6094 67.3594
Q56.8906 61.8125 56.8906 51.125
Q56.8906 40.3281 50.6094 34.8125
Q44.3438 29.2969 32.0781 29.2969
L19.6719 29.2969
L19.6719 0
L9.8125 0
z
" id="BitstreamVeraSans-Roman-50"/>
      <path d="
M53.5156 70.5156
L53.5156 60.8906
Q47.9062 63.5781 42.9219 64.8906
Q37.9375 66.2188 33.2969 66.2188
Q25.25 66.2188 20.875 63.0938
Q16.5 59.9688 16.5 54.2031
Q16.5 49.3594 19.4062 46.8906
Q22.3125 44.4375 30.4219 42.9219
L36.375 41.7031
Q47.4062 39.5938 52.6562 34.2969
Q57.9062 29 57.9062 20.125
Q57.9062 9.51562 50.7969 4.04688
Q43.7031 -1.42188 29.9844 -1.42188
Q24.8125 -1.42188 18.9688 -0.25
Q13.1406 0.921875 6.89062 3.21875
L6.89062 13.375
Q12.8906 10.0156 18.6562 8.29688
Q24.4219 6.59375 29.9844 6.59375
Q38.4219 6.59375 43.0156 9.90625
Q47.6094 13.2344 47.6094 19.3906
Q47.6094 24.75 44.3125 27.7812
Q41.0156 30.8125 33.5 32.3281
L27.4844 33.5
Q16.4531 35.6875 11.5156 40.375
Q6.59375 45.0625 6.59375 53.4219
Q6.59375 63.0938 13.4062 68.6562
Q20.2188 74.2188 32.1719 74.2188
Q37.3125 74.2188 42.625 73.2812
Q47.9531 72.3594 53.5156 70.5156" id="BitstreamVeraSans-Roman-53"/>
      <path d="
M9.42188 54.6875
L18.4062 54.6875
L18.4062 0
L9.42188 0
z

M9.42188 75.9844
L18.4062 75.9844
L18.4062 64.5938
L9.42188 64.5938
z
" id="BitstreamVeraSans-Roman-69"/>
      <path d="
M32.1719 -5.07812
Q28.375 -14.8438 24.75 -17.8125
Q21.1406 -20.7969 15.0938 -20.7969
L7.90625 -20.7969
L7.90625 -13.2812
L13.1875 -13.2812
Q16.8906 -13.2812 18.9375 -11.5156
Q21 -9.76562 23.4844 -3.21875
L25.0938 0.875
L2.98438 54.6875
L12.5 54.6875
L29.5938 11.9219
L46.6875 54.6875
L56.2031 54.6875
z
" id="BitstreamVeraSans-Roman-79"/>
      <path d="
M56.2031 29.5938
L56.2031 25.2031
L14.8906 25.2031
Q15.4844 15.9219 20.4844 11.0625
Q25.4844 6.20312 34.4219 6.20312
Q39.5938 6.20312 44.4531 7.46875
Q49.3125 8.73438 54.1094 11.2812
L54.1094 2.78125
Q49.2656 0.734375 44.1875 -0.34375
Q39.1094 -1.42188 33.8906 -1.42188
Q20.7969 -1.42188 13.1562 6.1875
Q5.51562 13.8125 5.51562 26.8125
Q5.51562 40.2344 12.7656 48.1094
Q20.0156 56 32.3281 56
Q43.3594 56 49.7812 48.8906
Q56.2031 41.7969 56.2031 29.5938
M47.2188 32.2344
Q47.125 39.5938 43.0938 43.9844
Q39.0625 48.3906 32.4219 48.3906
Q24.9062 48.3906 20.3906 44.1406
Q15.875 39.8906 15.1875 32.1719
z
" id="BitstreamVeraSans-Roman-65"/>
      <path d="
M45.4062 46.3906
L45.4062 75.9844
L54.3906 75.9844
L54.3906 0
L45.4062 0
L45.4062 8.20312
Q42.5781 3.32812 38.25 0.953125
Q33.9375 -1.42188 27.875 -1.42188
Q17.9688 -1.42188 11.7344 6.48438
Q5.51562 14.4062 5.51562 27.2969
Q5.51562 40.1875 11.7344 48.0938
Q17.9688 56 27.875 56
Q33.9375 56 38.25 53.625
Q42.5781 51.2656 45.4062 46.3906
M14.7969 27.2969
Q14.7969 17.3906 18.875 11.75
Q22.9531 6.10938 30.0781 6.10938
Q37.2031 6.10938 41.2969 11.75
Q45.4062 17.3906 45.4062 27.2969
Q45.4062 37.2031 41.2969 42.8438
Q37.2031 48.4844 30.0781 48.4844
Q22.9531 48.4844 18.875 42.8438
Q14.7969 37.2031 14.7969 27.2969" id="BitstreamVeraSans-Roman-64"/>
      <path d="
M18.3125 70.2188
L18.3125 54.6875
L36.8125 54.6875
L36.8125 47.7031
L18.3125 47.7031
L18.3125 18.0156
Q18.3125 11.3281 20.1406 9.42188
Q21.9688 7.51562 27.5938 7.51562
L36.8125 7.51562
L36.8125 0
L27.5938 0
Q17.1875 0 13.2344 3.875
Q9.28125 7.76562 9.28125 18.0156
L9.28125 47.7031
L2.6875 47.7031
L2.6875 54.6875
L9.28125 54.6875
L9.28125 70.2188
z
" id="BitstreamVeraSans-Roman-74"/>
      <path d="
M8.5 21.5781
L8.5 54.6875
L17.4844 54.6875
L17.4844 21.9219
Q17.4844 14.1562 20.5 10.2656
Q23.5312 6.39062 29.5938 6.39062
Q36.8594 6.39062 41.0781 11.0312
Q45.3125 15.6719 45.3125 23.6875
L45.3125 54.6875
L54.2969 54.6875
L54.2969 0
L45.3125 0
L45.3125 8.40625
Q42.0469 3.42188 37.7188 1
Q33.4062 -1.42188 27.6875 -1.42188
Q18.2656 -1.42188 13.375 4.4375
Q8.5 10.2969 8.5 21.5781" id="BitstreamVeraSans-Roman-75"/>
      <path d="
M34.2812 27.4844
Q23.3906 27.4844 19.1875 25
Q14.9844 22.5156 14.9844 16.5
Q14.9844 11.7188 18.1406 8.90625
Q21.2969 6.10938 26.7031 6.10938
Q34.1875 6.10938 38.7031 11.4062
Q43.2188 16.7031 43.2188 25.4844
L43.2188 27.4844
z

M52.2031 31.2031
L52.2031 0
L43.2188 0
L43.2188 8.29688
Q40.1406 3.32812 35.5469 0.953125
Q30.9531 -1.42188 24.3125 -1.42188
Q15.9219 -1.42188 10.9531 3.29688
Q6 8.01562 6 15.9219
Q6 25.1406 12.1719 29.8281
Q18.3594 34.5156 30.6094 34.5156
L43.2188 34.5156
L43.2188 35.4062
Q43.2188 41.6094 39.1406 45
Q35.0625 48.3906 27.6875 48.3906
Q23 48.3906 18.5469 47.2656
Q14.1094 46.1406 10.0156 43.8906
L10.0156 52.2031
Q14.9375 54.1094 19.5781 55.0469
Q24.2188 56 28.6094 56
Q40.4844 56 46.3438 49.8438
Q52.2031 43.7031 52.2031 31.2031" id="BitstreamVeraSans-Roman-61"/>
      <path d="
M44.2812 53.0781
L44.2812 44.5781
Q40.4844 46.5312 36.375 47.5
Q32.2812 48.4844 27.875 48.4844
Q21.1875 48.4844 17.8438 46.4375
Q14.5 44.3906 14.5 40.2812
Q14.5 37.1562 16.8906 35.375
Q19.2812 33.5938 26.5156 31.9844
L29.5938 31.2969
Q39.1562 29.25 43.1875 25.5156
Q47.2188 21.7812 47.2188 15.0938
Q47.2188 7.46875 41.1875 3.01562
Q35.1562 -1.42188 24.6094 -1.42188
Q20.2188 -1.42188 15.4531 -0.5625
Q10.6875 0.296875 5.42188 2
L5.42188 11.2812
Q10.4062 8.6875 15.2344 7.39062
Q20.0625 6.10938 24.8125 6.10938
Q31.1562 6.10938 34.5625 8.28125
Q37.9844 10.4531 37.9844 14.4062
Q37.9844 18.0625 35.5156 20.0156
Q33.0625 21.9688 24.7031 23.7812
L21.5781 24.5156
Q13.2344 26.2656 9.51562 29.9062
Q5.8125 33.5469 5.8125 39.8906
Q5.8125 47.6094 11.2812 51.7969
Q16.75 56 26.8125 56
Q31.7812 56 36.1719 55.2656
Q40.5781 54.5469 44.2812 53.0781" id="BitstreamVeraSans-Roman-73"/>
      <path d="
M48.7812 52.5938
L48.7812 44.1875
Q44.9688 46.2969 41.1406 47.3438
Q37.3125 48.3906 33.4062 48.3906
Q24.6562 48.3906 19.8125 42.8438
Q14.9844 37.3125 14.9844 27.2969
Q14.9844 17.2812 19.8125 11.7344
Q24.6562 6.20312 33.4062 6.20312
Q37.3125 6.20312 41.1406 7.25
Q44.9688 8.29688 48.7812 10.4062
L48.7812 2.09375
Q45.0156 0.34375 40.9844 -0.53125
Q36.9688 -1.42188 32.4219 -1.42188
Q20.0625 -1.42188 12.7812 6.34375
Q5.51562 14.1094 5.51562 27.2969
Q5.51562 40.6719 12.8594 48.3281
Q20.2188 56 33.0156 56
Q37.1562 56 41.1094 55.1406
Q45.0625 54.2969 48.7812 52.5938" id="BitstreamVeraSans-Roman-63"/>
     </defs>
     <g transform="translate(26.55625 461.753125)rotate(-90.0)scale(0.2 -0.2)">
      <use xlink:href="#BitstreamVeraSans-Roman-53"/>
      <use x="63.4765625" xlink:href="#BitstreamVeraSans-Roman-65"/>
      <use x="125.0" xlink:href="#BitstreamVeraSans-Roman-63"/>
      <use x="179.98046875" xlink:href="#BitstreamVeraSans-Roman-6f"/>
      <use x="241.162109375" xlink:href="#BitstreamVeraSans-Roman-6e"/>
      <use x="304.541015625" xlink:href="#BitstreamVeraSans-Roman-64"/>
      <use x="368.017578125" xlink:href="#BitstreamVeraSans-Roman-61"/>
      <use x="429.296875" xlink:href="#BitstreamVeraSans-Roman-72"/>
      <use x="470.41015625" xlink:href="#BitstreamVeraSans-Roman-79"/>
      <use x="529.58984375" xlink:href="#BitstreamVeraSans-Roman-20"/>
      <use x="561.376953125" xlink:href="#BitstreamVeraSans-Roman-6d"/>
      <use x="658.7890625" xlink:href="#BitstreamVeraSans-Roman-69"/>
      <use x="686.572265625" xlink:href="#BitstreamVeraSans-Roman-6e"/>
      <use x="749.951171875" xlink:href="#BitstreamVeraSans-Roman-75"/>
      <use x="813.330078125" xlink:href="#BitstreamVeraSans-Roman-73"/>
      <use x="865.4296875" xlink:href="#BitstreamVeraSans-Roman-20"/>
      <use x="897.216796875" xlink:href="#BitstreamVeraSans-Roman-50"/>
      <use x="955.76953125" xlink:href="#BitstreamVeraSans-Roman-72"/>
      <use x="996.8828125" xlink:href="#BitstreamVeraSans-Roman-69"/>
      <use x="1024.66601562" xlink:href="#BitstreamVeraSans-Roman-6d"/>
      <use x="1122.078125" xlink:href="#BitstreamVeraSans-Roman-61"/>
      <use x="1183.35742188" xlink:href="#BitstreamVeraSans-Roman-72"/>
      <use x="1224.47070312" xlink:href="#BitstreamVeraSans-Roman-79"/>
      <use x="1283.65039062" xlink:href="#BitstreamVeraSans-Roman-20"/>
      <use x="1315.4375" xlink:href="#BitstreamVeraSans-Roman-63"/>
      <use x="1370.41796875" xlink:href="#BitstreamVeraSans-Roman-6f"/>
      <use x="1431.59960938" xlink:href="#BitstreamVeraSans-Roman-75"/>
      <use x="1494.97851562" xlink:href="#BitstreamVeraSans-Roman-6e"/>
      <use x="1558.35742188" xlink:href="#BitstreamVeraSans-Roman-74"/>
     </g>
    </g>
   </g>
   <g id="patch_3">
    <path d="
M67.4688 27.3969
L904.469 27.3969" style="fill:none;stroke:#000000;"/>
   </g>
   <g id="patch_4">
    <path d="
M904.469 585.397
L904.469 27.3969" style="fill:none;stroke:#000000;"/>
   </g>
   <g id="patch_5">
    <path d="
M67.4688 585.397
L904.469 585.397" style="fill:none;stroke:#000000;"/>
   </g>
   <g id="patch_6">
    <path d="
M67.4688 585.397
L67.4688 27.3969" style="fill:none;stroke:#000000;"/>
   </g>
   <g id="text_16">
    <!-- Event size: secondary asset outage counts -->
    <defs>
     <path d="
M1.21875 54.6875
L18.7031 54.6875
L33.4062 17.5781
L45.9062 54.6875
L63.375 54.6875
L40.375 -5.17188
Q36.9219 -14.3125 32.2969 -17.9375
Q27.6875 -21.5781 20.125 -21.5781
L10.0156 -21.5781
L10.0156 -10.1094
L15.4844 -10.1094
Q19.9219 -10.1094 21.9375 -8.6875
Q23.9688 -7.28125 25.0938 -3.60938
L25.5938 -2.09375
z
" id="BitstreamVeraSans-Bold-79"/>
     <path d="
M8.40625 54.6875
L25.875 54.6875
L25.875 0
L8.40625 0
z

M8.40625 75.9844
L25.875 75.9844
L25.875 61.7188
L8.40625 61.7188
z
" id="BitstreamVeraSans-Bold-69"/>
     <path d="
M9.1875 72.9062
L59.9062 72.9062
L59.9062 58.6875
L27.9844 58.6875
L27.9844 45.125
L58.0156 45.125
L58.0156 30.9062
L27.9844 30.9062
L27.9844 14.2031
L60.9844 14.2031
L60.9844 0
L9.1875 0
z
" id="BitstreamVeraSans-Bold-45"/>
     <path id="BitstreamVeraSans-Bold-20"/>
     <path d="
M52.5938 52.9844
L52.5938 38.7188
Q49.0312 41.1562 45.4375 42.3281
Q41.8438 43.5 37.9844 43.5
Q30.6719 43.5 26.5938 39.2344
Q22.5156 34.9688 22.5156 27.2969
Q22.5156 19.625 26.5938 15.3438
Q30.6719 11.0781 37.9844 11.0781
Q42.0938 11.0781 45.7812 12.2969
Q49.4688 13.5312 52.5938 15.9219
L52.5938 1.60938
Q48.4844 0.09375 44.2656 -0.65625
Q40.0469 -1.42188 35.7969 -1.42188
Q21 -1.42188 12.6406 6.17188
Q4.29688 13.7656 4.29688 27.2969
Q4.29688 40.8281 12.6406 48.4062
Q21 56 35.7969 56
Q40.0938 56 44.2656 55.25
Q48.4375 54.5 52.5938 52.9844" id="BitstreamVeraSans-Bold-63"/>
     <path d="
M51.125 52.9844
L51.125 39.7031
Q45.5156 42.0469 40.2812 43.2188
Q35.0625 44.3906 30.4219 44.3906
Q25.4375 44.3906 23.0156 43.1406
Q20.6094 41.8906 20.6094 39.3125
Q20.6094 37.2031 22.4375 36.0781
Q24.2656 34.9688 29 34.4219
L32.0781 33.9844
Q45.5156 32.2812 50.1406 28.375
Q54.7812 24.4688 54.7812 16.1094
Q54.7812 7.375 48.3281 2.96875
Q41.8906 -1.42188 29.1094 -1.42188
Q23.6875 -1.42188 17.8906 -0.5625
Q12.1094 0.296875 6 2
L6 15.2812
Q11.2344 12.75 16.7188 11.4688
Q22.2188 10.2031 27.875 10.2031
Q33.0156 10.2031 35.5938 11.6094
Q38.1875 13.0312 38.1875 15.8281
Q38.1875 18.1719 36.4062 19.3125
Q34.625 20.4531 29.2969 21.0938
L26.2188 21.4844
Q14.5469 22.9531 9.85938 26.9062
Q5.17188 30.8594 5.17188 38.9219
Q5.17188 47.6094 11.125 51.7969
Q17.0938 56 29.3906 56
Q34.2344 56 39.5469 55.2656
Q44.875 54.5469 51.125 52.9844" id="BitstreamVeraSans-Bold-73"/>
     <path d="
M32.9062 24.6094
Q27.4375 24.6094 24.6719 22.75
Q21.9219 20.9062 21.9219 17.2812
Q21.9219 13.9688 24.1406 12.0781
Q26.375 10.2031 30.3281 10.2031
Q35.25 10.2031 38.625 13.7344
Q42 17.2812 42 22.6094
L42 24.6094
z

M59.625 31.2031
L59.625 0
L42 0
L42 8.10938
Q38.4844 3.125 34.0781 0.84375
Q29.6875 -1.42188 23.3906 -1.42188
Q14.8906 -1.42188 9.59375 3.53125
Q4.29688 8.5 4.29688 16.4062
Q4.29688 26.0312 10.9062 30.5156
Q17.5312 35.0156 31.6875 35.0156
L42 35.0156
L42 36.375
Q42 40.5312 38.7188 42.4531
Q35.4531 44.3906 28.5156 44.3906
Q22.9062 44.3906 18.0625 43.2656
Q13.2344 42.1406 9.07812 39.8906
L9.07812 53.2188
Q14.7031 54.5938 20.3594 55.2969
Q26.0312 56 31.6875 56
Q46.4844 56 53.0469 50.1719
Q59.625 44.3438 59.625 31.2031" id="BitstreamVeraSans-Bold-61"/>
     <path d="
M7.8125 21.2969
L7.8125 54.6875
L25.3906 54.6875
L25.3906 49.2188
Q25.3906 44.7812 25.3438 38.0625
Q25.2969 31.3438 25.2969 29.1094
Q25.2969 22.5156 25.6406 19.6094
Q25.9844 16.7031 26.8125 15.375
Q27.875 13.6719 29.6094 12.7344
Q31.3438 11.8125 33.5938 11.8125
Q39.0625 11.8125 42.1875 16.0156
Q45.3125 20.2188 45.3125 27.6875
L45.3125 54.6875
L62.7969 54.6875
L62.7969 0
L45.3125 0
L45.3125 7.90625
Q41.3594 3.125 36.9375 0.84375
Q32.5156 -1.42188 27.2031 -1.42188
Q17.7188 -1.42188 12.7656 4.39062
Q7.8125 10.2031 7.8125 21.2969" id="BitstreamVeraSans-Bold-75"/>
     <path d="
M27.4844 70.2188
L27.4844 54.6875
L45.5156 54.6875
L45.5156 42.1875
L27.4844 42.1875
L27.4844 19
Q27.4844 15.1875 29 13.8438
Q30.5156 12.5 35.0156 12.5
L44 12.5
L44 0
L29 0
Q18.6562 0 14.3281 4.3125
Q10.0156 8.64062 10.0156 19
L10.0156 42.1875
L1.3125 42.1875
L1.3125 54.6875
L10.0156 54.6875
L10.0156 70.2188
z
" id="BitstreamVeraSans-Bold-74"/>
     <path d="
M45.6094 46.6875
L45.6094 75.9844
L63.1875 75.9844
L63.1875 0
L45.6094 0
L45.6094 7.90625
Q42 3.07812 37.6406 0.828125
Q33.2969 -1.42188 27.5938 -1.42188
Q17.4844 -1.42188 10.9844 6.60938
Q4.5 14.6562 4.5 27.2969
Q4.5 39.9375 10.9844 47.9688
Q17.4844 56 27.5938 56
Q33.25 56 37.625 53.7344
Q42 51.4688 45.6094 46.6875
M34.0781 11.2812
Q39.7031 11.2812 42.6562 15.375
Q45.6094 19.4844 45.6094 27.2969
Q45.6094 35.1094 42.6562 39.2031
Q39.7031 43.3125 34.0781 43.3125
Q28.5156 43.3125 25.5625 39.2031
Q22.6094 35.1094 22.6094 27.2969
Q22.6094 19.4844 25.5625 15.375
Q28.5156 11.2812 34.0781 11.2812" id="BitstreamVeraSans-Bold-64"/>
     <path d="
M62.9844 27.4844
L62.9844 22.5156
L22.125 22.5156
Q22.75 16.3594 26.5625 13.2812
Q30.375 10.2031 37.2031 10.2031
Q42.7188 10.2031 48.5 11.8438
Q54.2969 13.4844 60.4062 16.7969
L60.4062 3.32812
Q54.2031 0.984375 48 -0.21875
Q41.7969 -1.42188 35.5938 -1.42188
Q20.75 -1.42188 12.5156 6.125
Q4.29688 13.6719 4.29688 27.2969
Q4.29688 40.6719 12.375 48.3281
Q20.4531 56 34.625 56
Q47.5156 56 55.25 48.2344
Q62.9844 40.4844 62.9844 27.4844
M45.0156 33.2969
Q45.0156 38.2812 42.1094 41.3281
Q39.2031 44.3906 34.5156 44.3906
Q29.4375 44.3906 26.2656 41.5312
Q23.0938 38.6719 22.3125 33.2969
z
" id="BitstreamVeraSans-Bold-65"/>
     <path d="
M49.0312 39.7969
Q46.7344 40.875 44.4531 41.375
Q42.1875 41.8906 39.8906 41.8906
Q33.1562 41.8906 29.5156 37.5625
Q25.875 33.25 25.875 25.2031
L25.875 0
L8.40625 0
L8.40625 54.6875
L25.875 54.6875
L25.875 45.7031
Q29.25 51.0781 33.6094 53.5312
Q37.9844 56 44.0938 56
Q44.9688 56 45.9844 55.9219
Q47.0156 55.8594 48.9688 55.6094
z
" id="BitstreamVeraSans-Bold-72"/>
     <path d="
M11.1875 54.6875
L28.8125 54.6875
L28.8125 35.7969
L11.1875 35.7969
z

M11.1875 18.8906
L28.8125 18.8906
L28.8125 0
L11.1875 0
z
" id="BitstreamVeraSans-Bold-3a"/>
     <path d="
M45.6094 9.28125
Q42 4.5 37.6406 2.25
Q33.2969 0 27.5938 0
Q17.5781 0 11.0312 7.875
Q4.5 15.7656 4.5 27.9844
Q4.5 40.2344 11.0312 48.0625
Q17.5781 55.9062 27.5938 55.9062
Q33.2969 55.9062 37.6406 53.6562
Q42 51.4219 45.6094 46.5781
L45.6094 54.6875
L63.1875 54.6875
L63.1875 5.51562
Q63.1875 -7.67188 54.8594 -14.625
Q46.5312 -21.5781 30.7188 -21.5781
Q25.5938 -21.5781 20.7969 -20.7969
Q16.0156 -20.0156 11.1875 -18.4062
L11.1875 -4.78125
Q15.7656 -7.42188 20.1562 -8.71875
Q24.5625 -10.0156 29 -10.0156
Q37.5938 -10.0156 41.5938 -6.25
Q45.6094 -2.48438 45.6094 5.51562
z

M34.0781 43.3125
Q28.6562 43.3125 25.625 39.2969
Q22.6094 35.2969 22.6094 27.9844
Q22.6094 20.4531 25.5312 16.5781
Q28.4688 12.7031 34.0781 12.7031
Q39.5469 12.7031 42.5781 16.7031
Q45.6094 20.7031 45.6094 27.9844
Q45.6094 35.2969 42.5781 39.2969
Q39.5469 43.3125 34.0781 43.3125" id="BitstreamVeraSans-Bold-67"/>
     <path d="
M5.71875 54.6875
L53.4219 54.6875
L53.4219 42.4844
L24.6094 12.5
L53.4219 12.5
L53.4219 0
L4.5 0
L4.5 12.2031
L33.2969 42.1875
L5.71875 42.1875
z
" id="BitstreamVeraSans-Bold-7a"/>
     <path d="
M1.51562 54.6875
L19 54.6875
L32.625 16.8906
L46.1875 54.6875
L63.7188 54.6875
L42.1875 0
L23 0
z
" id="BitstreamVeraSans-Bold-76"/>
     <path d="
M34.4219 43.5
Q28.6094 43.5 25.5625 39.3281
Q22.5156 35.1562 22.5156 27.2969
Q22.5156 19.4375 25.5625 15.25
Q28.6094 11.0781 34.4219 11.0781
Q40.1406 11.0781 43.1562 15.25
Q46.1875 19.4375 46.1875 27.2969
Q46.1875 35.1562 43.1562 39.3281
Q40.1406 43.5 34.4219 43.5
M34.4219 56
Q48.5312 56 56.4688 48.375
Q64.4062 40.7656 64.4062 27.2969
Q64.4062 13.8125 56.4688 6.1875
Q48.5312 -1.42188 34.4219 -1.42188
Q20.2656 -1.42188 12.2812 6.1875
Q4.29688 13.8125 4.29688 27.2969
Q4.29688 40.7656 12.2812 48.375
Q20.2656 56 34.4219 56" id="BitstreamVeraSans-Bold-6f"/>
     <path d="
M63.375 33.2969
L63.375 0
L45.7969 0
L45.7969 5.42188
L45.7969 25.4844
Q45.7969 32.5625 45.4844 35.25
Q45.1719 37.9375 44.3906 39.2031
Q43.3594 40.9219 41.5938 41.875
Q39.8438 42.8281 37.5938 42.8281
Q32.125 42.8281 29 38.5938
Q25.875 34.375 25.875 26.9062
L25.875 0
L8.40625 0
L8.40625 54.6875
L25.875 54.6875
L25.875 46.6875
Q29.8281 51.4688 34.2656 53.7344
Q38.7188 56 44.0938 56
Q53.5625 56 58.4688 50.1875
Q63.375 44.3906 63.375 33.2969" id="BitstreamVeraSans-Bold-6e"/>
    </defs>
    <g transform="translate(245.5765625 22.396875)scale(0.2 -0.2)">
     <use xlink:href="#BitstreamVeraSans-Bold-45"/>
     <use x="68.310546875" xlink:href="#BitstreamVeraSans-Bold-76"/>
     <use x="133.49609375" xlink:href="#BitstreamVeraSans-Bold-65"/>
     <use x="201.318359375" xlink:href="#BitstreamVeraSans-Bold-6e"/>
     <use x="272.509765625" xlink:href="#BitstreamVeraSans-Bold-74"/>
     <use x="320.3125" xlink:href="#BitstreamVeraSans-Bold-20"/>
     <use x="355.126953125" xlink:href="#BitstreamVeraSans-Bold-73"/>
     <use x="414.6484375" xlink:href="#BitstreamVeraSans-Bold-69"/>
     <use x="448.92578125" xlink:href="#BitstreamVeraSans-Bold-7a"/>
     <use x="507.12890625" xlink:href="#BitstreamVeraSans-Bold-65"/>
     <use x="574.951171875" xlink:href="#BitstreamVeraSans-Bold-3a"/>
     <use x="614.94140625" xlink:href="#BitstreamVeraSans-Bold-20"/>
     <use x="649.755859375" xlink:href="#BitstreamVeraSans-Bold-73"/>
     <use x="709.27734375" xlink:href="#BitstreamVeraSans-Bold-65"/>
     <use x="777.099609375" xlink:href="#BitstreamVeraSans-Bold-63"/>
     <use x="836.376953125" xlink:href="#BitstreamVeraSans-Bold-6f"/>
     <use x="905.078125" xlink:href="#BitstreamVeraSans-Bold-6e"/>
     <use x="976.26953125" xlink:href="#BitstreamVeraSans-Bold-64"/>
     <use x="1047.8515625" xlink:href="#BitstreamVeraSans-Bold-61"/>
     <use x="1115.33203125" xlink:href="#BitstreamVeraSans-Bold-72"/>
     <use x="1164.6484375" xlink:href="#BitstreamVeraSans-Bold-79"/>
     <use x="1229.83398438" xlink:href="#BitstreamVeraSans-Bold-20"/>
     <use x="1264.6484375" xlink:href="#BitstreamVeraSans-Bold-61"/>
     <use x="1332.12890625" xlink:href="#BitstreamVeraSans-Bold-73"/>
     <use x="1391.65039062" xlink:href="#BitstreamVeraSans-Bold-73"/>
     <use x="1451.171875" xlink:href="#BitstreamVeraSans-Bold-65"/>
     <use x="1518.99414062" xlink:href="#BitstreamVeraSans-Bold-74"/>
     <use x="1566.796875" xlink:href="#BitstreamVeraSans-Bold-20"/>
     <use x="1601.61132812" xlink:href="#BitstreamVeraSans-Bold-6f"/>
     <use x="1670.3125" xlink:href="#BitstreamVeraSans-Bold-75"/>
     <use x="1741.50390625" xlink:href="#BitstreamVeraSans-Bold-74"/>
     <use x="1789.30664062" xlink:href="#BitstreamVeraSans-Bold-61"/>
     <use x="1856.78710938" xlink:href="#BitstreamVeraSans-Bold-67"/>
     <use x="1928.36914062" xlink:href="#BitstreamVeraSans-Bold-65"/>
     <use x="1996.19140625" xlink:href="#BitstreamVeraSans-Bold-20"/>
     <use x="2031.00585938" xlink:href="#BitstreamVeraSans-Bold-63"/>
     <use x="2090.28320312" xlink:href="#BitstreamVeraSans-Bold-6f"/>
     <use x="2158.984375" xlink:href="#BitstreamVeraSans-Bold-75"/>
     <use x="2230.17578125" xlink:href="#BitstreamVeraSans-Bold-6e"/>
     <use x="2301.3671875" xlink:href="#BitstreamVeraSans-Bold-74"/>
     <use x="2349.16992188" xlink:href="#BitstreamVeraSans-Bold-73"/>
    </g>
   </g>
  </g>
 </g>
 <defs>
  <clipPath id="pb2cad31217">
   <rect height="558.0" width="837.0" x="67.46875" y="27.396875"/>
  </clipPath>
 </defs>
</svg>
