<?xml version="1.0" encoding="utf-8" standalone="no"?>
<!DOCTYPE svg PUBLIC "-//W3C//DTD SVG 1.1//EN"
  "http://www.w3.org/Graphics/SVG/1.1/DTD/svg11.dtd">
<!-- Created with matplotlib (http://matplotlib.org/) -->
<svg height="607pt" version="1.1" viewBox="0 0 701 607" width="701pt" xmlns="http://www.w3.org/2000/svg" xmlns:xlink="http://www.w3.org/1999/xlink">
 <defs>
  <style type="text/css">
*{stroke-linecap:square;stroke-linejoin:round;}
  </style>
 </defs>
 <g id="figure_1">
  <g id="patch_1">
   <path d="
M0 607.943
L701.555 607.943
L701.555 0
L0 0
z
" style="fill:#ffffff;"/>
  </g>
  <g id="axes_1">
   <g id="patch_2">
    <path d="
M80.5555 585.397
L694.355 585.397
L694.355 27.3969
L80.5555 27.3969
z
" style="fill:#ffffff;"/>
   </g>
   <g id="PolyCollection_1">
    <defs>
     <path d="
M80.5555 -22.5461
L80.5555 -22.5586
L103.166 -22.5586
L110.786 -22.5586
L118.24 -22.5586
L123.292 -22.5586
L138.449 -22.5586
L141.016 -22.5586
L171.246 -22.7735
L178.783 -22.7735
L180.605 -22.7735
L183.836 -22.7735
L201.56 -22.7735
L206.446 -22.7735
L221.686 -22.7735
L231.79 -22.7735
L236.18 -22.7735
L238.83 -22.7735
L244.296 -22.7735
L251.916 -22.7735
L254.401 -22.7735
L262.02 -24.5412
L264.836 -24.5412
L271.959 -24.5412
L287.198 -24.5412
L289.683 -24.5412
L292.251 -24.5412
L299.788 -24.5412
L307.324 -24.5412
L322.564 -24.5412
L323.558 -24.5412
L330.018 -24.5412
L350.227 -24.5412
L352.794 -24.5412
L355.362 -24.5412
L360.248 -24.5412
L363.064 -24.5412
L380.457 -24.5412
L383.024 -24.5412
L395.945 -24.5468
L396.193 -24.5524
L400.583 -24.5691
L408.203 -24.5691
L409.031 -24.5412
L410.687 -24.5691
L413.255 -24.5691
L418.224 -25.1271
L420.792 -25.6851
L420.957 -25.6572
L422.697 -25.6572
L423.276 -26.5668
L425.844 -26.5668
L428.66 -26.5947
L429.985 -27.3312
L430.896 -28.676
L433.464 -30.138
L435.948 -31.5274
L437.439 -31.4995
L438.516 -31.5383
L441 -31.7729
L442.077 -31.745
L443.568 -31.7729
L448.454 -31.7785
L449.2 -31.7506
L451.022 -31.7506
L453.507 -31.7785
L466.179 -31.7785
L473.798 -31.7785
L478.685 -30.7406
L481.252 -30.7406
L488.789 -31.3321
L491.357 -31.3321
L493.676 -31.3349
L493.924 -31.3488
L494.835 -31.36
L495.001 -31.3879
L495.084 -31.4716
L496.409 -31.4716
L504.029 -31.4716
L508.915 -32.5876
L511.483 -34.2069
L513.967 -34.9881
L516.535 -35.2671
L516.783 -35.3787
L517.363 -35.4903
L517.777 -35.6019
L518.274 -35.9367
L518.688 -36.0483
L518.937 -36.1599
L519.02 -38.0002
L520.759 -38.2234
L521.587 -39.451
L522.664 -38.335
L525.811 -38.335
L526.639 -38.9488
L529.207 -38.9488
L531.691 -38.9488
L534.259 -39.73
L541.796 -39.73
L541.961 -39.73
L544.28 -39.73
L546.848 -40.846
L549.333 -40.846
L551.9 -40.846
L552.231 -40.846
L552.48 -40.8463
L554.468 -40.8463
L554.551 -40.8463
L556.952 -40.8463
L559.851 -40.8463
L563.247 -40.8463
L564.572 -41.0695
L565.483 -41.0695
L566.643 -41.0695
L569.459 -41.0695
L569.956 -41.1979
L570.784 -41.3262
L570.867 -41.4545
L571.115 -41.5829
L571.446 -41.7112
L571.529 -41.8396
L572.026 -41.8396
L572.689 -42.3529
L574.097 -42.8663
L574.345 -42.9946
L574.511 -43.2178
L575.339 -43.8595
L575.836 -43.8595
L577.078 -44.6407
L577.824 -44.6407
L579.397 -44.6407
L579.563 -45.7567
L580.723 -46.3147
L582.131 -46.5379
L583.704 -47.0959
L584.698 -47.6539
L587.183 -49.473
L589.253 -49.5148
L589.502 -49.5567
L589.75 -49.7799
L589.833 -49.7799
L590.496 -49.7799
L590.578 -49.7799
L590.993 -49.7799
L591.075 -49.7799
L592.235 -49.7799
L594.802 -49.5651
L596.21 -49.5651
L597.95 -49.6069
L599.689 -49.6069
L602.256 -49.6069
L603.168 -49.6069
L604.327 -49.6069
L607.309 -49.632
L609.793 -49.632
L614.928 -49.632
L616.005 -49.632
L620.726 -49.632
L621.306 -49.7604
L621.968 -49.7604
L622.465 -49.7478
L624.287 -49.7478
L625.033 -49.8036
L627.6 -52.2421
L629.008 -52.5769
L629.919 -52.9117
L630.002 -53.2465
L630.665 -54.608
L631.162 -54.8591
L631.327 -55.1939
L631.41 -55.3613
L632.487 -55.7798
L638.616 -55.7798
L639.941 -56.1425
L640.024 -56.1425
L640.521 -56.1704
L650.211 -56.4075
L652.696 -56.5973
L655.263 -56.5973
L665.285 -56.5973
L672.904 -56.5973
L685.576 -56.5973
L686.239 -56.5973
L690.463 -56.5973
L692.202 -56.5973
L692.533 -56.5973
L693.03 -56.5973
L694.355 -56.5973
L694.355 -22.5461
L694.355 -22.5461
L693.03 -22.5461
L692.533 -22.5461
L692.202 -22.5461
L690.463 -22.5461
L686.239 -22.5461
L685.576 -22.5461
L672.904 -22.5461
L665.285 -22.5461
L655.263 -22.5461
L652.696 -22.5461
L650.211 -22.5461
L640.521 -22.5461
L640.024 -22.5461
L639.941 -22.5461
L638.616 -22.5461
L632.487 -22.5461
L631.41 -22.5461
L631.327 -22.5461
L631.162 -22.5461
L630.665 -22.5461
L630.002 -22.5461
L629.919 -22.5461
L629.008 -22.5461
L627.6 -22.5461
L625.033 -22.5461
L624.287 -22.5461
L622.465 -22.5461
L621.968 -22.5461
L621.306 -22.5461
L620.726 -22.5461
L616.005 -22.5461
L614.928 -22.5461
L609.793 -22.5461
L607.309 -22.5461
L604.327 -22.5461
L603.168 -22.5461
L602.256 -22.5461
L599.689 -22.5461
L597.95 -22.5461
L596.21 -22.5461
L594.802 -22.5461
L592.235 -22.5461
L591.075 -22.5461
L590.993 -22.5461
L590.578 -22.5461
L590.496 -22.5461
L589.833 -22.5461
L589.75 -22.5461
L589.502 -22.5461
L589.253 -22.5461
L587.183 -22.5461
L584.698 -22.5461
L583.704 -22.5461
L582.131 -22.5461
L580.723 -22.5461
L579.563 -22.5461
L579.397 -22.5461
L577.824 -22.5461
L577.078 -22.5461
L575.836 -22.5461
L575.339 -22.5461
L574.511 -22.5461
L574.345 -22.5461
L574.097 -22.5461
L572.689 -22.5461
L572.026 -22.5461
L571.529 -22.5461
L571.446 -22.5461
L571.115 -22.5461
L570.867 -22.5461
L570.784 -22.5461
L569.956 -22.5461
L569.459 -22.5461
L566.643 -22.5461
L565.483 -22.5461
L564.572 -22.5461
L563.247 -22.5461
L559.851 -22.5461
L556.952 -22.5461
L554.551 -22.5461
L554.468 -22.5461
L552.48 -22.5461
L552.231 -22.5461
L551.9 -22.5461
L549.333 -22.5461
L546.848 -22.5461
L544.28 -22.5461
L541.961 -22.5461
L541.796 -22.5461
L534.259 -22.5461
L531.691 -22.5461
L529.207 -22.5461
L526.639 -22.5461
L525.811 -22.5461
L522.664 -22.5461
L521.587 -22.5461
L520.759 -22.5461
L519.02 -22.5461
L518.937 -22.5461
L518.688 -22.5461
L518.274 -22.5461
L517.777 -22.5461
L517.363 -22.5461
L516.783 -22.5461
L516.535 -22.5461
L513.967 -22.5461
L511.483 -22.5461
L508.915 -22.5461
L504.029 -22.5461
L496.409 -22.5461
L495.084 -22.5461
L495.001 -22.5461
L494.835 -22.5461
L493.924 -22.5461
L493.676 -22.5461
L491.357 -22.5461
L488.789 -22.5461
L481.252 -22.5461
L478.685 -22.5461
L473.798 -22.5461
L466.179 -22.5461
L453.507 -22.5461
L451.022 -22.5461
L449.2 -22.5461
L448.454 -22.5461
L443.568 -22.5461
L442.077 -22.5461
L441 -22.5461
L438.516 -22.5461
L437.439 -22.5461
L435.948 -22.5461
L433.464 -22.5461
L430.896 -22.5461
L429.985 -22.5461
L428.66 -22.5461
L425.844 -22.5461
L423.276 -22.5461
L422.697 -22.5461
L420.957 -22.5461
L420.792 -22.5461
L418.224 -22.5461
L413.255 -22.5461
L410.687 -22.5461
L409.031 -22.5461
L408.203 -22.5461
L400.583 -22.5461
L396.193 -22.5461
L395.945 -22.5461
L383.024 -22.5461
L380.457 -22.5461
L363.064 -22.5461
L360.248 -22.5461
L355.362 -22.5461
L352.794 -22.5461
L350.227 -22.5461
L330.018 -22.5461
L323.558 -22.5461
L322.564 -22.5461
L307.324 -22.5461
L299.788 -22.5461
L292.251 -22.5461
L289.683 -22.5461
L287.198 -22.5461
L271.959 -22.5461
L264.836 -22.5461
L262.02 -22.5461
L254.401 -22.5461
L251.916 -22.5461
L244.296 -22.5461
L238.83 -22.5461
L236.18 -22.5461
L231.79 -22.5461
L221.686 -22.5461
L206.446 -22.5461
L201.56 -22.5461
L183.836 -22.5461
L180.605 -22.5461
L178.783 -22.5461
L171.246 -22.5461
L141.016 -22.5461
L138.449 -22.5461
L123.292 -22.5461
L118.24 -22.5461
L110.786 -22.5461
L103.166 -22.5461
L80.5555 -22.5461
z
" id="C0_0_605fe1297d"/>
    </defs>
    <g clip-path="url(#p4c22383844)">
     <use style="fill:#61bc3a;stroke:#61bc3a;stroke-linecap:butt;" x="0.0" xlink:href="#C0_0_605fe1297d" y="607.94296875"/>
    </g>
   </g>
   <g id="PolyCollection_2">
    <defs>
     <path d="
M80.5555 -40.3455
L80.5555 -22.5586
L103.166 -22.5586
L110.786 -22.5586
L118.24 -22.5586
L123.292 -22.5586
L138.449 -22.5586
L141.016 -22.5586
L171.246 -22.7735
L178.783 -22.7735
L180.605 -22.7735
L183.836 -22.7735
L201.56 -22.7735
L206.446 -22.7735
L221.686 -22.7735
L231.79 -22.7735
L236.18 -22.7735
L238.83 -22.7735
L244.296 -22.7735
L251.916 -22.7735
L254.401 -22.7735
L262.02 -24.5412
L264.836 -24.5412
L271.959 -24.5412
L287.198 -24.5412
L289.683 -24.5412
L292.251 -24.5412
L299.788 -24.5412
L307.324 -24.5412
L322.564 -24.5412
L323.558 -24.5412
L330.018 -24.5412
L350.227 -24.5412
L352.794 -24.5412
L355.362 -24.5412
L360.248 -24.5412
L363.064 -24.5412
L380.457 -24.5412
L383.024 -24.5412
L395.945 -24.5468
L396.193 -24.5524
L400.583 -24.5691
L408.203 -24.5691
L409.031 -24.5412
L410.687 -24.5691
L413.255 -24.5691
L418.224 -25.1271
L420.792 -25.6851
L420.957 -25.6572
L422.697 -25.6572
L423.276 -26.5668
L425.844 -26.5668
L428.66 -26.5947
L429.985 -27.3312
L430.896 -28.676
L433.464 -30.138
L435.948 -31.5274
L437.439 -31.4995
L438.516 -31.5383
L441 -31.7729
L442.077 -31.745
L443.568 -31.7729
L448.454 -31.7785
L449.2 -31.7506
L451.022 -31.7506
L453.507 -31.7785
L466.179 -31.7785
L473.798 -31.7785
L478.685 -30.7406
L481.252 -30.7406
L488.789 -31.3321
L491.357 -31.3321
L493.676 -31.3349
L493.924 -31.3488
L494.835 -31.36
L495.001 -31.3879
L495.084 -31.4716
L496.409 -31.4716
L504.029 -31.4716
L508.915 -32.5876
L511.483 -34.2069
L513.967 -34.9881
L516.535 -35.2671
L516.783 -35.3787
L517.363 -35.4903
L517.777 -35.6019
L518.274 -35.9367
L518.688 -36.0483
L518.937 -36.1599
L519.02 -38.0002
L520.759 -38.2234
L521.587 -39.451
L522.664 -38.335
L525.811 -38.335
L526.639 -38.9488
L529.207 -38.9488
L531.691 -38.9488
L534.259 -39.73
L541.796 -39.73
L541.961 -39.73
L544.28 -39.73
L546.848 -40.846
L549.333 -40.846
L551.9 -40.846
L552.231 -40.846
L552.48 -40.8463
L554.468 -40.8463
L554.551 -40.8463
L556.952 -40.8463
L559.851 -40.8463
L563.247 -40.8463
L564.572 -41.0695
L565.483 -41.0695
L566.643 -41.0695
L569.459 -41.0695
L569.956 -41.1979
L570.784 -41.3262
L570.867 -41.4545
L571.115 -41.5829
L571.446 -41.7112
L571.529 -41.8396
L572.026 -41.8396
L572.689 -42.3529
L574.097 -42.8663
L574.345 -42.9946
L574.511 -43.2178
L575.339 -43.8595
L575.836 -43.8595
L577.078 -44.6407
L577.824 -44.6407
L579.397 -44.6407
L579.563 -45.7567
L580.723 -46.3147
L582.131 -46.5379
L583.704 -47.0959
L584.698 -47.6539
L587.183 -49.473
L589.253 -49.5148
L589.502 -49.5567
L589.75 -49.7799
L589.833 -49.7799
L590.496 -49.7799
L590.578 -49.7799
L590.993 -49.7799
L591.075 -49.7799
L592.235 -49.7799
L594.802 -49.5651
L596.21 -49.5651
L597.95 -49.6069
L599.689 -49.6069
L602.256 -49.6069
L603.168 -49.6069
L604.327 -49.6069
L607.309 -49.632
L609.793 -49.632
L614.928 -49.632
L616.005 -49.632
L620.726 -49.632
L621.306 -49.7604
L621.968 -49.7604
L622.465 -49.7478
L624.287 -49.7478
L625.033 -49.8036
L627.6 -52.2421
L629.008 -52.5769
L629.919 -52.9117
L630.002 -53.2465
L630.665 -54.608
L631.162 -54.8591
L631.327 -55.1939
L631.41 -55.3613
L632.487 -55.7798
L638.616 -55.7798
L639.941 -56.1425
L640.024 -56.1425
L640.521 -56.1704
L650.211 -56.4075
L652.696 -56.5973
L655.263 -56.5973
L665.285 -56.5973
L672.904 -56.5973
L685.576 -56.5973
L686.239 -56.5973
L690.463 -56.5973
L692.202 -56.5973
L692.533 -56.5973
L693.03 -56.5973
L694.355 -56.5973
L694.355 -113.12
L694.355 -113.12
L693.03 -109.382
L692.533 -109.382
L692.202 -108.656
L690.463 -113.12
L686.239 -113.12
L685.576 -113.12
L672.904 -99.282
L665.285 -99.282
L655.263 -99.282
L652.696 -99.282
L650.211 -99.0923
L640.521 -98.8552
L640.024 -98.8273
L639.941 -98.8273
L638.616 -98.4646
L632.487 -98.4646
L631.41 -98.0461
L631.327 -97.8787
L631.162 -97.5439
L630.665 -97.2928
L630.002 -95.9312
L629.919 -95.5964
L629.008 -95.2616
L627.6 -94.9268
L625.033 -92.4884
L624.287 -92.4326
L622.465 -92.4326
L621.968 -92.4451
L621.306 -92.4451
L620.726 -92.3168
L616.005 -92.3168
L614.928 -92.3168
L609.793 -92.3168
L607.309 -92.3168
L604.327 -92.2917
L603.168 -92.2917
L602.256 -92.2917
L599.689 -90.986
L597.95 -90.986
L596.21 -90.9441
L594.802 -83.5785
L592.235 -83.7933
L591.075 -83.7933
L590.993 -83.7933
L590.578 -83.7933
L590.496 -83.7933
L589.833 -83.7933
L589.75 -83.7933
L589.502 -83.5701
L589.253 -83.5283
L587.183 -83.4864
L584.698 -81.6674
L583.704 -80.7188
L582.131 -80.1608
L580.723 -79.9376
L579.563 -79.3796
L579.397 -78.2636
L577.824 -78.2636
L577.078 -78.2636
L575.836 -77.4824
L575.339 -77.4824
L574.511 -76.8407
L574.345 -76.6175
L574.097 -76.4891
L572.689 -75.9758
L572.026 -75.4624
L571.529 -75.4624
L571.446 -75.3341
L571.115 -75.2057
L570.867 -75.0774
L570.784 -74.949
L569.956 -74.8207
L569.459 -74.6924
L566.643 -74.6924
L565.483 -74.6924
L564.572 -74.6924
L563.247 -74.4692
L559.851 -74.4692
L556.952 -74.4692
L554.551 -74.4692
L554.468 -74.9714
L552.48 -73.9112
L552.231 -73.9108
L551.9 -73.9108
L549.333 -73.0738
L546.848 -68.0518
L544.28 -66.9358
L541.961 -66.9358
L541.796 -66.9358
L534.259 -66.9358
L531.691 -66.1546
L529.207 -66.1546
L526.639 -66.1546
L525.811 -65.5408
L522.664 -65.5408
L521.587 -66.6568
L520.759 -65.4292
L519.02 -65.206
L518.937 -63.3657
L518.688 -63.2541
L518.274 -63.1425
L517.777 -62.8077
L517.363 -62.6961
L516.783 -62.5845
L516.535 -62.4729
L513.967 -62.1939
L511.483 -61.4127
L508.915 -59.7934
L504.029 -58.6774
L496.409 -56.0548
L495.084 -56.0548
L495.001 -55.9711
L494.835 -55.9432
L493.924 -55.9321
L493.676 -55.9181
L491.357 -55.9153
L488.789 -55.9153
L481.252 -55.3239
L478.685 -55.3239
L473.798 -56.3617
L466.179 -56.3617
L453.507 -56.3617
L451.022 -56.3338
L449.2 -54.1576
L448.454 -54.1855
L443.568 -54.18
L442.077 -54.4869
L441 -54.5148
L438.516 -54.2802
L437.439 -54.2413
L435.948 -54.2692
L433.464 -52.8798
L430.896 -51.4179
L429.985 -50.0731
L428.66 -49.3365
L425.844 -49.3086
L423.276 -49.3086
L422.697 -48.3991
L420.957 -48.3991
L420.792 -48.427
L418.224 -47.869
L413.255 -47.311
L410.687 -47.311
L409.031 -47.2831
L408.203 -47.311
L400.583 -47.311
L396.193 -47.2942
L395.945 -47.2887
L383.024 -47.2831
L380.457 -47.2831
L363.064 -46.7251
L360.248 -46.7251
L355.362 -46.7251
L352.794 -46.7251
L350.227 -46.7251
L330.018 -46.7251
L323.558 -46.7251
L322.564 -46.7251
L307.324 -46.7251
L299.788 -46.7251
L292.251 -46.7251
L289.683 -48.3991
L287.198 -45.2743
L271.959 -45.2743
L264.836 -45.2743
L262.02 -45.2743
L254.401 -43.5065
L251.916 -43.5065
L244.296 -43.5065
L238.83 -42.9485
L236.18 -42.9485
L231.79 -42.9485
L221.686 -42.9485
L206.446 -41.6093
L201.56 -41.6093
L183.836 -41.6093
L180.605 -41.6093
L178.783 -41.6093
L171.246 -41.6093
L141.016 -40.3455
L138.449 -40.3455
L123.292 -40.3455
L118.24 -40.3455
L110.786 -40.3455
L103.166 -40.3455
L80.5555 -40.3455
z
" id="C1_0_18501fde79"/>
    </defs>
    <g clip-path="url(#p4c22383844)">
     <use style="fill:#ffba2d;stroke:#ffba2d;stroke-linecap:butt;" x="0.0" xlink:href="#C1_0_18501fde79" y="607.94296875"/>
    </g>
   </g>
   <g id="PolyCollection_3">
    <defs>
     <path d="
M80.5555 -170.557
L80.5555 -40.3455
L103.166 -40.3455
L110.786 -40.3455
L118.24 -40.3455
L123.292 -40.3455
L138.449 -40.3455
L141.016 -40.3455
L171.246 -41.6093
L178.783 -41.6093
L180.605 -41.6093
L183.836 -41.6093
L201.56 -41.6093
L206.446 -41.6093
L221.686 -42.9485
L231.79 -42.9485
L236.18 -42.9485
L238.83 -42.9485
L244.296 -43.5065
L251.916 -43.5065
L254.401 -43.5065
L262.02 -45.2743
L264.836 -45.2743
L271.959 -45.2743
L287.198 -45.2743
L289.683 -48.3991
L292.251 -46.7251
L299.788 -46.7251
L307.324 -46.7251
L322.564 -46.7251
L323.558 -46.7251
L330.018 -46.7251
L350.227 -46.7251
L352.794 -46.7251
L355.362 -46.7251
L360.248 -46.7251
L363.064 -46.7251
L380.457 -47.2831
L383.024 -47.2831
L395.945 -47.2887
L396.193 -47.2942
L400.583 -47.311
L408.203 -47.311
L409.031 -47.2831
L410.687 -47.311
L413.255 -47.311
L418.224 -47.869
L420.792 -48.427
L420.957 -48.3991
L422.697 -48.3991
L423.276 -49.3086
L425.844 -49.3086
L428.66 -49.3365
L429.985 -50.0731
L430.896 -51.4179
L433.464 -52.8798
L435.948 -54.2692
L437.439 -54.2413
L438.516 -54.2802
L441 -54.5148
L442.077 -54.4869
L443.568 -54.18
L448.454 -54.1855
L449.2 -54.1576
L451.022 -56.3338
L453.507 -56.3617
L466.179 -56.3617
L473.798 -56.3617
L478.685 -55.3239
L481.252 -55.3239
L488.789 -55.9153
L491.357 -55.9153
L493.676 -55.9181
L493.924 -55.9321
L494.835 -55.9432
L495.001 -55.9711
L495.084 -56.0548
L496.409 -56.0548
L504.029 -58.6774
L508.915 -59.7934
L511.483 -61.4127
L513.967 -62.1939
L516.535 -62.4729
L516.783 -62.5845
L517.363 -62.6961
L517.777 -62.8077
L518.274 -63.1425
L518.688 -63.2541
L518.937 -63.3657
L519.02 -65.206
L520.759 -65.4292
L521.587 -66.6568
L522.664 -65.5408
L525.811 -65.5408
L526.639 -66.1546
L529.207 -66.1546
L531.691 -66.1546
L534.259 -66.9358
L541.796 -66.9358
L541.961 -66.9358
L544.28 -66.9358
L546.848 -68.0518
L549.333 -73.0738
L551.9 -73.9108
L552.231 -73.9108
L552.48 -73.9112
L554.468 -74.9714
L554.551 -74.4692
L556.952 -74.4692
L559.851 -74.4692
L563.247 -74.4692
L564.572 -74.6924
L565.483 -74.6924
L566.643 -74.6924
L569.459 -74.6924
L569.956 -74.8207
L570.784 -74.949
L570.867 -75.0774
L571.115 -75.2057
L571.446 -75.3341
L571.529 -75.4624
L572.026 -75.4624
L572.689 -75.9758
L574.097 -76.4891
L574.345 -76.6175
L574.511 -76.8407
L575.339 -77.4824
L575.836 -77.4824
L577.078 -78.2636
L577.824 -78.2636
L579.397 -78.2636
L579.563 -79.3796
L580.723 -79.9376
L582.131 -80.1608
L583.704 -80.7188
L584.698 -81.6674
L587.183 -83.4864
L589.253 -83.5283
L589.502 -83.5701
L589.75 -83.7933
L589.833 -83.7933
L590.496 -83.7933
L590.578 -83.7933
L590.993 -83.7933
L591.075 -83.7933
L592.235 -83.7933
L594.802 -83.5785
L596.21 -90.9441
L597.95 -90.986
L599.689 -90.986
L602.256 -92.2917
L603.168 -92.2917
L604.327 -92.2917
L607.309 -92.3168
L609.793 -92.3168
L614.928 -92.3168
L616.005 -92.3168
L620.726 -92.3168
L621.306 -92.4451
L621.968 -92.4451
L622.465 -92.4326
L624.287 -92.4326
L625.033 -92.4884
L627.6 -94.9268
L629.008 -95.2616
L629.919 -95.5964
L630.002 -95.9312
L630.665 -97.2928
L631.162 -97.5439
L631.327 -97.8787
L631.41 -98.0461
L632.487 -98.4646
L638.616 -98.4646
L639.941 -98.8273
L640.024 -98.8273
L640.521 -98.8552
L650.211 -99.0923
L652.696 -99.282
L655.263 -99.282
L665.285 -99.282
L672.904 -99.282
L685.576 -113.12
L686.239 -113.12
L690.463 -113.12
L692.202 -108.656
L692.533 -109.382
L693.03 -109.382
L694.355 -113.12
L694.355 -281.479
L694.355 -281.479
L693.03 -277.741
L692.533 -277.741
L692.202 -277.015
L690.463 -281.479
L686.239 -281.479
L685.576 -281.479
L672.904 -267.641
L665.285 -267.641
L655.263 -267.641
L652.696 -267.585
L650.211 -267.395
L640.521 -267.158
L640.024 -267.13
L639.941 -266.628
L638.616 -266.265
L632.487 -266.265
L631.41 -265.847
L631.327 -265.68
L631.162 -265.345
L630.665 -265.094
L630.002 -263.732
L629.919 -263.397
L629.008 -263.063
L627.6 -262.728
L625.033 -260.289
L624.287 -254.542
L622.465 -254.542
L621.968 -254.554
L621.306 -248.974
L620.726 -248.846
L616.005 -248.846
L614.928 -248.846
L609.793 -248.846
L607.309 -248.846
L604.327 -248.821
L603.168 -248.821
L602.256 -248.821
L599.689 -247.404
L597.95 -224.86
L596.21 -224.819
L594.802 -217.453
L592.235 -217.668
L591.075 -240.211
L590.993 -240.211
L590.578 -240.211
L590.496 -240.211
L589.833 -240.211
L589.75 -240.211
L589.502 -239.988
L589.253 -239.946
L587.183 -239.904
L584.698 -238.085
L583.704 -237.136
L582.131 -236.578
L580.723 -236.355
L579.563 -235.797
L579.397 -234.681
L577.824 -234.681
L577.078 -234.681
L575.836 -233.9
L575.339 -233.9
L574.511 -233.258
L574.345 -233.035
L574.097 -232.907
L572.689 -232.393
L572.026 -231.88
L571.529 -231.344
L571.446 -231.216
L571.115 -231.088
L570.867 -230.959
L570.784 -230.831
L569.956 -230.703
L569.459 -230.574
L566.643 -230.463
L565.483 -230.463
L564.572 -230.463
L563.247 -236.768
L559.851 -236.768
L556.952 -236.768
L554.551 -236.768
L554.468 -237.27
L552.48 -236.099
L552.231 -236.098
L551.9 -236.098
L549.333 -235.261
L546.848 -230.239
L544.28 -222.427
L541.961 -222.427
L541.796 -222.368
L534.259 -222.256
L531.691 -222.814
L529.207 -222.814
L526.639 -236.206
L525.811 -235.592
L522.664 -235.592
L521.587 -236.708
L520.759 -235.481
L519.02 -235.258
L518.937 -233.417
L518.688 -233.306
L518.274 -233.194
L517.777 -232.847
L517.363 -232.735
L516.783 -232.623
L516.535 -232.512
L513.967 -210.75
L511.483 -209.969
L508.915 -208.349
L504.029 -207.233
L496.409 -201.821
L495.084 -201.821
L495.001 -201.737
L494.835 -201.709
L493.924 -201.698
L493.676 -201.684
L491.357 -201.681
L488.789 -201.681
L481.252 -201.09
L478.685 -201.036
L473.798 -202.073
L466.179 -201.906
L453.507 -201.906
L451.022 -201.878
L449.2 -199.702
L448.454 -199.73
L443.568 -199.724
L442.077 -197.743
L441 -197.771
L438.516 -197.537
L437.439 -197.448
L435.948 -197.475
L433.464 -196.086
L430.896 -194.624
L429.985 -193.279
L428.66 -192.543
L425.844 -192.515
L423.276 -180.518
L422.697 -194.814
L420.957 -194.814
L420.792 -194.842
L418.224 -194.284
L413.255 -193.726
L410.687 -193.726
L409.031 -193.698
L408.203 -193.726
L400.583 -193.726
L396.193 -193.709
L395.945 -193.703
L383.024 -193.698
L380.457 -193.642
L363.064 -193.084
L360.248 -193.084
L355.362 -193.014
L352.794 -192.903
L350.227 -206.183
L330.018 -206.183
L323.558 -206.183
L322.564 -206.183
L307.324 -218.121
L299.788 -218.121
L292.251 -218.032
L289.683 -219.732
L287.198 -195.403
L271.959 -195.348
L264.836 -195.348
L262.02 -195.348
L254.401 -191.365
L251.916 -203.641
L244.296 -203.641
L238.83 -203.083
L236.18 -196.387
L231.79 -182.995
L221.686 -179.591
L206.446 -178.252
L201.56 -178.252
L183.836 -175.238
L180.605 -175.238
L178.783 -175.238
L171.246 -175.238
L141.016 -172.214
L138.449 -170.707
L123.292 -170.707
L118.24 -170.707
L110.786 -170.707
L103.166 -170.557
L80.5555 -170.557
z
" id="C2_0_b57587be4d"/>
    </defs>
    <g clip-path="url(#p4c22383844)">
     <use style="fill:#ed1745;stroke:#ed1745;stroke-linecap:butt;" x="0.0" xlink:href="#C2_0_b57587be4d" y="607.94296875"/>
    </g>
   </g>
   <g id="PolyCollection_4">
    <defs>
     <path d="
M80.5555 -434.633
L80.5555 -170.557
L103.166 -170.557
L110.786 -170.707
L118.24 -170.707
L123.292 -170.707
L138.449 -170.707
L141.016 -172.214
L171.246 -175.238
L178.783 -175.238
L180.605 -175.238
L183.836 -175.238
L201.56 -178.252
L206.446 -178.252
L221.686 -179.591
L231.79 -182.995
L236.18 -196.387
L238.83 -203.083
L244.296 -203.641
L251.916 -203.641
L254.401 -191.365
L262.02 -195.348
L264.836 -195.348
L271.959 -195.348
L287.198 -195.403
L289.683 -219.732
L292.251 -218.032
L299.788 -218.121
L307.324 -218.121
L322.564 -206.183
L323.558 -206.183
L330.018 -206.183
L350.227 -206.183
L352.794 -192.903
L355.362 -193.014
L360.248 -193.084
L363.064 -193.084
L380.457 -193.642
L383.024 -193.698
L395.945 -193.703
L396.193 -193.709
L400.583 -193.726
L408.203 -193.726
L409.031 -193.698
L410.687 -193.726
L413.255 -193.726
L418.224 -194.284
L420.792 -194.842
L420.957 -194.814
L422.697 -194.814
L423.276 -180.518
L425.844 -192.515
L428.66 -192.543
L429.985 -193.279
L430.896 -194.624
L433.464 -196.086
L435.948 -197.475
L437.439 -197.448
L438.516 -197.537
L441 -197.771
L442.077 -197.743
L443.568 -199.724
L448.454 -199.73
L449.2 -199.702
L451.022 -201.878
L453.507 -201.906
L466.179 -201.906
L473.798 -202.073
L478.685 -201.036
L481.252 -201.09
L488.789 -201.681
L491.357 -201.681
L493.676 -201.684
L493.924 -201.698
L494.835 -201.709
L495.001 -201.737
L495.084 -201.821
L496.409 -201.821
L504.029 -207.233
L508.915 -208.349
L511.483 -209.969
L513.967 -210.75
L516.535 -232.512
L516.783 -232.623
L517.363 -232.735
L517.777 -232.847
L518.274 -233.194
L518.688 -233.306
L518.937 -233.417
L519.02 -235.258
L520.759 -235.481
L521.587 -236.708
L522.664 -235.592
L525.811 -235.592
L526.639 -236.206
L529.207 -222.814
L531.691 -222.814
L534.259 -222.256
L541.796 -222.368
L541.961 -222.427
L544.28 -222.427
L546.848 -230.239
L549.333 -235.261
L551.9 -236.098
L552.231 -236.098
L552.48 -236.099
L554.468 -237.27
L554.551 -236.768
L556.952 -236.768
L559.851 -236.768
L563.247 -236.768
L564.572 -230.463
L565.483 -230.463
L566.643 -230.463
L569.459 -230.574
L569.956 -230.703
L570.784 -230.831
L570.867 -230.959
L571.115 -231.088
L571.446 -231.216
L571.529 -231.344
L572.026 -231.88
L572.689 -232.393
L574.097 -232.907
L574.345 -233.035
L574.511 -233.258
L575.339 -233.9
L575.836 -233.9
L577.078 -234.681
L577.824 -234.681
L579.397 -234.681
L579.563 -235.797
L580.723 -236.355
L582.131 -236.578
L583.704 -237.136
L584.698 -238.085
L587.183 -239.904
L589.253 -239.946
L589.502 -239.988
L589.75 -240.211
L589.833 -240.211
L590.496 -240.211
L590.578 -240.211
L590.993 -240.211
L591.075 -240.211
L592.235 -217.668
L594.802 -217.453
L596.21 -224.819
L597.95 -224.86
L599.689 -247.404
L602.256 -248.821
L603.168 -248.821
L604.327 -248.821
L607.309 -248.846
L609.793 -248.846
L614.928 -248.846
L616.005 -248.846
L620.726 -248.846
L621.306 -248.974
L621.968 -254.554
L622.465 -254.542
L624.287 -254.542
L625.033 -260.289
L627.6 -262.728
L629.008 -263.063
L629.919 -263.397
L630.002 -263.732
L630.665 -265.094
L631.162 -265.345
L631.327 -265.68
L631.41 -265.847
L632.487 -266.265
L638.616 -266.265
L639.941 -266.628
L640.024 -267.13
L640.521 -267.158
L650.211 -267.395
L652.696 -267.585
L655.263 -267.641
L665.285 -267.641
L672.904 -267.641
L685.576 -281.479
L686.239 -281.479
L690.463 -281.479
L692.202 -277.015
L692.533 -277.741
L693.03 -277.741
L694.355 -281.479
L694.355 -586.08
L694.355 -586.08
L693.03 -578.162
L692.533 -569.234
L692.202 -568.508
L690.463 -572.972
L686.239 -572.972
L685.576 -581.9
L672.904 -568.062
L665.285 -568.062
L655.263 -568.062
L652.696 -568.006
L650.211 -567.816
L640.521 -567.579
L640.024 -567.551
L639.941 -567.049
L638.616 -566.686
L632.487 -566.575
L631.41 -566.156
L631.327 -565.989
L631.162 -565.654
L630.665 -565.403
L630.002 -564.041
L629.919 -563.707
L629.008 -563.372
L627.6 -563.037
L625.033 -560.599
L624.287 -554.851
L622.465 -554.801
L621.968 -554.813
L621.306 -549.233
L620.726 -549.105
L616.005 -548.994
L614.928 -543.414
L609.793 -543.441
L607.309 -543.441
L604.327 -543.416
L603.168 -548.438
L602.256 -542.858
L599.689 -541.441
L597.95 -518.898
L596.21 -518.856
L594.802 -511.49
L592.235 -511.37
L591.075 -533.914
L590.993 -499.652
L590.578 -499.652
L590.496 -499.652
L589.833 -538.936
L589.75 -533.356
L589.502 -533.132
L589.253 -533.091
L587.183 -533.049
L584.698 -531.23
L583.704 -530.281
L582.131 -529.723
L580.723 -528.97
L579.563 -528.412
L579.397 -527.296
L577.824 -532.318
L577.078 -526.738
L575.836 -525.956
L575.339 -526.375
L574.511 -525.733
L574.345 -525.51
L574.097 -525.382
L572.689 -524.868
L572.026 -524.355
L571.529 -523.819
L571.446 -518.111
L571.115 -517.983
L570.867 -517.854
L570.784 -517.726
L569.956 -517.598
L569.459 -517.469
L566.643 -517.358
L565.483 -522.38
L564.572 -516.8
L563.247 -523.105
L559.851 -523.183
L556.952 -528.205
L554.551 -528.205
L554.468 -528.707
L552.48 -527.536
L552.231 -527.535
L551.9 -532.557
L549.333 -531.72
L546.848 -526.698
L544.28 -518.886
L541.961 -518.443
L541.796 -518.383
L534.259 -518.272
L531.691 -518.83
L529.207 -518.83
L526.639 -532.222
L525.811 -531.608
L522.664 -531.608
L521.587 -532.724
L520.759 -531.496
L519.02 -531.273
L518.937 -529.433
L518.688 -529.321
L518.274 -529.21
L517.777 -528.862
L517.363 -528.75
L516.783 -528.639
L516.535 -528.527
L513.967 -506.765
L511.483 -505.984
L508.915 -504.365
L504.029 -503.249
L496.409 -497.803
L495.084 -497.75
L495.001 -497.666
L494.835 -497.638
L493.924 -497.627
L493.676 -497.613
L491.357 -497.61
L488.789 -497.663
L481.252 -497.072
L478.685 -497.017
L473.798 -498.055
L466.179 -497.854
L453.507 -497.815
L451.022 -497.787
L449.2 -495.65
L448.454 -495.678
L443.568 -495.673
L442.077 -493.658
L441 -493.686
L438.516 -493.451
L437.439 -493.362
L435.948 -493.39
L433.464 -492.001
L430.896 -490.539
L429.985 -489.194
L428.66 -488.458
L425.844 -488.43
L423.276 -476.433
L422.697 -490.729
L420.957 -490.699
L420.792 -490.726
L418.224 -490.168
L413.255 -489.61
L410.687 -488.969
L409.031 -488.941
L408.203 -488.969
L400.583 -489.365
L396.193 -489.348
L395.945 -489.343
L383.024 -489.337
L380.457 -489.208
L363.064 -488.65
L360.248 -474.7
L355.362 -474.63
L352.794 -474.518
L350.227 -487.631
L330.018 -487.352
L323.558 -486.934
L322.564 -487.352
L307.324 -499.291
L299.788 -499.123
L292.251 -499.033
L289.683 -500.469
L287.198 -476.14
L271.959 -475.833
L264.836 -475.592
L262.02 -475.592
L254.401 -471.609
L251.916 -483.885
L244.296 -479.868
L238.83 -479.31
L236.18 -472.614
L231.79 -459.222
L221.686 -456.599
L206.446 -455.26
L201.56 -448.564
L183.836 -445.551
L180.605 -449.568
L178.783 -449.565
L171.246 -456.261
L141.016 -450.898
L138.449 -449.224
L123.292 -449.202
L118.24 -447.082
L110.786 -448.153
L103.166 -441.329
L80.5555 -434.633
z
" id="C3_0_20221b9fc8"/>
    </defs>
    <g clip-path="url(#p4c22383844)">
     <use style="fill:#0f7baf;stroke:#0f7baf;stroke-linecap:butt;" x="0.0" xlink:href="#C3_0_20221b9fc8" y="607.94296875"/>
    </g>
   </g>
   <g id="line2d_1">
    <path clip-path="url(#p4c22383844)" d="
M80.5555 585.384
L141.016 585.384
L183.836 585.169
L254.401 585.169
L262.02 583.402
L413.255 583.374
L418.224 582.816
L420.957 582.286
L422.697 582.286
L423.276 581.376
L428.66 581.348
L429.985 580.612
L430.896 579.267
L435.948 576.416
L438.516 576.405
L441 576.17
L443.568 576.17
L473.798 576.164
L478.685 577.202
L481.252 577.202
L488.789 576.611
L495.001 576.555
L495.084 576.471
L504.029 576.471
L508.915 575.355
L511.483 573.736
L513.967 572.955
L516.783 572.564
L517.777 572.341
L518.274 572.006
L518.937 571.783
L519.02 569.943
L520.759 569.72
L521.587 568.492
L522.664 569.608
L525.811 569.608
L526.639 568.994
L531.691 568.994
L534.259 568.213
L544.28 568.213
L546.848 567.097
L563.247 567.097
L564.572 566.873
L569.459 566.873
L571.115 566.36
L572.026 566.103
L572.689 565.59
L574.345 564.948
L574.511 564.725
L575.339 564.083
L575.836 564.083
L577.078 563.302
L579.397 563.302
L579.563 562.186
L580.723 561.628
L582.131 561.405
L583.704 560.847
L584.698 560.289
L587.183 558.47
L589.502 558.386
L589.833 558.163
L592.235 558.163
L594.802 558.378
L620.726 558.311
L621.306 558.183
L625.033 558.139
L627.6 555.701
L629.008 555.366
L629.919 555.031
L630.002 554.696
L630.665 553.335
L631.162 553.084
L631.41 552.582
L632.487 552.163
L638.616 552.163
L640.024 551.8
L640.521 551.773
L650.211 551.535
L652.696 551.346
L694.355 551.346
L694.355 551.346" style="fill:none;stroke:#61bc3a;"/>
   </g>
   <g id="line2d_2">
    <path clip-path="url(#p4c22383844)" d="
M80.5555 567.598
L141.016 567.598
L171.246 566.334
L206.446 566.334
L221.686 564.994
L238.83 564.994
L244.296 564.436
L254.401 564.436
L262.02 562.669
L287.198 562.669
L289.683 559.544
L292.251 561.218
L363.064 561.218
L383.024 560.66
L413.255 560.632
L418.224 560.074
L420.957 559.544
L422.697 559.544
L423.276 558.634
L428.66 558.606
L429.985 557.87
L430.896 556.525
L435.948 553.674
L438.516 553.663
L441 553.428
L442.077 553.456
L443.568 553.763
L449.2 553.785
L451.022 551.609
L453.507 551.581
L473.798 551.581
L478.685 552.619
L481.252 552.619
L488.789 552.028
L495.001 551.972
L495.084 551.888
L496.409 551.888
L504.029 549.266
L508.915 548.15
L511.483 546.53
L513.967 545.749
L516.783 545.358
L517.777 545.135
L518.274 544.8
L518.937 544.577
L519.02 542.737
L520.759 542.514
L521.587 541.286
L522.664 542.402
L525.811 542.402
L526.639 541.788
L531.691 541.788
L534.259 541.007
L544.28 541.007
L546.848 539.891
L549.333 534.869
L552.231 534.032
L552.48 534.032
L554.468 532.972
L554.551 533.474
L563.247 533.474
L564.572 533.251
L569.459 533.251
L571.115 532.737
L572.026 532.481
L572.689 531.967
L574.345 531.326
L574.511 531.102
L575.339 530.461
L575.836 530.461
L577.078 529.679
L579.397 529.679
L579.563 528.563
L580.723 528.005
L582.131 527.782
L583.704 527.224
L584.698 526.276
L587.183 524.457
L589.502 524.373
L589.833 524.15
L592.235 524.15
L594.802 524.364
L596.21 516.999
L599.689 516.957
L602.256 515.651
L620.726 515.626
L621.306 515.498
L625.033 515.455
L627.6 513.016
L629.008 512.681
L629.919 512.347
L630.002 512.012
L630.665 510.65
L631.162 510.399
L631.41 509.897
L632.487 509.478
L638.616 509.478
L640.024 509.116
L640.521 509.088
L650.211 508.851
L652.696 508.661
L672.904 508.661
L685.576 494.823
L690.463 494.823
L692.202 499.287
L692.533 498.561
L693.03 498.561
L694.355 494.823
L694.355 494.823" style="fill:none;stroke:#ffba2d;"/>
   </g>
   <g id="line2d_3">
    <path clip-path="url(#p4c22383844)" d="
M80.5555 437.386
L103.166 437.386
L110.786 437.236
L138.449 437.236
L141.016 435.729
L171.246 432.705
L183.836 432.705
L201.56 429.691
L206.446 429.691
L221.686 428.352
L231.79 424.948
L236.18 411.556
L238.83 404.86
L244.296 404.302
L251.916 404.302
L254.401 416.578
L262.02 412.595
L287.198 412.54
L289.683 388.211
L292.251 389.911
L307.324 389.822
L322.564 401.76
L350.227 401.76
L352.794 415.04
L355.362 414.929
L363.064 414.859
L383.024 414.245
L413.255 414.217
L418.224 413.659
L420.957 413.129
L422.697 413.129
L423.276 427.425
L425.844 415.428
L428.66 415.4
L429.985 414.664
L430.896 413.319
L435.948 410.468
L438.516 410.406
L441 410.172
L442.077 410.2
L443.568 408.219
L449.2 408.241
L451.022 406.065
L453.507 406.037
L466.179 406.037
L473.798 405.87
L478.685 406.907
L481.252 406.853
L488.789 406.262
L495.001 406.206
L495.084 406.122
L496.409 406.122
L504.029 400.71
L508.915 399.594
L511.483 397.974
L513.967 397.193
L516.535 375.431
L516.783 375.32
L517.777 375.096
L518.274 374.749
L518.937 374.526
L519.02 372.685
L520.759 372.462
L521.587 371.235
L522.664 372.351
L525.811 372.351
L526.639 371.737
L529.207 385.129
L531.691 385.129
L534.259 385.687
L544.28 385.516
L546.848 377.704
L549.333 372.682
L552.231 371.845
L552.48 371.844
L554.468 370.673
L554.551 371.175
L563.247 371.175
L564.572 377.48
L566.643 377.48
L569.956 377.24
L570.784 377.112
L570.867 376.984
L571.529 376.599
L572.026 376.063
L572.689 375.549
L574.345 374.908
L574.511 374.685
L575.339 374.043
L575.836 374.043
L577.078 373.262
L579.397 373.262
L579.563 372.146
L580.723 371.588
L582.131 371.364
L583.704 370.806
L584.698 369.858
L587.183 368.039
L589.502 367.955
L589.833 367.732
L591.075 367.732
L592.235 390.275
L594.802 390.49
L596.21 383.124
L597.95 383.082
L599.689 360.539
L602.256 359.122
L620.726 359.097
L621.306 358.969
L621.968 353.389
L624.287 353.401
L625.033 347.654
L627.6 345.215
L629.008 344.88
L629.919 344.546
L630.002 344.211
L630.665 342.849
L631.162 342.598
L631.41 342.096
L632.487 341.677
L638.616 341.677
L639.941 341.315
L640.024 340.813
L640.521 340.785
L650.211 340.548
L652.696 340.358
L655.263 340.302
L672.904 340.302
L685.576 326.464
L690.463 326.464
L692.202 330.928
L692.533 330.202
L693.03 330.202
L694.355 326.464
L694.355 326.464" style="fill:none;stroke:#ed1745;"/>
   </g>
   <g id="line2d_4">
    <path clip-path="url(#p4c22383844)" d="
M80.5555 173.31
L103.166 166.614
L110.786 159.79
L118.24 160.861
L123.292 158.741
L138.449 158.719
L141.016 157.045
L171.246 151.682
L178.783 158.378
L180.605 158.375
L183.836 162.392
L201.56 159.379
L206.446 152.683
L221.686 151.344
L231.79 148.721
L236.18 135.329
L238.83 128.633
L244.296 128.075
L251.916 124.058
L254.401 136.334
L262.02 132.351
L264.836 132.351
L271.959 132.11
L287.198 131.803
L289.683 107.474
L292.251 108.91
L307.324 108.652
L322.564 120.591
L323.558 121.009
L330.018 120.591
L350.227 120.312
L352.794 133.425
L355.362 133.313
L360.248 133.243
L363.064 119.293
L383.024 118.606
L400.583 118.578
L409.031 119.002
L410.687 118.974
L413.255 118.333
L418.224 117.775
L420.957 117.244
L422.697 117.214
L423.276 131.51
L425.844 119.513
L428.66 119.485
L429.985 118.749
L430.896 117.404
L435.948 114.553
L438.516 114.491
L441 114.257
L442.077 114.285
L443.568 112.27
L449.2 112.293
L451.022 110.156
L473.798 109.888
L478.685 110.926
L481.252 110.871
L488.789 110.28
L494.835 110.305
L496.409 110.14
L504.029 104.694
L508.915 103.578
L511.483 101.959
L513.967 101.178
L516.535 79.4158
L516.783 79.3042
L517.777 79.081
L518.274 78.7334
L518.937 78.5102
L519.02 76.6699
L520.759 76.4467
L521.587 75.2191
L522.664 76.3351
L525.811 76.3351
L526.639 75.7213
L529.207 89.1133
L531.691 89.1133
L534.259 89.6713
L541.961 89.5003
L544.28 89.0567
L546.848 81.2447
L549.333 76.2227
L551.9 75.3857
L552.231 80.4077
L552.48 80.4073
L554.468 79.2355
L554.551 79.7377
L556.952 79.7377
L559.851 84.7597
L563.247 84.8379
L564.572 91.1433
L565.483 85.5633
L566.643 90.5853
L569.956 90.3453
L570.784 90.217
L570.867 90.0886
L571.446 89.832
L571.529 84.1236
L572.026 83.5879
L572.689 83.0746
L574.345 82.4329
L574.511 82.2097
L575.339 81.568
L575.836 81.9865
L577.078 81.2053
L577.824 75.6253
L579.397 80.6473
L579.563 79.5313
L582.131 78.22
L583.704 77.662
L584.698 76.7134
L587.183 74.8943
L589.502 74.8106
L589.75 74.5874
L589.833 69.0074
L590.578 108.291
L590.993 108.291
L591.075 74.0294
L592.235 96.5726
L594.802 96.4526
L596.21 89.087
L597.95 89.0452
L599.689 66.502
L602.256 65.0847
L603.168 59.5047
L604.327 64.5267
L614.928 64.5295
L616.005 58.9495
L620.726 58.8379
L621.306 58.7095
L621.968 53.1295
L624.287 53.0919
L625.033 47.3445
L627.6 44.906
L629.008 44.5712
L629.919 44.2364
L630.002 43.9016
L630.665 42.5401
L631.162 42.289
L631.41 41.7868
L632.487 41.3683
L638.616 41.2567
L639.941 40.894
L640.024 40.3918
L640.521 40.3639
L650.211 40.1267
L652.696 39.937
L655.263 39.8812
L672.904 39.8812
L685.576 26.0428
L686.239 34.9708
L690.463 34.9708
L692.202 39.4348
L692.533 38.7094
L693.03 29.7814
L694.355 21.8634
L694.355 21.8634" style="fill:none;stroke:#0f7baf;"/>
   </g>
   <g id="matplotlib.axis_1">
    <g id="xtick_1">
     <g id="line2d_5">
      <path clip-path="url(#p4c22383844)" d="
M110.786 585.397
L110.786 27.3969" style="fill:none;stroke:#000000;stroke-dasharray:1.000000,3.000000;stroke-dashoffset:0.0;stroke-linecap:butt;stroke-width:0.5;"/>
     </g>
     <g id="line2d_6">
      <defs>
       <path d="
M0 0
L0 -4" id="mcb557df647" style="stroke:#000000;stroke-linecap:butt;stroke-width:0.5;"/>
      </defs>
      <g>
       <use style="stroke:#000000;stroke-linecap:butt;stroke-width:0.5;" x="110.785802038" xlink:href="#mcb557df647" y="585.396875"/>
      </g>
     </g>
     <g id="line2d_7">
      <defs>
       <path d="
M0 0
L0 4" id="mdad270ee8e" style="stroke:#000000;stroke-linecap:butt;stroke-width:0.5;"/>
      </defs>
      <g>
       <use style="stroke:#000000;stroke-linecap:butt;stroke-width:0.5;" x="110.785802038" xlink:href="#mdad270ee8e" y="27.396875"/>
      </g>
     </g>
     <g id="text_1">
      <!-- 1994 -->
      <defs>
       <path d="
M10.0156 1.60938
L10.0156 15.0938
Q14.5 12.9844 18.5938 11.9375
Q22.7031 10.8906 26.7031 10.8906
Q35.1094 10.8906 39.7969 15.5469
Q44.4844 20.2188 45.3125 29.3906
Q42 26.9531 38.2344 25.7344
Q34.4688 24.5156 30.0781 24.5156
Q18.8906 24.5156 12.0312 31.0312
Q5.17188 37.5469 5.17188 48.1875
Q5.17188 59.9688 12.8125 67.0469
Q20.4531 74.125 33.2969 74.125
Q47.5625 74.125 55.375 64.5
Q63.1875 54.8906 63.1875 37.3125
Q63.1875 19.2344 54.0469 8.90625
Q44.9219 -1.42188 29 -1.42188
Q23.875 -1.42188 19.1875 -0.65625
Q14.5 0.09375 10.0156 1.60938
M33.2031 36.7188
Q38.1406 36.7188 40.625 39.9062
Q43.1094 43.1094 43.1094 49.5156
Q43.1094 55.8594 40.625 59.0781
Q38.1406 62.3125 33.2031 62.3125
Q28.2656 62.3125 25.7812 59.0781
Q23.2969 55.8594 23.2969 49.5156
Q23.2969 43.1094 25.7812 39.9062
Q28.2656 36.7188 33.2031 36.7188" id="BitstreamVeraSans-Bold-39"/>
       <path d="
M11.7188 12.9844
L28.3281 12.9844
L28.3281 60.1094
L11.2812 56.5938
L11.2812 69.3906
L28.2188 72.9062
L46.0938 72.9062
L46.0938 12.9844
L62.7031 12.9844
L62.7031 0
L11.7188 0
z
" id="BitstreamVeraSans-Bold-31"/>
       <path d="
M36.8125 57.4219
L16.2188 26.9062
L36.8125 26.9062
z

M33.6875 72.9062
L54.5938 72.9062
L54.5938 26.9062
L64.9844 26.9062
L64.9844 13.2812
L54.5938 13.2812
L54.5938 0
L36.8125 0
L36.8125 13.2812
L4.5 13.2812
L4.5 29.3906
z
" id="BitstreamVeraSans-Bold-34"/>
      </defs>
      <g transform="translate(91.1029895384 600.515625)scale(0.15 -0.15)">
       <use xlink:href="#BitstreamVeraSans-Bold-31"/>
       <use x="69.580078125" xlink:href="#BitstreamVeraSans-Bold-39"/>
       <use x="139.16015625" xlink:href="#BitstreamVeraSans-Bold-39"/>
       <use x="208.740234375" xlink:href="#BitstreamVeraSans-Bold-34"/>
      </g>
     </g>
    </g>
    <g id="xtick_2">
     <g id="line2d_8">
      <path clip-path="url(#p4c22383844)" d="
M171.246 585.397
L171.246 27.3969" style="fill:none;stroke:#000000;stroke-dasharray:1.000000,3.000000;stroke-dashoffset:0.0;stroke-linecap:butt;stroke-width:0.5;"/>
     </g>
     <g id="line2d_9">
      <g>
       <use style="stroke:#000000;stroke-linecap:butt;stroke-width:0.5;" x="171.246468615" xlink:href="#mcb557df647" y="585.396875"/>
      </g>
     </g>
     <g id="line2d_10">
      <g>
       <use style="stroke:#000000;stroke-linecap:butt;stroke-width:0.5;" x="171.246468615" xlink:href="#mdad270ee8e" y="27.396875"/>
      </g>
     </g>
     <g id="text_2">
      <!-- 1996 -->
      <defs>
       <path d="
M36.1875 35.9844
Q31.25 35.9844 28.7812 32.7812
Q26.3125 29.5938 26.3125 23.1875
Q26.3125 16.7969 28.7812 13.5938
Q31.25 10.4062 36.1875 10.4062
Q41.1562 10.4062 43.625 13.5938
Q46.0938 16.7969 46.0938 23.1875
Q46.0938 29.5938 43.625 32.7812
Q41.1562 35.9844 36.1875 35.9844
M59.4219 71
L59.4219 57.5156
Q54.7812 59.7188 50.6719 60.7656
Q46.5781 61.8125 42.6719 61.8125
Q34.2812 61.8125 29.5938 57.1406
Q24.9062 52.4844 24.125 43.3125
Q27.3438 45.7031 31.0938 46.8906
Q34.8594 48.0938 39.3125 48.0938
Q50.4844 48.0938 57.3438 41.5469
Q64.2031 35.0156 64.2031 24.4219
Q64.2031 12.7031 56.5312 5.64062
Q48.875 -1.42188 35.9844 -1.42188
Q21.7812 -1.42188 13.9844 8.17188
Q6.20312 17.7812 6.20312 35.4062
Q6.20312 53.4688 15.3125 63.7969
Q24.4219 74.125 40.2812 74.125
Q45.3125 74.125 50.0469 73.3438
Q54.7812 72.5625 59.4219 71" id="BitstreamVeraSans-Bold-36"/>
      </defs>
      <g transform="translate(151.622249865 600.515625)scale(0.15 -0.15)">
       <use xlink:href="#BitstreamVeraSans-Bold-31"/>
       <use x="69.580078125" xlink:href="#BitstreamVeraSans-Bold-39"/>
       <use x="139.16015625" xlink:href="#BitstreamVeraSans-Bold-39"/>
       <use x="208.740234375" xlink:href="#BitstreamVeraSans-Bold-36"/>
      </g>
     </g>
    </g>
    <g id="xtick_3">
     <g id="line2d_11">
      <path clip-path="url(#p4c22383844)" d="
M231.79 585.397
L231.79 27.3969" style="fill:none;stroke:#000000;stroke-dasharray:1.000000,3.000000;stroke-dashoffset:0.0;stroke-linecap:butt;stroke-width:0.5;"/>
     </g>
     <g id="line2d_12">
      <g>
       <use style="stroke:#000000;stroke-linecap:butt;stroke-width:0.5;" x="231.789958023" xlink:href="#mcb557df647" y="585.396875"/>
      </g>
     </g>
     <g id="line2d_13">
      <g>
       <use style="stroke:#000000;stroke-linecap:butt;stroke-width:0.5;" x="231.789958023" xlink:href="#mdad270ee8e" y="27.396875"/>
      </g>
     </g>
     <g id="text_3">
      <!-- 1998 -->
      <defs>
       <path d="
M34.8125 32.625
Q29.5469 32.625 26.7031 29.7344
Q23.875 26.8594 23.875 21.4844
Q23.875 16.1094 26.7031 13.25
Q29.5469 10.4062 34.8125 10.4062
Q40.0469 10.4062 42.8281 13.25
Q45.6094 16.1094 45.6094 21.4844
Q45.6094 26.9062 42.8281 29.7656
Q40.0469 32.625 34.8125 32.625
M21.0938 38.8125
Q14.4531 40.8281 11.0781 44.9688
Q7.71875 49.125 7.71875 55.3281
Q7.71875 64.5469 14.5938 69.375
Q21.4844 74.2188 34.8125 74.2188
Q48.0469 74.2188 54.9219 69.4062
Q61.8125 64.5938 61.8125 55.3281
Q61.8125 49.125 58.4219 44.9688
Q55.0312 40.8281 48.3906 38.8125
Q55.8125 36.7656 59.5938 32.1562
Q63.375 27.5469 63.375 20.5156
Q63.375 9.67188 56.1719 4.125
Q48.9688 -1.42188 34.8125 -1.42188
Q20.6094 -1.42188 13.3594 4.125
Q6.10938 9.67188 6.10938 20.5156
Q6.10938 27.5469 9.89062 32.1562
Q13.6719 36.7656 21.0938 38.8125
M25.4844 53.4219
Q25.4844 49.0781 27.9062 46.7344
Q30.3281 44.3906 34.8125 44.3906
Q39.2031 44.3906 41.5938 46.7344
Q44 49.0781 44 53.4219
Q44 57.7656 41.5938 60.0781
Q39.2031 62.4062 34.8125 62.4062
Q30.3281 62.4062 27.9062 60.0625
Q25.4844 57.7188 25.4844 53.4219" id="BitstreamVeraSans-Bold-38"/>
      </defs>
      <g transform="translate(212.227848648 600.5296875)scale(0.15 -0.15)">
       <use xlink:href="#BitstreamVeraSans-Bold-31"/>
       <use x="69.580078125" xlink:href="#BitstreamVeraSans-Bold-39"/>
       <use x="139.16015625" xlink:href="#BitstreamVeraSans-Bold-39"/>
       <use x="208.740234375" xlink:href="#BitstreamVeraSans-Bold-38"/>
      </g>
     </g>
    </g>
    <g id="xtick_4">
     <g id="line2d_14">
      <path clip-path="url(#p4c22383844)" d="
M292.251 585.397
L292.251 27.3969" style="fill:none;stroke:#000000;stroke-dasharray:1.000000,3.000000;stroke-dashoffset:0.0;stroke-linecap:butt;stroke-width:0.5;"/>
     </g>
     <g id="line2d_15">
      <g>
       <use style="stroke:#000000;stroke-linecap:butt;stroke-width:0.5;" x="292.250624599" xlink:href="#mcb557df647" y="585.396875"/>
      </g>
     </g>
     <g id="line2d_16">
      <g>
       <use style="stroke:#000000;stroke-linecap:butt;stroke-width:0.5;" x="292.250624599" xlink:href="#mdad270ee8e" y="27.396875"/>
      </g>
     </g>
     <g id="text_4">
      <!-- 2000 -->
      <defs>
       <path d="
M46 36.5312
Q46 50.2031 43.4375 55.7812
Q40.875 61.375 34.8125 61.375
Q28.7656 61.375 26.1719 55.7812
Q23.5781 50.2031 23.5781 36.5312
Q23.5781 22.7031 26.1719 17.0312
Q28.7656 11.375 34.8125 11.375
Q40.8281 11.375 43.4062 17.0312
Q46 22.7031 46 36.5312
M64.7969 36.375
Q64.7969 18.2656 56.9844 8.42188
Q49.1719 -1.42188 34.8125 -1.42188
Q20.4062 -1.42188 12.5938 8.42188
Q4.78125 18.2656 4.78125 36.375
Q4.78125 54.5469 12.5938 64.375
Q20.4062 74.2188 34.8125 74.2188
Q49.1719 74.2188 56.9844 64.375
Q64.7969 54.5469 64.7969 36.375" id="BitstreamVeraSans-Bold-30"/>
       <path d="
M28.8125 13.8125
L60.8906 13.8125
L60.8906 0
L7.90625 0
L7.90625 13.8125
L34.5156 37.3125
Q38.0938 40.5312 39.7969 43.6094
Q41.5 46.6875 41.5 50
Q41.5 55.125 38.0625 58.25
Q34.625 61.375 28.9062 61.375
Q24.5156 61.375 19.2812 59.5
Q14.0625 57.625 8.10938 53.9062
L8.10938 69.9219
Q14.4531 72.0156 20.6562 73.1094
Q26.8594 74.2188 32.8125 74.2188
Q45.9062 74.2188 53.1562 68.4531
Q60.4062 62.7031 60.4062 52.3906
Q60.4062 46.4375 57.3281 41.2812
Q54.25 36.1406 44.3906 27.4844
z
" id="BitstreamVeraSans-Bold-32"/>
      </defs>
      <g transform="translate(272.328749599 600.5296875)scale(0.15 -0.15)">
       <use xlink:href="#BitstreamVeraSans-Bold-32"/>
       <use x="69.580078125" xlink:href="#BitstreamVeraSans-Bold-30"/>
       <use x="139.16015625" xlink:href="#BitstreamVeraSans-Bold-30"/>
       <use x="208.740234375" xlink:href="#BitstreamVeraSans-Bold-30"/>
      </g>
     </g>
    </g>
    <g id="xtick_5">
     <g id="line2d_17">
      <path clip-path="url(#p4c22383844)" d="
M352.794 585.397
L352.794 27.3969" style="fill:none;stroke:#000000;stroke-dasharray:1.000000,3.000000;stroke-dashoffset:0.0;stroke-linecap:butt;stroke-width:0.5;"/>
     </g>
     <g id="line2d_18">
      <g>
       <use style="stroke:#000000;stroke-linecap:butt;stroke-width:0.5;" x="352.794114007" xlink:href="#mcb557df647" y="585.396875"/>
      </g>
     </g>
     <g id="line2d_19">
      <g>
       <use style="stroke:#000000;stroke-linecap:butt;stroke-width:0.5;" x="352.794114007" xlink:href="#mdad270ee8e" y="27.396875"/>
      </g>
     </g>
     <g id="text_5">
      <!-- 2002 -->
      <g transform="translate(333.165207757 600.5296875)scale(0.15 -0.15)">
       <use xlink:href="#BitstreamVeraSans-Bold-32"/>
       <use x="69.580078125" xlink:href="#BitstreamVeraSans-Bold-30"/>
       <use x="139.16015625" xlink:href="#BitstreamVeraSans-Bold-30"/>
       <use x="208.740234375" xlink:href="#BitstreamVeraSans-Bold-32"/>
      </g>
     </g>
    </g>
    <g id="xtick_6">
     <g id="line2d_20">
      <path clip-path="url(#p4c22383844)" d="
M413.255 585.397
L413.255 27.3969" style="fill:none;stroke:#000000;stroke-dasharray:1.000000,3.000000;stroke-dashoffset:0.0;stroke-linecap:butt;stroke-width:0.5;"/>
     </g>
     <g id="line2d_21">
      <g>
       <use style="stroke:#000000;stroke-linecap:butt;stroke-width:0.5;" x="413.254780584" xlink:href="#mcb557df647" y="585.396875"/>
      </g>
     </g>
     <g id="line2d_22">
      <g>
       <use style="stroke:#000000;stroke-linecap:butt;stroke-width:0.5;" x="413.254780584" xlink:href="#mdad270ee8e" y="27.396875"/>
      </g>
     </g>
     <g id="text_6">
      <!-- 2004 -->
      <g transform="translate(393.318843084 600.5296875)scale(0.15 -0.15)">
       <use xlink:href="#BitstreamVeraSans-Bold-32"/>
       <use x="69.580078125" xlink:href="#BitstreamVeraSans-Bold-30"/>
       <use x="139.16015625" xlink:href="#BitstreamVeraSans-Bold-30"/>
       <use x="208.740234375" xlink:href="#BitstreamVeraSans-Bold-34"/>
      </g>
     </g>
    </g>
    <g id="xtick_7">
     <g id="line2d_23">
      <path clip-path="url(#p4c22383844)" d="
M473.798 585.397
L473.798 27.3969" style="fill:none;stroke:#000000;stroke-dasharray:1.000000,3.000000;stroke-dashoffset:0.0;stroke-linecap:butt;stroke-width:0.5;"/>
     </g>
     <g id="line2d_24">
      <g>
       <use style="stroke:#000000;stroke-linecap:butt;stroke-width:0.5;" x="473.798269991" xlink:href="#mcb557df647" y="585.396875"/>
      </g>
     </g>
     <g id="line2d_25">
      <g>
       <use style="stroke:#000000;stroke-linecap:butt;stroke-width:0.5;" x="473.798269991" xlink:href="#mdad270ee8e" y="27.396875"/>
      </g>
     </g>
     <g id="text_7">
      <!-- 2006 -->
      <g transform="translate(453.920926241 600.5296875)scale(0.15 -0.15)">
       <use xlink:href="#BitstreamVeraSans-Bold-32"/>
       <use x="69.580078125" xlink:href="#BitstreamVeraSans-Bold-30"/>
       <use x="139.16015625" xlink:href="#BitstreamVeraSans-Bold-30"/>
       <use x="208.740234375" xlink:href="#BitstreamVeraSans-Bold-36"/>
      </g>
     </g>
    </g>
    <g id="xtick_8">
     <g id="line2d_26">
      <path clip-path="url(#p4c22383844)" d="
M534.259 585.397
L534.259 27.3969" style="fill:none;stroke:#000000;stroke-dasharray:1.000000,3.000000;stroke-dashoffset:0.0;stroke-linecap:butt;stroke-width:0.5;"/>
     </g>
     <g id="line2d_27">
      <g>
       <use style="stroke:#000000;stroke-linecap:butt;stroke-width:0.5;" x="534.258936568" xlink:href="#mcb557df647" y="585.396875"/>
      </g>
     </g>
     <g id="line2d_28">
      <g>
       <use style="stroke:#000000;stroke-linecap:butt;stroke-width:0.5;" x="534.258936568" xlink:href="#mdad270ee8e" y="27.396875"/>
      </g>
     </g>
     <g id="text_8">
      <!-- 2008 -->
      <g transform="translate(514.443702193 600.5296875)scale(0.15 -0.15)">
       <use xlink:href="#BitstreamVeraSans-Bold-32"/>
       <use x="69.580078125" xlink:href="#BitstreamVeraSans-Bold-30"/>
       <use x="139.16015625" xlink:href="#BitstreamVeraSans-Bold-30"/>
       <use x="208.740234375" xlink:href="#BitstreamVeraSans-Bold-38"/>
      </g>
     </g>
    </g>
    <g id="xtick_9">
     <g id="line2d_29">
      <path clip-path="url(#p4c22383844)" d="
M594.802 585.397
L594.802 27.3969" style="fill:none;stroke:#000000;stroke-dasharray:1.000000,3.000000;stroke-dashoffset:0.0;stroke-linecap:butt;stroke-width:0.5;"/>
     </g>
     <g id="line2d_30">
      <g>
       <use style="stroke:#000000;stroke-linecap:butt;stroke-width:0.5;" x="594.802425976" xlink:href="#mcb557df647" y="585.396875"/>
      </g>
     </g>
     <g id="line2d_31">
      <g>
       <use style="stroke:#000000;stroke-linecap:butt;stroke-width:0.5;" x="594.802425976" xlink:href="#mdad270ee8e" y="27.396875"/>
      </g>
     </g>
     <g id="text_9">
      <!-- 2010 -->
      <g transform="translate(574.880550976 600.5296875)scale(0.15 -0.15)">
       <use xlink:href="#BitstreamVeraSans-Bold-32"/>
       <use x="69.580078125" xlink:href="#BitstreamVeraSans-Bold-30"/>
       <use x="139.16015625" xlink:href="#BitstreamVeraSans-Bold-31"/>
       <use x="208.740234375" xlink:href="#BitstreamVeraSans-Bold-30"/>
      </g>
     </g>
    </g>
    <g id="xtick_10">
     <g id="line2d_32">
      <path clip-path="url(#p4c22383844)" d="
M655.263 585.397
L655.263 27.3969" style="fill:none;stroke:#000000;stroke-dasharray:1.000000,3.000000;stroke-dashoffset:0.0;stroke-linecap:butt;stroke-width:0.5;"/>
     </g>
     <g id="line2d_33">
      <g>
       <use style="stroke:#000000;stroke-linecap:butt;stroke-width:0.5;" x="655.263092552" xlink:href="#mcb557df647" y="585.396875"/>
      </g>
     </g>
     <g id="line2d_34">
      <g>
       <use style="stroke:#000000;stroke-linecap:butt;stroke-width:0.5;" x="655.263092552" xlink:href="#mdad270ee8e" y="27.396875"/>
      </g>
     </g>
     <g id="text_10">
      <!-- 2012 -->
      <g transform="translate(635.634186302 600.5296875)scale(0.15 -0.15)">
       <use xlink:href="#BitstreamVeraSans-Bold-32"/>
       <use x="69.580078125" xlink:href="#BitstreamVeraSans-Bold-30"/>
       <use x="139.16015625" xlink:href="#BitstreamVeraSans-Bold-31"/>
       <use x="208.740234375" xlink:href="#BitstreamVeraSans-Bold-32"/>
      </g>
     </g>
    </g>
   </g>
   <g id="matplotlib.axis_2">
    <g id="ytick_1">
     <g id="line2d_35">
      <path clip-path="url(#p4c22383844)" d="
M80.5555 585.397
L694.355 585.397" style="fill:none;stroke:#000000;stroke-dasharray:1.000000,3.000000;stroke-dashoffset:0.0;stroke-linecap:butt;stroke-width:0.5;"/>
     </g>
     <g id="line2d_36">
      <defs>
       <path d="
M0 0
L4 0" id="mc8fcea1516" style="stroke:#000000;stroke-linecap:butt;stroke-width:0.5;"/>
      </defs>
      <g>
       <use style="stroke:#000000;stroke-linecap:butt;stroke-width:0.5;" x="80.55546875" xlink:href="#mc8fcea1516" y="585.396875"/>
      </g>
     </g>
     <g id="line2d_37">
      <defs>
       <path d="
M0 0
L-4 0" id="m0d5b0a6425" style="stroke:#000000;stroke-linecap:butt;stroke-width:0.5;"/>
      </defs>
      <g>
       <use style="stroke:#000000;stroke-linecap:butt;stroke-width:0.5;" x="694.35546875" xlink:href="#m0d5b0a6425" y="585.396875"/>
      </g>
     </g>
     <g id="text_11">
      <!-- 0 -->
      <g transform="translate(67.553125 590.856640625)scale(0.15 -0.15)">
       <use xlink:href="#BitstreamVeraSans-Bold-30"/>
      </g>
     </g>
    </g>
    <g id="ytick_2">
     <g id="line2d_38">
      <path clip-path="url(#p4c22383844)" d="
M80.5555 473.797
L694.355 473.797" style="fill:none;stroke:#000000;stroke-dasharray:1.000000,3.000000;stroke-dashoffset:0.0;stroke-linecap:butt;stroke-width:0.5;"/>
     </g>
     <g id="line2d_39">
      <g>
       <use style="stroke:#000000;stroke-linecap:butt;stroke-width:0.5;" x="80.55546875" xlink:href="#mc8fcea1516" y="473.796875"/>
      </g>
     </g>
     <g id="line2d_40">
      <g>
       <use style="stroke:#000000;stroke-linecap:butt;stroke-width:0.5;" x="694.35546875" xlink:href="#m0d5b0a6425" y="473.796875"/>
      </g>
     </g>
     <g id="text_12">
      <!-- 2000 -->
      <g transform="translate(36.71171875 479.256640625)scale(0.15 -0.15)">
       <use xlink:href="#BitstreamVeraSans-Bold-32"/>
       <use x="69.580078125" xlink:href="#BitstreamVeraSans-Bold-30"/>
       <use x="139.16015625" xlink:href="#BitstreamVeraSans-Bold-30"/>
       <use x="208.740234375" xlink:href="#BitstreamVeraSans-Bold-30"/>
      </g>
     </g>
    </g>
    <g id="ytick_3">
     <g id="line2d_41">
      <path clip-path="url(#p4c22383844)" d="
M80.5555 362.197
L694.355 362.197" style="fill:none;stroke:#000000;stroke-dasharray:1.000000,3.000000;stroke-dashoffset:0.0;stroke-linecap:butt;stroke-width:0.5;"/>
     </g>
     <g id="line2d_42">
      <g>
       <use style="stroke:#000000;stroke-linecap:butt;stroke-width:0.5;" x="80.55546875" xlink:href="#mc8fcea1516" y="362.196875"/>
      </g>
     </g>
     <g id="line2d_43">
      <g>
       <use style="stroke:#000000;stroke-linecap:butt;stroke-width:0.5;" x="694.35546875" xlink:href="#m0d5b0a6425" y="362.196875"/>
      </g>
     </g>
     <g id="text_13">
      <!-- 4000 -->
      <g transform="translate(36.20078125 367.656640625)scale(0.15 -0.15)">
       <use xlink:href="#BitstreamVeraSans-Bold-34"/>
       <use x="69.580078125" xlink:href="#BitstreamVeraSans-Bold-30"/>
       <use x="139.16015625" xlink:href="#BitstreamVeraSans-Bold-30"/>
       <use x="208.740234375" xlink:href="#BitstreamVeraSans-Bold-30"/>
      </g>
     </g>
    </g>
    <g id="ytick_4">
     <g id="line2d_44">
      <path clip-path="url(#p4c22383844)" d="
M80.5555 250.597
L694.355 250.597" style="fill:none;stroke:#000000;stroke-dasharray:1.000000,3.000000;stroke-dashoffset:0.0;stroke-linecap:butt;stroke-width:0.5;"/>
     </g>
     <g id="line2d_45">
      <g>
       <use style="stroke:#000000;stroke-linecap:butt;stroke-width:0.5;" x="80.55546875" xlink:href="#mc8fcea1516" y="250.596875"/>
      </g>
     </g>
     <g id="line2d_46">
      <g>
       <use style="stroke:#000000;stroke-linecap:butt;stroke-width:0.5;" x="694.35546875" xlink:href="#m0d5b0a6425" y="250.596875"/>
      </g>
     </g>
     <g id="text_14">
      <!-- 6000 -->
      <g transform="translate(36.45625 256.056640625)scale(0.15 -0.15)">
       <use xlink:href="#BitstreamVeraSans-Bold-36"/>
       <use x="69.580078125" xlink:href="#BitstreamVeraSans-Bold-30"/>
       <use x="139.16015625" xlink:href="#BitstreamVeraSans-Bold-30"/>
       <use x="208.740234375" xlink:href="#BitstreamVeraSans-Bold-30"/>
      </g>
     </g>
    </g>
    <g id="ytick_5">
     <g id="line2d_47">
      <path clip-path="url(#p4c22383844)" d="
M80.5555 138.997
L694.355 138.997" style="fill:none;stroke:#000000;stroke-dasharray:1.000000,3.000000;stroke-dashoffset:0.0;stroke-linecap:butt;stroke-width:0.5;"/>
     </g>
     <g id="line2d_48">
      <g>
       <use style="stroke:#000000;stroke-linecap:butt;stroke-width:0.5;" x="80.55546875" xlink:href="#mc8fcea1516" y="138.996875"/>
      </g>
     </g>
     <g id="line2d_49">
      <g>
       <use style="stroke:#000000;stroke-linecap:butt;stroke-width:0.5;" x="694.35546875" xlink:href="#m0d5b0a6425" y="138.996875"/>
      </g>
     </g>
     <g id="text_15">
      <!-- 8000 -->
      <g transform="translate(36.4421875 144.456640625)scale(0.15 -0.15)">
       <use xlink:href="#BitstreamVeraSans-Bold-38"/>
       <use x="69.580078125" xlink:href="#BitstreamVeraSans-Bold-30"/>
       <use x="139.16015625" xlink:href="#BitstreamVeraSans-Bold-30"/>
       <use x="208.740234375" xlink:href="#BitstreamVeraSans-Bold-30"/>
      </g>
     </g>
    </g>
    <g id="ytick_6">
     <g id="line2d_50">
      <path clip-path="url(#p4c22383844)" d="
M80.5555 27.3969
L694.355 27.3969" style="fill:none;stroke:#000000;stroke-dasharray:1.000000,3.000000;stroke-dashoffset:0.0;stroke-linecap:butt;stroke-width:0.5;"/>
     </g>
     <g id="line2d_51">
      <g>
       <use style="stroke:#000000;stroke-linecap:butt;stroke-width:0.5;" x="80.55546875" xlink:href="#mc8fcea1516" y="27.396875"/>
      </g>
     </g>
     <g id="line2d_52">
      <g>
       <use style="stroke:#000000;stroke-linecap:butt;stroke-width:0.5;" x="694.35546875" xlink:href="#m0d5b0a6425" y="27.396875"/>
      </g>
     </g>
     <g id="text_16">
      <!-- 10000 -->
      <g transform="translate(26.78125 32.856640625)scale(0.15 -0.15)">
       <use xlink:href="#BitstreamVeraSans-Bold-31"/>
       <use x="69.580078125" xlink:href="#BitstreamVeraSans-Bold-30"/>
       <use x="139.16015625" xlink:href="#BitstreamVeraSans-Bold-30"/>
       <use x="208.740234375" xlink:href="#BitstreamVeraSans-Bold-30"/>
       <use x="278.3203125" xlink:href="#BitstreamVeraSans-Bold-30"/>
      </g>
     </g>
    </g>
    <g id="text_17">
     <!-- MW -->
     <defs>
      <path d="
M9.8125 72.9062
L24.5156 72.9062
L43.1094 23.2969
L61.8125 72.9062
L76.5156 72.9062
L76.5156 0
L66.8906 0
L66.8906 64.0156
L48.0938 14.0156
L38.1875 14.0156
L19.3906 64.0156
L19.3906 0
L9.8125 0
z
" id="BitstreamVeraSans-Roman-4d"/>
      <path d="
M3.32812 72.9062
L13.2812 72.9062
L28.6094 11.2812
L43.8906 72.9062
L54.9844 72.9062
L70.3125 11.2812
L85.5938 72.9062
L95.6094 72.9062
L77.2969 0
L64.8906 0
L49.5156 63.2812
L33.9844 0
L21.5781 0
z
" id="BitstreamVeraSans-Roman-57"/>
     </defs>
     <g transform="translate(21.78125 323.6046875)rotate(-90.0)scale(0.2 -0.2)">
      <use xlink:href="#BitstreamVeraSans-Roman-4d"/>
      <use x="86.279296875" xlink:href="#BitstreamVeraSans-Roman-57"/>
     </g>
    </g>
   </g>
   <g id="patch_3">
    <path d="
M80.5555 27.3969
L694.355 27.3969" style="fill:none;stroke:#000000;"/>
   </g>
   <g id="patch_4">
    <path d="
M694.355 585.397
L694.355 27.3969" style="fill:none;stroke:#000000;"/>
   </g>
   <g id="patch_5">
    <path d="
M80.5555 585.397
L694.355 585.397" style="fill:none;stroke:#000000;"/>
   </g>
   <g id="patch_6">
    <path d="
M80.5555 585.397
L80.5555 27.3969" style="fill:none;stroke:#000000;"/>
   </g>
   <g id="text_18">
    <!-- Last 20 years growth in NZ generation capacity -->
    <defs>
     <path d="
M1.21875 54.6875
L18.7031 54.6875
L33.4062 17.5781
L45.9062 54.6875
L63.375 54.6875
L40.375 -5.17188
Q36.9219 -14.3125 32.2969 -17.9375
Q27.6875 -21.5781 20.125 -21.5781
L10.0156 -21.5781
L10.0156 -10.1094
L15.4844 -10.1094
Q19.9219 -10.1094 21.9375 -8.6875
Q23.9688 -7.28125 25.0938 -3.60938
L25.5938 -2.09375
z
" id="BitstreamVeraSans-Bold-79"/>
     <path d="
M63.375 33.2969
L63.375 0
L45.7969 0
L45.7969 5.42188
L45.7969 25.3906
Q45.7969 32.5625 45.4844 35.25
Q45.1719 37.9375 44.3906 39.2031
Q43.3594 40.9219 41.5938 41.875
Q39.8438 42.8281 37.5938 42.8281
Q32.125 42.8281 29 38.5938
Q25.875 34.375 25.875 26.9062
L25.875 0
L8.40625 0
L8.40625 75.9844
L25.875 75.9844
L25.875 46.6875
Q29.8281 51.4688 34.2656 53.7344
Q38.7188 56 44.0938 56
Q53.5625 56 58.4688 50.1875
Q63.375 44.3906 63.375 33.2969" id="BitstreamVeraSans-Bold-68"/>
     <path d="
M49.0312 39.7969
Q46.7344 40.875 44.4531 41.375
Q42.1875 41.8906 39.8906 41.8906
Q33.1562 41.8906 29.5156 37.5625
Q25.875 33.25 25.875 25.2031
L25.875 0
L8.40625 0
L8.40625 54.6875
L25.875 54.6875
L25.875 45.7031
Q29.25 51.0781 33.6094 53.5312
Q37.9844 56 44.0938 56
Q44.9688 56 45.9844 55.9219
Q47.0156 55.8594 48.9688 55.6094
z
" id="BitstreamVeraSans-Bold-72"/>
     <path id="BitstreamVeraSans-Bold-20"/>
     <path d="
M52.5938 52.9844
L52.5938 38.7188
Q49.0312 41.1562 45.4375 42.3281
Q41.8438 43.5 37.9844 43.5
Q30.6719 43.5 26.5938 39.2344
Q22.5156 34.9688 22.5156 27.2969
Q22.5156 19.625 26.5938 15.3438
Q30.6719 11.0781 37.9844 11.0781
Q42.0938 11.0781 45.7812 12.2969
Q49.4688 13.5312 52.5938 15.9219
L52.5938 1.60938
Q48.4844 0.09375 44.2656 -0.65625
Q40.0469 -1.42188 35.7969 -1.42188
Q21 -1.42188 12.6406 6.17188
Q4.29688 13.7656 4.29688 27.2969
Q4.29688 40.8281 12.6406 48.4062
Q21 56 35.7969 56
Q40.0938 56 44.2656 55.25
Q48.4375 54.5 52.5938 52.9844" id="BitstreamVeraSans-Bold-63"/>
     <path d="
M51.125 52.9844
L51.125 39.7031
Q45.5156 42.0469 40.2812 43.2188
Q35.0625 44.3906 30.4219 44.3906
Q25.4375 44.3906 23.0156 43.1406
Q20.6094 41.8906 20.6094 39.3125
Q20.6094 37.2031 22.4375 36.0781
Q24.2656 34.9688 29 34.4219
L32.0781 33.9844
Q45.5156 32.2812 50.1406 28.375
Q54.7812 24.4688 54.7812 16.1094
Q54.7812 7.375 48.3281 2.96875
Q41.8906 -1.42188 29.1094 -1.42188
Q23.6875 -1.42188 17.8906 -0.5625
Q12.1094 0.296875 6 2
L6 15.2812
Q11.2344 12.75 16.7188 11.4688
Q22.2188 10.2031 27.875 10.2031
Q33.0156 10.2031 35.5938 11.6094
Q38.1875 13.0312 38.1875 15.8281
Q38.1875 18.1719 36.4062 19.3125
Q34.625 20.4531 29.2969 21.0938
L26.2188 21.4844
Q14.5469 22.9531 9.85938 26.9062
Q5.17188 30.8594 5.17188 38.9219
Q5.17188 47.6094 11.125 51.7969
Q17.0938 56 29.3906 56
Q34.2344 56 39.5469 55.2656
Q44.875 54.5469 51.125 52.9844" id="BitstreamVeraSans-Bold-73"/>
     <path d="
M32.9062 24.6094
Q27.4375 24.6094 24.6719 22.75
Q21.9219 20.9062 21.9219 17.2812
Q21.9219 13.9688 24.1406 12.0781
Q26.375 10.2031 30.3281 10.2031
Q35.25 10.2031 38.625 13.7344
Q42 17.2812 42 22.6094
L42 24.6094
z

M59.625 31.2031
L59.625 0
L42 0
L42 8.10938
Q38.4844 3.125 34.0781 0.84375
Q29.6875 -1.42188 23.3906 -1.42188
Q14.8906 -1.42188 9.59375 3.53125
Q4.29688 8.5 4.29688 16.4062
Q4.29688 26.0312 10.9062 30.5156
Q17.5312 35.0156 31.6875 35.0156
L42 35.0156
L42 36.375
Q42 40.5312 38.7188 42.4531
Q35.4531 44.3906 28.5156 44.3906
Q22.9062 44.3906 18.0625 43.2656
Q13.2344 42.1406 9.07812 39.8906
L9.07812 53.2188
Q14.7031 54.5938 20.3594 55.2969
Q26.0312 56 31.6875 56
Q46.4844 56 53.0469 50.1719
Q59.625 44.3438 59.625 31.2031" id="BitstreamVeraSans-Bold-61"/>
     <path d="
M27.4844 70.2188
L27.4844 54.6875
L45.5156 54.6875
L45.5156 42.1875
L27.4844 42.1875
L27.4844 19
Q27.4844 15.1875 29 13.8438
Q30.5156 12.5 35.0156 12.5
L44 12.5
L44 0
L29 0
Q18.6562 0 14.3281 4.3125
Q10.0156 8.64062 10.0156 19
L10.0156 42.1875
L1.3125 42.1875
L1.3125 54.6875
L10.0156 54.6875
L10.0156 70.2188
z
" id="BitstreamVeraSans-Bold-74"/>
     <path d="
M3.51562 54.6875
L20.5156 54.6875
L29.6875 17
L38.9219 54.6875
L53.5156 54.6875
L62.7031 17.3906
L71.9219 54.6875
L88.9219 54.6875
L74.5156 0
L55.4219 0
L46.1875 37.5938
L37.0156 0
L17.9219 0
z
" id="BitstreamVeraSans-Bold-77"/>
     <path d="
M62.9844 27.4844
L62.9844 22.5156
L22.125 22.5156
Q22.75 16.3594 26.5625 13.2812
Q30.375 10.2031 37.2031 10.2031
Q42.7188 10.2031 48.5 11.8438
Q54.2969 13.4844 60.4062 16.7969
L60.4062 3.32812
Q54.2031 0.984375 48 -0.21875
Q41.7969 -1.42188 35.5938 -1.42188
Q20.75 -1.42188 12.5156 6.125
Q4.29688 13.6719 4.29688 27.2969
Q4.29688 40.6719 12.375 48.3281
Q20.4531 56 34.625 56
Q47.5156 56 55.25 48.2344
Q62.9844 40.4844 62.9844 27.4844
M45.0156 33.2969
Q45.0156 38.2812 42.1094 41.3281
Q39.2031 44.3906 34.5156 44.3906
Q29.4375 44.3906 26.2656 41.5312
Q23.0938 38.6719 22.3125 33.2969
z
" id="BitstreamVeraSans-Bold-65"/>
     <path d="
M9.1875 72.9062
L27.9844 72.9062
L27.9844 14.2031
L60.9844 14.2031
L60.9844 0
L9.1875 0
z
" id="BitstreamVeraSans-Bold-4c"/>
     <path d="
M9.1875 72.9062
L30.1719 72.9062
L56.6875 22.9062
L56.6875 72.9062
L74.5156 72.9062
L74.5156 0
L53.5156 0
L27 50
L27 0
L9.1875 0
z
" id="BitstreamVeraSans-Bold-4e"/>
     <path d="
M25.875 7.90625
L25.875 -20.7969
L8.40625 -20.7969
L8.40625 54.6875
L25.875 54.6875
L25.875 46.6875
Q29.5 51.4688 33.8906 53.7344
Q38.2812 56 44 56
Q54.1094 56 60.5938 47.9688
Q67.0938 39.9375 67.0938 27.2969
Q67.0938 14.6562 60.5938 6.60938
Q54.1094 -1.42188 44 -1.42188
Q38.2812 -1.42188 33.8906 0.84375
Q29.5 3.125 25.875 7.90625
M37.5 43.3125
Q31.8906 43.3125 28.875 39.1875
Q25.875 35.0625 25.875 27.2969
Q25.875 19.5312 28.875 15.4062
Q31.8906 11.2812 37.5 11.2812
Q43.1094 11.2812 46.0625 15.375
Q49.0312 19.4844 49.0312 27.2969
Q49.0312 35.1094 46.0625 39.2031
Q43.1094 43.3125 37.5 43.3125" id="BitstreamVeraSans-Bold-70"/>
     <path d="
M8.40625 54.6875
L25.875 54.6875
L25.875 0
L8.40625 0
z

M8.40625 75.9844
L25.875 75.9844
L25.875 61.7188
L8.40625 61.7188
z
" id="BitstreamVeraSans-Bold-69"/>
     <path d="
M63.375 33.2969
L63.375 0
L45.7969 0
L45.7969 5.42188
L45.7969 25.4844
Q45.7969 32.5625 45.4844 35.25
Q45.1719 37.9375 44.3906 39.2031
Q43.3594 40.9219 41.5938 41.875
Q39.8438 42.8281 37.5938 42.8281
Q32.125 42.8281 29 38.5938
Q25.875 34.375 25.875 26.9062
L25.875 0
L8.40625 0
L8.40625 54.6875
L25.875 54.6875
L25.875 46.6875
Q29.8281 51.4688 34.2656 53.7344
Q38.7188 56 44.0938 56
Q53.5625 56 58.4688 50.1875
Q63.375 44.3906 63.375 33.2969" id="BitstreamVeraSans-Bold-6e"/>
     <path d="
M34.4219 43.5
Q28.6094 43.5 25.5625 39.3281
Q22.5156 35.1562 22.5156 27.2969
Q22.5156 19.4375 25.5625 15.25
Q28.6094 11.0781 34.4219 11.0781
Q40.1406 11.0781 43.1562 15.25
Q46.1875 19.4375 46.1875 27.2969
Q46.1875 35.1562 43.1562 39.3281
Q40.1406 43.5 34.4219 43.5
M34.4219 56
Q48.5312 56 56.4688 48.375
Q64.4062 40.7656 64.4062 27.2969
Q64.4062 13.8125 56.4688 6.1875
Q48.5312 -1.42188 34.4219 -1.42188
Q20.2656 -1.42188 12.2812 6.1875
Q4.29688 13.8125 4.29688 27.2969
Q4.29688 40.7656 12.2812 48.375
Q20.2656 56 34.4219 56" id="BitstreamVeraSans-Bold-6f"/>
     <path d="
M5.60938 72.9062
L66.8906 72.9062
L66.8906 61.5312
L27.7812 14.2031
L68.0156 14.2031
L68.0156 0
L4.5 0
L4.5 11.375
L43.6094 58.6875
L5.60938 58.6875
z
" id="BitstreamVeraSans-Bold-5a"/>
     <path d="
M45.6094 9.28125
Q42 4.5 37.6406 2.25
Q33.2969 0 27.5938 0
Q17.5781 0 11.0312 7.875
Q4.5 15.7656 4.5 27.9844
Q4.5 40.2344 11.0312 48.0625
Q17.5781 55.9062 27.5938 55.9062
Q33.2969 55.9062 37.6406 53.6562
Q42 51.4219 45.6094 46.5781
L45.6094 54.6875
L63.1875 54.6875
L63.1875 5.51562
Q63.1875 -7.67188 54.8594 -14.625
Q46.5312 -21.5781 30.7188 -21.5781
Q25.5938 -21.5781 20.7969 -20.7969
Q16.0156 -20.0156 11.1875 -18.4062
L11.1875 -4.78125
Q15.7656 -7.42188 20.1562 -8.71875
Q24.5625 -10.0156 29 -10.0156
Q37.5938 -10.0156 41.5938 -6.25
Q45.6094 -2.48438 45.6094 5.51562
z

M34.0781 43.3125
Q28.6562 43.3125 25.625 39.2969
Q22.6094 35.2969 22.6094 27.9844
Q22.6094 20.4531 25.5312 16.5781
Q28.4688 12.7031 34.0781 12.7031
Q39.5469 12.7031 42.5781 16.7031
Q45.6094 20.7031 45.6094 27.9844
Q45.6094 35.2969 42.5781 39.2969
Q39.5469 43.3125 34.0781 43.3125" id="BitstreamVeraSans-Bold-67"/>
    </defs>
    <g transform="translate(119.34765625 22.396875)scale(0.2 -0.2)">
     <use xlink:href="#BitstreamVeraSans-Bold-4c"/>
     <use x="63.720703125" xlink:href="#BitstreamVeraSans-Bold-61"/>
     <use x="131.201171875" xlink:href="#BitstreamVeraSans-Bold-73"/>
     <use x="190.72265625" xlink:href="#BitstreamVeraSans-Bold-74"/>
     <use x="238.525390625" xlink:href="#BitstreamVeraSans-Bold-20"/>
     <use x="273.33984375" xlink:href="#BitstreamVeraSans-Bold-32"/>
     <use x="342.919921875" xlink:href="#BitstreamVeraSans-Bold-30"/>
     <use x="412.5" xlink:href="#BitstreamVeraSans-Bold-20"/>
     <use x="447.314453125" xlink:href="#BitstreamVeraSans-Bold-79"/>
     <use x="512.5" xlink:href="#BitstreamVeraSans-Bold-65"/>
     <use x="580.322265625" xlink:href="#BitstreamVeraSans-Bold-61"/>
     <use x="647.802734375" xlink:href="#BitstreamVeraSans-Bold-72"/>
     <use x="697.119140625" xlink:href="#BitstreamVeraSans-Bold-73"/>
     <use x="756.640625" xlink:href="#BitstreamVeraSans-Bold-20"/>
     <use x="791.455078125" xlink:href="#BitstreamVeraSans-Bold-67"/>
     <use x="863.037109375" xlink:href="#BitstreamVeraSans-Bold-72"/>
     <use x="912.353515625" xlink:href="#BitstreamVeraSans-Bold-6f"/>
     <use x="981.0546875" xlink:href="#BitstreamVeraSans-Bold-77"/>
     <use x="1073.4375" xlink:href="#BitstreamVeraSans-Bold-74"/>
     <use x="1121.24023438" xlink:href="#BitstreamVeraSans-Bold-68"/>
     <use x="1192.43164062" xlink:href="#BitstreamVeraSans-Bold-20"/>
     <use x="1227.24609375" xlink:href="#BitstreamVeraSans-Bold-69"/>
     <use x="1261.5234375" xlink:href="#BitstreamVeraSans-Bold-6e"/>
     <use x="1332.71484375" xlink:href="#BitstreamVeraSans-Bold-20"/>
     <use x="1367.52929688" xlink:href="#BitstreamVeraSans-Bold-4e"/>
     <use x="1451.22070312" xlink:href="#BitstreamVeraSans-Bold-5a"/>
     <use x="1523.73046875" xlink:href="#BitstreamVeraSans-Bold-20"/>
     <use x="1558.54492188" xlink:href="#BitstreamVeraSans-Bold-67"/>
     <use x="1630.12695312" xlink:href="#BitstreamVeraSans-Bold-65"/>
     <use x="1697.94921875" xlink:href="#BitstreamVeraSans-Bold-6e"/>
     <use x="1769.140625" xlink:href="#BitstreamVeraSans-Bold-65"/>
     <use x="1836.96289062" xlink:href="#BitstreamVeraSans-Bold-72"/>
     <use x="1886.27929688" xlink:href="#BitstreamVeraSans-Bold-61"/>
     <use x="1953.75976562" xlink:href="#BitstreamVeraSans-Bold-74"/>
     <use x="2001.5625" xlink:href="#BitstreamVeraSans-Bold-69"/>
     <use x="2035.83984375" xlink:href="#BitstreamVeraSans-Bold-6f"/>
     <use x="2104.54101562" xlink:href="#BitstreamVeraSans-Bold-6e"/>
     <use x="2175.73242188" xlink:href="#BitstreamVeraSans-Bold-20"/>
     <use x="2210.546875" xlink:href="#BitstreamVeraSans-Bold-63"/>
     <use x="2269.82421875" xlink:href="#BitstreamVeraSans-Bold-61"/>
     <use x="2337.3046875" xlink:href="#BitstreamVeraSans-Bold-70"/>
     <use x="2408.88671875" xlink:href="#BitstreamVeraSans-Bold-61"/>
     <use x="2476.3671875" xlink:href="#BitstreamVeraSans-Bold-63"/>
     <use x="2535.64453125" xlink:href="#BitstreamVeraSans-Bold-69"/>
     <use x="2569.921875" xlink:href="#BitstreamVeraSans-Bold-74"/>
     <use x="2617.72460938" xlink:href="#BitstreamVeraSans-Bold-79"/>
    </g>
   </g>
   <g id="legend_1">
    <g id="patch_7">
     <path d="
M88.0555 127.583
L239.152 127.583
L239.152 34.8969
L88.0555 34.8969
L88.0555 127.583
z
" style="fill:#ffffff;stroke:#000000;"/>
    </g>
    <g id="line2d_53">
     <path d="
M98.5555 47.0445
L119.555 47.0445" style="fill:none;stroke:#61bc3a;"/>
    </g>
    <g id="line2d_54"/>
    <g id="text_19">
     <!-- Wind -->
     <defs>
      <path d="
M2.98438 72.9062
L21 72.9062
L33.5938 19.9219
L46.0938 72.9062
L64.2031 72.9062
L76.7031 19.9219
L89.3125 72.9062
L107.172 72.9062
L89.9844 0
L68.3125 0
L55.0781 55.4219
L42 0
L20.3125 0
z
" id="BitstreamVeraSans-Bold-57"/>
      <path d="
M45.6094 46.6875
L45.6094 75.9844
L63.1875 75.9844
L63.1875 0
L45.6094 0
L45.6094 7.90625
Q42 3.07812 37.6406 0.828125
Q33.2969 -1.42188 27.5938 -1.42188
Q17.4844 -1.42188 10.9844 6.60938
Q4.5 14.6562 4.5 27.2969
Q4.5 39.9375 10.9844 47.9688
Q17.4844 56 27.5938 56
Q33.25 56 37.625 53.7344
Q42 51.4688 45.6094 46.6875
M34.0781 11.2812
Q39.7031 11.2812 42.6562 15.375
Q45.6094 19.4844 45.6094 27.2969
Q45.6094 35.1094 42.6562 39.2031
Q39.7031 43.3125 34.0781 43.3125
Q28.5156 43.3125 25.5625 39.2031
Q22.6094 35.1094 22.6094 27.2969
Q22.6094 19.4844 25.5625 15.375
Q28.5156 11.2812 34.0781 11.2812" id="BitstreamVeraSans-Bold-64"/>
     </defs>
     <g transform="translate(136.05546875 52.29453125)scale(0.15 -0.15)">
      <use xlink:href="#BitstreamVeraSans-Bold-57"/>
      <use x="110.302734375" xlink:href="#BitstreamVeraSans-Bold-69"/>
      <use x="144.580078125" xlink:href="#BitstreamVeraSans-Bold-6e"/>
      <use x="215.771484375" xlink:href="#BitstreamVeraSans-Bold-64"/>
     </g>
    </g>
    <g id="line2d_55">
     <path d="
M98.5555 69.0617
L119.555 69.0617" style="fill:none;stroke:#ffba2d;"/>
    </g>
    <g id="line2d_56"/>
    <g id="text_20">
     <!-- Geothermal -->
     <defs>
      <path d="
M8.40625 75.9844
L25.875 75.9844
L25.875 0
L8.40625 0
z
" id="BitstreamVeraSans-Bold-6c"/>
      <path d="
M59.0781 45.6094
Q62.4062 50.6875 66.9688 53.3438
Q71.5312 56 77 56
Q86.4219 56 91.3594 50.1875
Q96.2969 44.3906 96.2969 33.2969
L96.2969 0
L78.7188 0
L78.7188 28.5156
Q78.7656 29.1562 78.7812 29.8281
Q78.8125 30.5156 78.8125 31.7812
Q78.8125 37.5938 77.0938 40.2031
Q75.3906 42.8281 71.5781 42.8281
Q66.6094 42.8281 63.8906 38.7188
Q61.1875 34.625 61.0781 26.8594
L61.0781 0
L43.5 0
L43.5 28.5156
Q43.5 37.5938 41.9375 40.2031
Q40.375 42.8281 36.375 42.8281
Q31.3438 42.8281 28.6094 38.7031
Q25.875 34.5781 25.875 26.9062
L25.875 0
L8.29688 0
L8.29688 54.6875
L25.875 54.6875
L25.875 46.6875
Q29.1094 51.3125 33.2812 53.6562
Q37.4531 56 42.4844 56
Q48.1406 56 52.4844 53.2656
Q56.8438 50.5312 59.0781 45.6094" id="BitstreamVeraSans-Bold-6d"/>
      <path d="
M74.7031 5.42188
Q67.6719 2 60.1094 0.28125
Q52.5469 -1.42188 44.4844 -1.42188
Q26.2656 -1.42188 15.625 8.76562
Q4.98438 18.9531 4.98438 36.375
Q4.98438 54 15.8125 64.1094
Q26.6562 74.2188 45.5156 74.2188
Q52.7812 74.2188 59.4375 72.8438
Q66.1094 71.4844 72.0156 68.7969
L72.0156 53.7188
Q65.9219 57.1719 59.8906 58.875
Q53.8594 60.5938 47.7969 60.5938
Q36.5781 60.5938 30.5 54.3125
Q24.4219 48.0469 24.4219 36.375
Q24.4219 24.8125 30.2812 18.5
Q36.1406 12.2031 46.9219 12.2031
Q49.8594 12.2031 52.375 12.5625
Q54.8906 12.9375 56.8906 13.7188
L56.8906 27.875
L45.4062 27.875
L45.4062 40.4844
L74.7031 40.4844
z
" id="BitstreamVeraSans-Bold-47"/>
     </defs>
     <g transform="translate(136.05546875 74.31171875)scale(0.15 -0.15)">
      <use xlink:href="#BitstreamVeraSans-Bold-47"/>
      <use x="82.080078125" xlink:href="#BitstreamVeraSans-Bold-65"/>
      <use x="149.90234375" xlink:href="#BitstreamVeraSans-Bold-6f"/>
      <use x="218.603515625" xlink:href="#BitstreamVeraSans-Bold-74"/>
      <use x="266.40625" xlink:href="#BitstreamVeraSans-Bold-68"/>
      <use x="337.59765625" xlink:href="#BitstreamVeraSans-Bold-65"/>
      <use x="405.419921875" xlink:href="#BitstreamVeraSans-Bold-72"/>
      <use x="454.736328125" xlink:href="#BitstreamVeraSans-Bold-6d"/>
      <use x="558.935546875" xlink:href="#BitstreamVeraSans-Bold-61"/>
      <use x="626.416015625" xlink:href="#BitstreamVeraSans-Bold-6c"/>
     </g>
    </g>
    <g id="line2d_57">
     <path d="
M98.5555 91.0789
L119.555 91.0789" style="fill:none;stroke:#ed1745;"/>
    </g>
    <g id="line2d_58"/>
    <g id="text_21">
     <!-- Thermal -->
     <defs>
      <path d="
M0.484375 72.9062
L67.6719 72.9062
L67.6719 58.6875
L43.5 58.6875
L43.5 0
L24.7031 0
L24.7031 58.6875
L0.484375 58.6875
z
" id="BitstreamVeraSans-Bold-54"/>
     </defs>
     <g transform="translate(136.05546875 96.32890625)scale(0.15 -0.15)">
      <use xlink:href="#BitstreamVeraSans-Bold-54"/>
      <use x="68.212890625" xlink:href="#BitstreamVeraSans-Bold-68"/>
      <use x="139.404296875" xlink:href="#BitstreamVeraSans-Bold-65"/>
      <use x="207.2265625" xlink:href="#BitstreamVeraSans-Bold-72"/>
      <use x="256.54296875" xlink:href="#BitstreamVeraSans-Bold-6d"/>
      <use x="360.7421875" xlink:href="#BitstreamVeraSans-Bold-61"/>
      <use x="428.22265625" xlink:href="#BitstreamVeraSans-Bold-6c"/>
     </g>
    </g>
    <g id="line2d_59">
     <path d="
M98.5555 113.096
L119.555 113.096" style="fill:none;stroke:#0f7baf;"/>
    </g>
    <g id="line2d_60"/>
    <g id="text_22">
     <!-- Hydro -->
     <defs>
      <path d="
M9.1875 72.9062
L27.9844 72.9062
L27.9844 45.125
L55.7188 45.125
L55.7188 72.9062
L74.5156 72.9062
L74.5156 0
L55.7188 0
L55.7188 30.9062
L27.9844 30.9062
L27.9844 0
L9.1875 0
z
" id="BitstreamVeraSans-Bold-48"/>
     </defs>
     <g transform="translate(136.05546875 118.34609375)scale(0.15 -0.15)">
      <use xlink:href="#BitstreamVeraSans-Bold-48"/>
      <use x="83.69140625" xlink:href="#BitstreamVeraSans-Bold-79"/>
      <use x="148.876953125" xlink:href="#BitstreamVeraSans-Bold-64"/>
      <use x="220.458984375" xlink:href="#BitstreamVeraSans-Bold-72"/>
      <use x="269.775390625" xlink:href="#BitstreamVeraSans-Bold-6f"/>
     </g>
    </g>
   </g>
  </g>
 </g>
 <defs>
  <clipPath id="p4c22383844">
   <rect height="558.0" width="613.8" x="80.55546875" y="27.396875"/>
  </clipPath>
 </defs>
</svg>
