<?xml version="1.0" encoding="utf-8" standalone="no"?>
<!DOCTYPE svg PUBLIC "-//W3C//DTD SVG 1.1//EN"
  "http://www.w3.org/Graphics/SVG/1.1/DTD/svg11.dtd">
<!-- Created with matplotlib (http://matplotlib.org/) -->
<svg height="607pt" version="1.1" viewBox="0 0 701 607" width="701pt" xmlns="http://www.w3.org/2000/svg" xmlns:xlink="http://www.w3.org/1999/xlink">
 <defs>
  <style type="text/css">
*{stroke-linecap:square;stroke-linejoin:round;}
  </style>
 </defs>
 <g id="figure_1">
  <g id="patch_1">
   <path d="
M0 607.943
L701.555 607.943
L701.555 0
L0 0
z
" style="fill:#ffffff;"/>
  </g>
  <g id="axes_1">
   <g id="patch_2">
    <path d="
M80.5555 585.397
L694.355 585.397
L694.355 27.3969
L80.5555 27.3969
z
" style="fill:#ffffff;"/>
   </g>
   <g id="PolyCollection_1">
    <defs>
     <path d="
M80.5555 -22.5461
L80.5555 -22.5586
L102.979 -22.5586
L110.535 -22.5586
L117.927 -22.5586
L122.937 -22.5586
L137.968 -22.5586
L140.515 -22.5586
L170.494 -22.7735
L177.968 -22.7735
L179.775 -22.7735
L182.979 -22.7735
L200.556 -22.7735
L205.402 -22.7735
L220.515 -22.7735
L230.535 -22.7735
L234.888 -22.7735
L237.517 -22.7735
L242.938 -22.7735
L250.494 -22.7735
L252.958 -22.7735
L260.515 -24.5412
L263.307 -24.5412
L270.371 -24.5412
L285.484 -24.5412
L287.948 -24.5412
L290.494 -24.5412
L297.969 -24.5412
L305.443 -24.5412
L320.556 -24.5412
L321.542 -24.5412
L327.948 -24.5412
L347.989 -24.5412
L350.535 -24.5412
L353.082 -24.5412
L357.928 -24.5412
L360.72 -24.5412
L377.969 -24.5412
L380.515 -24.5412
L393.328 -24.5468
L393.575 -24.5524
L397.928 -24.5691
L405.484 -24.5691
L406.306 -24.5412
L407.948 -24.5691
L410.495 -24.5691
L415.423 -25.1271
L417.969 -25.6851
L418.133 -25.6572
L419.858 -25.6572
L420.433 -26.5668
L422.979 -26.5668
L425.772 -26.5947
L427.086 -27.3312
L427.989 -28.676
L430.536 -30.138
L433 -31.5274
L434.478 -31.4995
L435.546 -31.5383
L438.01 -31.7729
L439.078 -31.745
L440.556 -31.7729
L445.402 -31.7785
L446.141 -31.7506
L447.948 -31.7506
L450.412 -31.7785
L462.979 -31.7785
L470.536 -31.7785
L475.382 -30.7406
L477.928 -30.7406
L485.402 -31.3321
L487.948 -31.3321
L490.248 -31.3349
L490.495 -31.3488
L491.398 -31.36
L491.562 -31.3879
L491.645 -31.4716
L492.959 -31.4716
L500.515 -31.4716
L505.361 -32.5876
L507.907 -34.2069
L510.372 -34.9881
L512.918 -35.2671
L513.164 -35.3787
L513.739 -35.4903
L514.15 -35.6019
L514.643 -35.9367
L515.053 -36.0483
L515.3 -36.1599
L515.382 -38.0002
L517.107 -38.2234
L517.928 -39.451
L518.996 -38.335
L522.117 -38.335
L522.938 -38.9488
L525.484 -38.9488
L527.949 -38.9488
L530.495 -39.73
L537.969 -39.73
L538.133 -39.73
L540.433 -39.73
L542.979 -40.846
L545.443 -40.846
L547.99 -40.846
L548.318 -40.846
L548.565 -40.8463
L550.536 -40.8463
L550.618 -40.8463
L553 -40.8463
L555.875 -40.8463
L559.242 -40.8463
L560.556 -41.0695
L561.46 -41.0695
L562.61 -41.0695
L565.402 -41.0695
L565.895 -41.1979
L566.717 -41.3262
L566.799 -41.4545
L567.045 -41.5829
L567.374 -41.7112
L567.456 -41.8396
L567.949 -41.8396
L568.606 -42.3529
L570.002 -42.8663
L570.248 -42.9946
L570.413 -43.2178
L571.234 -43.8595
L571.727 -43.8595
L572.959 -44.6407
L573.698 -44.6407
L575.259 -44.6407
L575.423 -45.7567
L576.573 -46.3147
L577.969 -46.5379
L579.53 -47.0959
L580.515 -47.6539
L582.979 -49.473
L585.033 -49.5148
L585.279 -49.5567
L585.526 -49.7799
L585.608 -49.7799
L586.265 -49.7799
L586.347 -49.7799
L586.758 -49.7799
L586.84 -49.7799
L587.99 -49.7799
L590.536 -49.5651
L591.932 -49.5651
L593.657 -49.6069
L595.382 -49.6069
L597.928 -49.6069
L598.832 -49.6069
L599.982 -49.6069
L602.938 -49.632
L605.403 -49.632
L610.495 -49.632
L611.563 -49.632
L616.244 -49.632
L616.819 -49.7604
L617.476 -49.7604
L617.969 -49.7478
L619.776 -49.7478
L620.515 -49.8036
L623.062 -52.2421
L624.458 -52.5769
L625.361 -52.9117
L625.444 -53.2465
L626.101 -54.608
L626.594 -54.8591
L626.758 -55.1939
L626.84 -55.3613
L627.908 -55.7798
L633.986 -55.7798
L635.3 -56.1425
L635.382 -56.1425
L635.875 -56.1704
L645.485 -56.4075
L647.949 -56.5973
L650.495 -56.5973
L660.433 -56.5973
L667.99 -56.5973
L680.557 -56.5973
L681.214 -56.5973
L685.403 -56.5973
L687.128 -56.5973
L687.456 -56.5973
L687.949 -56.5973
L694.355 -56.5973
L694.355 -22.5461
L694.355 -22.5461
L687.949 -22.5461
L687.456 -22.5461
L687.128 -22.5461
L685.403 -22.5461
L681.214 -22.5461
L680.557 -22.5461
L667.99 -22.5461
L660.433 -22.5461
L650.495 -22.5461
L647.949 -22.5461
L645.485 -22.5461
L635.875 -22.5461
L635.382 -22.5461
L635.3 -22.5461
L633.986 -22.5461
L627.908 -22.5461
L626.84 -22.5461
L626.758 -22.5461
L626.594 -22.5461
L626.101 -22.5461
L625.444 -22.5461
L625.361 -22.5461
L624.458 -22.5461
L623.062 -22.5461
L620.515 -22.5461
L619.776 -22.5461
L617.969 -22.5461
L617.476 -22.5461
L616.819 -22.5461
L616.244 -22.5461
L611.563 -22.5461
L610.495 -22.5461
L605.403 -22.5461
L602.938 -22.5461
L599.982 -22.5461
L598.832 -22.5461
L597.928 -22.5461
L595.382 -22.5461
L593.657 -22.5461
L591.932 -22.5461
L590.536 -22.5461
L587.99 -22.5461
L586.84 -22.5461
L586.758 -22.5461
L586.347 -22.5461
L586.265 -22.5461
L585.608 -22.5461
L585.526 -22.5461
L585.279 -22.5461
L585.033 -22.5461
L582.979 -22.5461
L580.515 -22.5461
L579.53 -22.5461
L577.969 -22.5461
L576.573 -22.5461
L575.423 -22.5461
L575.259 -22.5461
L573.698 -22.5461
L572.959 -22.5461
L571.727 -22.5461
L571.234 -22.5461
L570.413 -22.5461
L570.248 -22.5461
L570.002 -22.5461
L568.606 -22.5461
L567.949 -22.5461
L567.456 -22.5461
L567.374 -22.5461
L567.045 -22.5461
L566.799 -22.5461
L566.717 -22.5461
L565.895 -22.5461
L565.402 -22.5461
L562.61 -22.5461
L561.46 -22.5461
L560.556 -22.5461
L559.242 -22.5461
L555.875 -22.5461
L553 -22.5461
L550.618 -22.5461
L550.536 -22.5461
L548.565 -22.5461
L548.318 -22.5461
L547.99 -22.5461
L545.443 -22.5461
L542.979 -22.5461
L540.433 -22.5461
L538.133 -22.5461
L537.969 -22.5461
L530.495 -22.5461
L527.949 -22.5461
L525.484 -22.5461
L522.938 -22.5461
L522.117 -22.5461
L518.996 -22.5461
L517.928 -22.5461
L517.107 -22.5461
L515.382 -22.5461
L515.3 -22.5461
L515.053 -22.5461
L514.643 -22.5461
L514.15 -22.5461
L513.739 -22.5461
L513.164 -22.5461
L512.918 -22.5461
L510.372 -22.5461
L507.907 -22.5461
L505.361 -22.5461
L500.515 -22.5461
L492.959 -22.5461
L491.645 -22.5461
L491.562 -22.5461
L491.398 -22.5461
L490.495 -22.5461
L490.248 -22.5461
L487.948 -22.5461
L485.402 -22.5461
L477.928 -22.5461
L475.382 -22.5461
L470.536 -22.5461
L462.979 -22.5461
L450.412 -22.5461
L447.948 -22.5461
L446.141 -22.5461
L445.402 -22.5461
L440.556 -22.5461
L439.078 -22.5461
L438.01 -22.5461
L435.546 -22.5461
L434.478 -22.5461
L433 -22.5461
L430.536 -22.5461
L427.989 -22.5461
L427.086 -22.5461
L425.772 -22.5461
L422.979 -22.5461
L420.433 -22.5461
L419.858 -22.5461
L418.133 -22.5461
L417.969 -22.5461
L415.423 -22.5461
L410.495 -22.5461
L407.948 -22.5461
L406.306 -22.5461
L405.484 -22.5461
L397.928 -22.5461
L393.575 -22.5461
L393.328 -22.5461
L380.515 -22.5461
L377.969 -22.5461
L360.72 -22.5461
L357.928 -22.5461
L353.082 -22.5461
L350.535 -22.5461
L347.989 -22.5461
L327.948 -22.5461
L321.542 -22.5461
L320.556 -22.5461
L305.443 -22.5461
L297.969 -22.5461
L290.494 -22.5461
L287.948 -22.5461
L285.484 -22.5461
L270.371 -22.5461
L263.307 -22.5461
L260.515 -22.5461
L252.958 -22.5461
L250.494 -22.5461
L242.938 -22.5461
L237.517 -22.5461
L234.888 -22.5461
L230.535 -22.5461
L220.515 -22.5461
L205.402 -22.5461
L200.556 -22.5461
L182.979 -22.5461
L179.775 -22.5461
L177.968 -22.5461
L170.494 -22.5461
L140.515 -22.5461
L137.968 -22.5461
L122.937 -22.5461
L117.927 -22.5461
L110.535 -22.5461
L102.979 -22.5461
L80.5555 -22.5461
z
" id="C0_0_d3a5f082d9"/>
    </defs>
    <g clip-path="url(#p4c22383844)">
     <use style="fill:#61bc3a;stroke:#61bc3a;stroke-linecap:butt;" x="0.0" xlink:href="#C0_0_d3a5f082d9" y="607.94296875"/>
    </g>
   </g>
   <g id="PolyCollection_2">
    <defs>
     <path d="
M80.5555 -40.3455
L80.5555 -22.5586
L102.979 -22.5586
L110.535 -22.5586
L117.927 -22.5586
L122.937 -22.5586
L137.968 -22.5586
L140.515 -22.5586
L170.494 -22.7735
L177.968 -22.7735
L179.775 -22.7735
L182.979 -22.7735
L200.556 -22.7735
L205.402 -22.7735
L220.515 -22.7735
L230.535 -22.7735
L234.888 -22.7735
L237.517 -22.7735
L242.938 -22.7735
L250.494 -22.7735
L252.958 -22.7735
L260.515 -24.5412
L263.307 -24.5412
L270.371 -24.5412
L285.484 -24.5412
L287.948 -24.5412
L290.494 -24.5412
L297.969 -24.5412
L305.443 -24.5412
L320.556 -24.5412
L321.542 -24.5412
L327.948 -24.5412
L347.989 -24.5412
L350.535 -24.5412
L353.082 -24.5412
L357.928 -24.5412
L360.72 -24.5412
L377.969 -24.5412
L380.515 -24.5412
L393.328 -24.5468
L393.575 -24.5524
L397.928 -24.5691
L405.484 -24.5691
L406.306 -24.5412
L407.948 -24.5691
L410.495 -24.5691
L415.423 -25.1271
L417.969 -25.6851
L418.133 -25.6572
L419.858 -25.6572
L420.433 -26.5668
L422.979 -26.5668
L425.772 -26.5947
L427.086 -27.3312
L427.989 -28.676
L430.536 -30.138
L433 -31.5274
L434.478 -31.4995
L435.546 -31.5383
L438.01 -31.7729
L439.078 -31.745
L440.556 -31.7729
L445.402 -31.7785
L446.141 -31.7506
L447.948 -31.7506
L450.412 -31.7785
L462.979 -31.7785
L470.536 -31.7785
L475.382 -30.7406
L477.928 -30.7406
L485.402 -31.3321
L487.948 -31.3321
L490.248 -31.3349
L490.495 -31.3488
L491.398 -31.36
L491.562 -31.3879
L491.645 -31.4716
L492.959 -31.4716
L500.515 -31.4716
L505.361 -32.5876
L507.907 -34.2069
L510.372 -34.9881
L512.918 -35.2671
L513.164 -35.3787
L513.739 -35.4903
L514.15 -35.6019
L514.643 -35.9367
L515.053 -36.0483
L515.3 -36.1599
L515.382 -38.0002
L517.107 -38.2234
L517.928 -39.451
L518.996 -38.335
L522.117 -38.335
L522.938 -38.9488
L525.484 -38.9488
L527.949 -38.9488
L530.495 -39.73
L537.969 -39.73
L538.133 -39.73
L540.433 -39.73
L542.979 -40.846
L545.443 -40.846
L547.99 -40.846
L548.318 -40.846
L548.565 -40.8463
L550.536 -40.8463
L550.618 -40.8463
L553 -40.8463
L555.875 -40.8463
L559.242 -40.8463
L560.556 -41.0695
L561.46 -41.0695
L562.61 -41.0695
L565.402 -41.0695
L565.895 -41.1979
L566.717 -41.3262
L566.799 -41.4545
L567.045 -41.5829
L567.374 -41.7112
L567.456 -41.8396
L567.949 -41.8396
L568.606 -42.3529
L570.002 -42.8663
L570.248 -42.9946
L570.413 -43.2178
L571.234 -43.8595
L571.727 -43.8595
L572.959 -44.6407
L573.698 -44.6407
L575.259 -44.6407
L575.423 -45.7567
L576.573 -46.3147
L577.969 -46.5379
L579.53 -47.0959
L580.515 -47.6539
L582.979 -49.473
L585.033 -49.5148
L585.279 -49.5567
L585.526 -49.7799
L585.608 -49.7799
L586.265 -49.7799
L586.347 -49.7799
L586.758 -49.7799
L586.84 -49.7799
L587.99 -49.7799
L590.536 -49.5651
L591.932 -49.5651
L593.657 -49.6069
L595.382 -49.6069
L597.928 -49.6069
L598.832 -49.6069
L599.982 -49.6069
L602.938 -49.632
L605.403 -49.632
L610.495 -49.632
L611.563 -49.632
L616.244 -49.632
L616.819 -49.7604
L617.476 -49.7604
L617.969 -49.7478
L619.776 -49.7478
L620.515 -49.8036
L623.062 -52.2421
L624.458 -52.5769
L625.361 -52.9117
L625.444 -53.2465
L626.101 -54.608
L626.594 -54.8591
L626.758 -55.1939
L626.84 -55.3613
L627.908 -55.7798
L633.986 -55.7798
L635.3 -56.1425
L635.382 -56.1425
L635.875 -56.1704
L645.485 -56.4075
L647.949 -56.5973
L650.495 -56.5973
L660.433 -56.5973
L667.99 -56.5973
L680.557 -56.5973
L681.214 -56.5973
L685.403 -56.5973
L687.128 -56.5973
L687.456 -56.5973
L687.949 -56.5973
L694.355 -56.5973
L694.355 -113.12
L694.355 -113.12
L687.949 -109.382
L687.456 -109.382
L687.128 -108.656
L685.403 -113.12
L681.214 -113.12
L680.557 -113.12
L667.99 -99.282
L660.433 -99.282
L650.495 -99.282
L647.949 -99.282
L645.485 -99.0923
L635.875 -98.8552
L635.382 -98.8273
L635.3 -98.8273
L633.986 -98.4646
L627.908 -98.4646
L626.84 -98.0461
L626.758 -97.8787
L626.594 -97.5439
L626.101 -97.2928
L625.444 -95.9312
L625.361 -95.5964
L624.458 -95.2616
L623.062 -94.9268
L620.515 -92.4884
L619.776 -92.4326
L617.969 -92.4326
L617.476 -92.4451
L616.819 -92.4451
L616.244 -92.3168
L611.563 -92.3168
L610.495 -92.3168
L605.403 -92.3168
L602.938 -92.3168
L599.982 -92.2917
L598.832 -92.2917
L597.928 -92.2917
L595.382 -90.986
L593.657 -90.986
L591.932 -90.9441
L590.536 -83.5785
L587.99 -83.7933
L586.84 -83.7933
L586.758 -83.7933
L586.347 -83.7933
L586.265 -83.7933
L585.608 -83.7933
L585.526 -83.7933
L585.279 -83.5701
L585.033 -83.5283
L582.979 -83.4864
L580.515 -81.6674
L579.53 -80.7188
L577.969 -80.1608
L576.573 -79.9376
L575.423 -79.3796
L575.259 -78.2636
L573.698 -78.2636
L572.959 -78.2636
L571.727 -77.4824
L571.234 -77.4824
L570.413 -76.8407
L570.248 -76.6175
L570.002 -76.4891
L568.606 -75.9758
L567.949 -75.4624
L567.456 -75.4624
L567.374 -75.3341
L567.045 -75.2057
L566.799 -75.0774
L566.717 -74.949
L565.895 -74.8207
L565.402 -74.6924
L562.61 -74.6924
L561.46 -74.6924
L560.556 -74.6924
L559.242 -74.4692
L555.875 -74.4692
L553 -74.4692
L550.618 -74.4692
L550.536 -74.9714
L548.565 -73.9112
L548.318 -73.9108
L547.99 -73.9108
L545.443 -73.0738
L542.979 -68.0518
L540.433 -66.9358
L538.133 -66.9358
L537.969 -66.9358
L530.495 -66.9358
L527.949 -66.1546
L525.484 -66.1546
L522.938 -66.1546
L522.117 -65.5408
L518.996 -65.5408
L517.928 -66.6568
L517.107 -65.4292
L515.382 -65.206
L515.3 -63.3657
L515.053 -63.2541
L514.643 -63.1425
L514.15 -62.8077
L513.739 -62.6961
L513.164 -62.5845
L512.918 -62.4729
L510.372 -62.1939
L507.907 -61.4127
L505.361 -59.7934
L500.515 -58.6774
L492.959 -56.0548
L491.645 -56.0548
L491.562 -55.9711
L491.398 -55.9432
L490.495 -55.9321
L490.248 -55.9181
L487.948 -55.9153
L485.402 -55.9153
L477.928 -55.3239
L475.382 -55.3239
L470.536 -56.3617
L462.979 -56.3617
L450.412 -56.3617
L447.948 -56.3338
L446.141 -54.1576
L445.402 -54.1855
L440.556 -54.18
L439.078 -54.4869
L438.01 -54.5148
L435.546 -54.2802
L434.478 -54.2413
L433 -54.2692
L430.536 -52.8798
L427.989 -51.4179
L427.086 -50.0731
L425.772 -49.3365
L422.979 -49.3086
L420.433 -49.3086
L419.858 -48.3991
L418.133 -48.3991
L417.969 -48.427
L415.423 -47.869
L410.495 -47.311
L407.948 -47.311
L406.306 -47.2831
L405.484 -47.311
L397.928 -47.311
L393.575 -47.2942
L393.328 -47.2887
L380.515 -47.2831
L377.969 -47.2831
L360.72 -46.7251
L357.928 -46.7251
L353.082 -46.7251
L350.535 -46.7251
L347.989 -46.7251
L327.948 -46.7251
L321.542 -46.7251
L320.556 -46.7251
L305.443 -46.7251
L297.969 -46.7251
L290.494 -46.7251
L287.948 -48.3991
L285.484 -45.2743
L270.371 -45.2743
L263.307 -45.2743
L260.515 -45.2743
L252.958 -43.5065
L250.494 -43.5065
L242.938 -43.5065
L237.517 -42.9485
L234.888 -42.9485
L230.535 -42.9485
L220.515 -42.9485
L205.402 -41.6093
L200.556 -41.6093
L182.979 -41.6093
L179.775 -41.6093
L177.968 -41.6093
L170.494 -41.6093
L140.515 -40.3455
L137.968 -40.3455
L122.937 -40.3455
L117.927 -40.3455
L110.535 -40.3455
L102.979 -40.3455
L80.5555 -40.3455
z
" id="C1_0_f3f9a6e943"/>
    </defs>
    <g clip-path="url(#p4c22383844)">
     <use style="fill:#ffba2d;stroke:#ffba2d;stroke-linecap:butt;" x="0.0" xlink:href="#C1_0_f3f9a6e943" y="607.94296875"/>
    </g>
   </g>
   <g id="PolyCollection_3">
    <defs>
     <path d="
M80.5555 -170.557
L80.5555 -40.3455
L102.979 -40.3455
L110.535 -40.3455
L117.927 -40.3455
L122.937 -40.3455
L137.968 -40.3455
L140.515 -40.3455
L170.494 -41.6093
L177.968 -41.6093
L179.775 -41.6093
L182.979 -41.6093
L200.556 -41.6093
L205.402 -41.6093
L220.515 -42.9485
L230.535 -42.9485
L234.888 -42.9485
L237.517 -42.9485
L242.938 -43.5065
L250.494 -43.5065
L252.958 -43.5065
L260.515 -45.2743
L263.307 -45.2743
L270.371 -45.2743
L285.484 -45.2743
L287.948 -48.3991
L290.494 -46.7251
L297.969 -46.7251
L305.443 -46.7251
L320.556 -46.7251
L321.542 -46.7251
L327.948 -46.7251
L347.989 -46.7251
L350.535 -46.7251
L353.082 -46.7251
L357.928 -46.7251
L360.72 -46.7251
L377.969 -47.2831
L380.515 -47.2831
L393.328 -47.2887
L393.575 -47.2942
L397.928 -47.311
L405.484 -47.311
L406.306 -47.2831
L407.948 -47.311
L410.495 -47.311
L415.423 -47.869
L417.969 -48.427
L418.133 -48.3991
L419.858 -48.3991
L420.433 -49.3086
L422.979 -49.3086
L425.772 -49.3365
L427.086 -50.0731
L427.989 -51.4179
L430.536 -52.8798
L433 -54.2692
L434.478 -54.2413
L435.546 -54.2802
L438.01 -54.5148
L439.078 -54.4869
L440.556 -54.18
L445.402 -54.1855
L446.141 -54.1576
L447.948 -56.3338
L450.412 -56.3617
L462.979 -56.3617
L470.536 -56.3617
L475.382 -55.3239
L477.928 -55.3239
L485.402 -55.9153
L487.948 -55.9153
L490.248 -55.9181
L490.495 -55.9321
L491.398 -55.9432
L491.562 -55.9711
L491.645 -56.0548
L492.959 -56.0548
L500.515 -58.6774
L505.361 -59.7934
L507.907 -61.4127
L510.372 -62.1939
L512.918 -62.4729
L513.164 -62.5845
L513.739 -62.6961
L514.15 -62.8077
L514.643 -63.1425
L515.053 -63.2541
L515.3 -63.3657
L515.382 -65.206
L517.107 -65.4292
L517.928 -66.6568
L518.996 -65.5408
L522.117 -65.5408
L522.938 -66.1546
L525.484 -66.1546
L527.949 -66.1546
L530.495 -66.9358
L537.969 -66.9358
L538.133 -66.9358
L540.433 -66.9358
L542.979 -68.0518
L545.443 -73.0738
L547.99 -73.9108
L548.318 -73.9108
L548.565 -73.9112
L550.536 -74.9714
L550.618 -74.4692
L553 -74.4692
L555.875 -74.4692
L559.242 -74.4692
L560.556 -74.6924
L561.46 -74.6924
L562.61 -74.6924
L565.402 -74.6924
L565.895 -74.8207
L566.717 -74.949
L566.799 -75.0774
L567.045 -75.2057
L567.374 -75.3341
L567.456 -75.4624
L567.949 -75.4624
L568.606 -75.9758
L570.002 -76.4891
L570.248 -76.6175
L570.413 -76.8407
L571.234 -77.4824
L571.727 -77.4824
L572.959 -78.2636
L573.698 -78.2636
L575.259 -78.2636
L575.423 -79.3796
L576.573 -79.9376
L577.969 -80.1608
L579.53 -80.7188
L580.515 -81.6674
L582.979 -83.4864
L585.033 -83.5283
L585.279 -83.5701
L585.526 -83.7933
L585.608 -83.7933
L586.265 -83.7933
L586.347 -83.7933
L586.758 -83.7933
L586.84 -83.7933
L587.99 -83.7933
L590.536 -83.5785
L591.932 -90.9441
L593.657 -90.986
L595.382 -90.986
L597.928 -92.2917
L598.832 -92.2917
L599.982 -92.2917
L602.938 -92.3168
L605.403 -92.3168
L610.495 -92.3168
L611.563 -92.3168
L616.244 -92.3168
L616.819 -92.4451
L617.476 -92.4451
L617.969 -92.4326
L619.776 -92.4326
L620.515 -92.4884
L623.062 -94.9268
L624.458 -95.2616
L625.361 -95.5964
L625.444 -95.9312
L626.101 -97.2928
L626.594 -97.5439
L626.758 -97.8787
L626.84 -98.0461
L627.908 -98.4646
L633.986 -98.4646
L635.3 -98.8273
L635.382 -98.8273
L635.875 -98.8552
L645.485 -99.0923
L647.949 -99.282
L650.495 -99.282
L660.433 -99.282
L667.99 -99.282
L680.557 -113.12
L681.214 -113.12
L685.403 -113.12
L687.128 -108.656
L687.456 -109.382
L687.949 -109.382
L694.355 -113.12
L694.355 -281.479
L694.355 -281.479
L687.949 -277.741
L687.456 -277.741
L687.128 -277.015
L685.403 -281.479
L681.214 -281.479
L680.557 -281.479
L667.99 -267.641
L660.433 -267.641
L650.495 -267.641
L647.949 -267.585
L645.485 -267.395
L635.875 -267.158
L635.382 -267.13
L635.3 -266.628
L633.986 -266.265
L627.908 -266.265
L626.84 -265.847
L626.758 -265.68
L626.594 -265.345
L626.101 -265.094
L625.444 -263.732
L625.361 -263.397
L624.458 -263.063
L623.062 -262.728
L620.515 -260.289
L619.776 -254.542
L617.969 -254.542
L617.476 -254.554
L616.819 -248.974
L616.244 -248.846
L611.563 -248.846
L610.495 -248.846
L605.403 -248.846
L602.938 -248.846
L599.982 -248.821
L598.832 -248.821
L597.928 -248.821
L595.382 -247.404
L593.657 -224.86
L591.932 -224.819
L590.536 -217.453
L587.99 -217.668
L586.84 -240.211
L586.758 -240.211
L586.347 -240.211
L586.265 -240.211
L585.608 -240.211
L585.526 -240.211
L585.279 -239.988
L585.033 -239.946
L582.979 -239.904
L580.515 -238.085
L579.53 -237.136
L577.969 -236.578
L576.573 -236.355
L575.423 -235.797
L575.259 -234.681
L573.698 -234.681
L572.959 -234.681
L571.727 -233.9
L571.234 -233.9
L570.413 -233.258
L570.248 -233.035
L570.002 -232.907
L568.606 -232.393
L567.949 -231.88
L567.456 -231.344
L567.374 -231.216
L567.045 -231.088
L566.799 -230.959
L566.717 -230.831
L565.895 -230.703
L565.402 -230.574
L562.61 -230.463
L561.46 -230.463
L560.556 -230.463
L559.242 -236.768
L555.875 -236.768
L553 -236.768
L550.618 -236.768
L550.536 -237.27
L548.565 -236.099
L548.318 -236.098
L547.99 -236.098
L545.443 -235.261
L542.979 -230.239
L540.433 -222.427
L538.133 -222.427
L537.969 -222.368
L530.495 -222.256
L527.949 -222.814
L525.484 -222.814
L522.938 -236.206
L522.117 -235.592
L518.996 -235.592
L517.928 -236.708
L517.107 -235.481
L515.382 -235.258
L515.3 -233.417
L515.053 -233.306
L514.643 -233.194
L514.15 -232.847
L513.739 -232.735
L513.164 -232.623
L512.918 -232.512
L510.372 -210.75
L507.907 -209.969
L505.361 -208.349
L500.515 -207.233
L492.959 -201.821
L491.645 -201.821
L491.562 -201.737
L491.398 -201.709
L490.495 -201.698
L490.248 -201.684
L487.948 -201.681
L485.402 -201.681
L477.928 -201.09
L475.382 -201.036
L470.536 -202.073
L462.979 -201.906
L450.412 -201.906
L447.948 -201.878
L446.141 -199.702
L445.402 -199.73
L440.556 -199.724
L439.078 -197.743
L438.01 -197.771
L435.546 -197.537
L434.478 -197.448
L433 -197.475
L430.536 -196.086
L427.989 -194.624
L427.086 -193.279
L425.772 -192.543
L422.979 -192.515
L420.433 -180.518
L419.858 -194.814
L418.133 -194.814
L417.969 -194.842
L415.423 -194.284
L410.495 -193.726
L407.948 -193.726
L406.306 -193.698
L405.484 -193.726
L397.928 -193.726
L393.575 -193.709
L393.328 -193.703
L380.515 -193.698
L377.969 -193.642
L360.72 -193.084
L357.928 -193.084
L353.082 -193.014
L350.535 -192.903
L347.989 -206.183
L327.948 -206.183
L321.542 -206.183
L320.556 -206.183
L305.443 -218.121
L297.969 -218.121
L290.494 -218.032
L287.948 -219.732
L285.484 -195.403
L270.371 -195.348
L263.307 -195.348
L260.515 -195.348
L252.958 -191.365
L250.494 -203.641
L242.938 -203.641
L237.517 -203.083
L234.888 -196.387
L230.535 -182.995
L220.515 -179.591
L205.402 -178.252
L200.556 -178.252
L182.979 -175.238
L179.775 -175.238
L177.968 -175.238
L170.494 -175.238
L140.515 -172.214
L137.968 -170.707
L122.937 -170.707
L117.927 -170.707
L110.535 -170.707
L102.979 -170.557
L80.5555 -170.557
z
" id="C2_0_a6d7b17b08"/>
    </defs>
    <g clip-path="url(#p4c22383844)">
     <use style="fill:#ed1745;stroke:#ed1745;stroke-linecap:butt;" x="0.0" xlink:href="#C2_0_a6d7b17b08" y="607.94296875"/>
    </g>
   </g>
   <g id="PolyCollection_4">
    <defs>
     <path d="
M80.5555 -434.633
L80.5555 -170.557
L102.979 -170.557
L110.535 -170.707
L117.927 -170.707
L122.937 -170.707
L137.968 -170.707
L140.515 -172.214
L170.494 -175.238
L177.968 -175.238
L179.775 -175.238
L182.979 -175.238
L200.556 -178.252
L205.402 -178.252
L220.515 -179.591
L230.535 -182.995
L234.888 -196.387
L237.517 -203.083
L242.938 -203.641
L250.494 -203.641
L252.958 -191.365
L260.515 -195.348
L263.307 -195.348
L270.371 -195.348
L285.484 -195.403
L287.948 -219.732
L290.494 -218.032
L297.969 -218.121
L305.443 -218.121
L320.556 -206.183
L321.542 -206.183
L327.948 -206.183
L347.989 -206.183
L350.535 -192.903
L353.082 -193.014
L357.928 -193.084
L360.72 -193.084
L377.969 -193.642
L380.515 -193.698
L393.328 -193.703
L393.575 -193.709
L397.928 -193.726
L405.484 -193.726
L406.306 -193.698
L407.948 -193.726
L410.495 -193.726
L415.423 -194.284
L417.969 -194.842
L418.133 -194.814
L419.858 -194.814
L420.433 -180.518
L422.979 -192.515
L425.772 -192.543
L427.086 -193.279
L427.989 -194.624
L430.536 -196.086
L433 -197.475
L434.478 -197.448
L435.546 -197.537
L438.01 -197.771
L439.078 -197.743
L440.556 -199.724
L445.402 -199.73
L446.141 -199.702
L447.948 -201.878
L450.412 -201.906
L462.979 -201.906
L470.536 -202.073
L475.382 -201.036
L477.928 -201.09
L485.402 -201.681
L487.948 -201.681
L490.248 -201.684
L490.495 -201.698
L491.398 -201.709
L491.562 -201.737
L491.645 -201.821
L492.959 -201.821
L500.515 -207.233
L505.361 -208.349
L507.907 -209.969
L510.372 -210.75
L512.918 -232.512
L513.164 -232.623
L513.739 -232.735
L514.15 -232.847
L514.643 -233.194
L515.053 -233.306
L515.3 -233.417
L515.382 -235.258
L517.107 -235.481
L517.928 -236.708
L518.996 -235.592
L522.117 -235.592
L522.938 -236.206
L525.484 -222.814
L527.949 -222.814
L530.495 -222.256
L537.969 -222.368
L538.133 -222.427
L540.433 -222.427
L542.979 -230.239
L545.443 -235.261
L547.99 -236.098
L548.318 -236.098
L548.565 -236.099
L550.536 -237.27
L550.618 -236.768
L553 -236.768
L555.875 -236.768
L559.242 -236.768
L560.556 -230.463
L561.46 -230.463
L562.61 -230.463
L565.402 -230.574
L565.895 -230.703
L566.717 -230.831
L566.799 -230.959
L567.045 -231.088
L567.374 -231.216
L567.456 -231.344
L567.949 -231.88
L568.606 -232.393
L570.002 -232.907
L570.248 -233.035
L570.413 -233.258
L571.234 -233.9
L571.727 -233.9
L572.959 -234.681
L573.698 -234.681
L575.259 -234.681
L575.423 -235.797
L576.573 -236.355
L577.969 -236.578
L579.53 -237.136
L580.515 -238.085
L582.979 -239.904
L585.033 -239.946
L585.279 -239.988
L585.526 -240.211
L585.608 -240.211
L586.265 -240.211
L586.347 -240.211
L586.758 -240.211
L586.84 -240.211
L587.99 -217.668
L590.536 -217.453
L591.932 -224.819
L593.657 -224.86
L595.382 -247.404
L597.928 -248.821
L598.832 -248.821
L599.982 -248.821
L602.938 -248.846
L605.403 -248.846
L610.495 -248.846
L611.563 -248.846
L616.244 -248.846
L616.819 -248.974
L617.476 -254.554
L617.969 -254.542
L619.776 -254.542
L620.515 -260.289
L623.062 -262.728
L624.458 -263.063
L625.361 -263.397
L625.444 -263.732
L626.101 -265.094
L626.594 -265.345
L626.758 -265.68
L626.84 -265.847
L627.908 -266.265
L633.986 -266.265
L635.3 -266.628
L635.382 -267.13
L635.875 -267.158
L645.485 -267.395
L647.949 -267.585
L650.495 -267.641
L660.433 -267.641
L667.99 -267.641
L680.557 -281.479
L681.214 -281.479
L685.403 -281.479
L687.128 -277.015
L687.456 -277.741
L687.949 -277.741
L694.355 -281.479
L694.355 -586.08
L694.355 -586.08
L687.949 -578.162
L687.456 -569.234
L687.128 -568.508
L685.403 -572.972
L681.214 -572.972
L680.557 -581.9
L667.99 -568.062
L660.433 -568.062
L650.495 -568.062
L647.949 -568.006
L645.485 -567.816
L635.875 -567.579
L635.382 -567.551
L635.3 -567.049
L633.986 -566.686
L627.908 -566.575
L626.84 -566.156
L626.758 -565.989
L626.594 -565.654
L626.101 -565.403
L625.444 -564.041
L625.361 -563.707
L624.458 -563.372
L623.062 -563.037
L620.515 -560.599
L619.776 -554.851
L617.969 -554.801
L617.476 -554.813
L616.819 -549.233
L616.244 -549.105
L611.563 -548.994
L610.495 -543.414
L605.403 -543.441
L602.938 -543.441
L599.982 -543.416
L598.832 -548.438
L597.928 -542.858
L595.382 -541.441
L593.657 -518.898
L591.932 -518.856
L590.536 -511.49
L587.99 -511.37
L586.84 -533.914
L586.758 -499.652
L586.347 -499.652
L586.265 -499.652
L585.608 -538.936
L585.526 -533.356
L585.279 -533.132
L585.033 -533.091
L582.979 -533.049
L580.515 -531.23
L579.53 -530.281
L577.969 -529.723
L576.573 -528.97
L575.423 -528.412
L575.259 -527.296
L573.698 -532.318
L572.959 -526.738
L571.727 -525.956
L571.234 -526.375
L570.413 -525.733
L570.248 -525.51
L570.002 -525.382
L568.606 -524.868
L567.949 -524.355
L567.456 -523.819
L567.374 -518.111
L567.045 -517.983
L566.799 -517.854
L566.717 -517.726
L565.895 -517.598
L565.402 -517.469
L562.61 -517.358
L561.46 -522.38
L560.556 -516.8
L559.242 -523.105
L555.875 -523.183
L553 -528.205
L550.618 -528.205
L550.536 -528.707
L548.565 -527.536
L548.318 -527.535
L547.99 -532.557
L545.443 -531.72
L542.979 -526.698
L540.433 -518.886
L538.133 -518.443
L537.969 -518.383
L530.495 -518.272
L527.949 -518.83
L525.484 -518.83
L522.938 -532.222
L522.117 -531.608
L518.996 -531.608
L517.928 -532.724
L517.107 -531.496
L515.382 -531.273
L515.3 -529.433
L515.053 -529.321
L514.643 -529.21
L514.15 -528.862
L513.739 -528.75
L513.164 -528.639
L512.918 -528.527
L510.372 -506.765
L507.907 -505.984
L505.361 -504.365
L500.515 -503.249
L492.959 -497.803
L491.645 -497.75
L491.562 -497.666
L491.398 -497.638
L490.495 -497.627
L490.248 -497.613
L487.948 -497.61
L485.402 -497.663
L477.928 -497.072
L475.382 -497.017
L470.536 -498.055
L462.979 -497.854
L450.412 -497.815
L447.948 -497.787
L446.141 -495.65
L445.402 -495.678
L440.556 -495.673
L439.078 -493.658
L438.01 -493.686
L435.546 -493.451
L434.478 -493.362
L433 -493.39
L430.536 -492.001
L427.989 -490.539
L427.086 -489.194
L425.772 -488.458
L422.979 -488.43
L420.433 -476.433
L419.858 -490.729
L418.133 -490.699
L417.969 -490.726
L415.423 -490.168
L410.495 -489.61
L407.948 -488.969
L406.306 -488.941
L405.484 -488.969
L397.928 -489.365
L393.575 -489.348
L393.328 -489.343
L380.515 -489.337
L377.969 -489.208
L360.72 -488.65
L357.928 -474.7
L353.082 -474.63
L350.535 -474.518
L347.989 -487.631
L327.948 -487.352
L321.542 -486.934
L320.556 -487.352
L305.443 -499.291
L297.969 -499.123
L290.494 -499.033
L287.948 -500.469
L285.484 -476.14
L270.371 -475.833
L263.307 -475.592
L260.515 -475.592
L252.958 -471.609
L250.494 -483.885
L242.938 -479.868
L237.517 -479.31
L234.888 -472.614
L230.535 -459.222
L220.515 -456.599
L205.402 -455.26
L200.556 -448.564
L182.979 -445.551
L179.775 -449.568
L177.968 -449.565
L170.494 -456.261
L140.515 -450.898
L137.968 -449.224
L122.937 -449.202
L117.927 -447.082
L110.535 -448.153
L102.979 -441.329
L80.5555 -434.633
z
" id="C3_0_08aa5a8489"/>
    </defs>
    <g clip-path="url(#p4c22383844)">
     <use style="fill:#0f7baf;stroke:#0f7baf;stroke-linecap:butt;" x="0.0" xlink:href="#C3_0_08aa5a8489" y="607.94296875"/>
    </g>
   </g>
   <g id="line2d_1">
    <path clip-path="url(#p4c22383844)" d="
M80.5555 585.384
L140.515 585.384
L182.979 585.169
L252.958 585.169
L260.515 583.402
L410.495 583.374
L415.423 582.816
L418.133 582.286
L419.858 582.286
L420.433 581.376
L425.772 581.348
L427.086 580.612
L427.989 579.267
L433 576.416
L435.546 576.405
L438.01 576.17
L440.556 576.17
L470.536 576.164
L475.382 577.202
L477.928 577.202
L485.402 576.611
L491.562 576.555
L491.645 576.471
L500.515 576.471
L505.361 575.355
L507.907 573.736
L510.372 572.955
L513.164 572.564
L514.15 572.341
L514.643 572.006
L515.3 571.783
L515.382 569.943
L517.107 569.72
L517.928 568.492
L518.996 569.608
L522.117 569.608
L522.938 568.994
L527.949 568.994
L530.495 568.213
L540.433 568.213
L542.979 567.097
L559.242 567.097
L560.556 566.873
L565.402 566.873
L567.045 566.36
L567.949 566.103
L568.606 565.59
L570.248 564.948
L570.413 564.725
L571.234 564.083
L571.727 564.083
L572.959 563.302
L575.259 563.302
L575.423 562.186
L576.573 561.628
L577.969 561.405
L579.53 560.847
L580.515 560.289
L582.979 558.47
L585.279 558.386
L585.608 558.163
L587.99 558.163
L590.536 558.378
L616.244 558.311
L616.819 558.183
L620.515 558.139
L623.062 555.701
L624.458 555.366
L625.361 555.031
L625.444 554.696
L626.101 553.335
L626.594 553.084
L626.84 552.582
L627.908 552.163
L633.986 552.163
L635.382 551.8
L635.875 551.773
L645.485 551.535
L647.949 551.346
L694.355 551.346
L694.355 551.346" style="fill:none;stroke:#61bc3a;"/>
   </g>
   <g id="line2d_2">
    <path clip-path="url(#p4c22383844)" d="
M80.5555 567.598
L140.515 567.598
L170.494 566.334
L205.402 566.334
L220.515 564.994
L237.517 564.994
L242.938 564.436
L252.958 564.436
L260.515 562.669
L285.484 562.669
L287.948 559.544
L290.494 561.218
L360.72 561.218
L380.515 560.66
L410.495 560.632
L415.423 560.074
L418.133 559.544
L419.858 559.544
L420.433 558.634
L425.772 558.606
L427.086 557.87
L427.989 556.525
L433 553.674
L435.546 553.663
L438.01 553.428
L439.078 553.456
L440.556 553.763
L446.141 553.785
L447.948 551.609
L450.412 551.581
L470.536 551.581
L475.382 552.619
L477.928 552.619
L485.402 552.028
L491.562 551.972
L491.645 551.888
L492.959 551.888
L500.515 549.266
L505.361 548.15
L507.907 546.53
L510.372 545.749
L513.164 545.358
L514.15 545.135
L514.643 544.8
L515.3 544.577
L515.382 542.737
L517.107 542.514
L517.928 541.286
L518.996 542.402
L522.117 542.402
L522.938 541.788
L527.949 541.788
L530.495 541.007
L540.433 541.007
L542.979 539.891
L545.443 534.869
L548.318 534.032
L548.565 534.032
L550.536 532.972
L550.618 533.474
L559.242 533.474
L560.556 533.251
L565.402 533.251
L567.045 532.737
L567.949 532.481
L568.606 531.967
L570.248 531.326
L570.413 531.102
L571.234 530.461
L571.727 530.461
L572.959 529.679
L575.259 529.679
L575.423 528.563
L576.573 528.005
L577.969 527.782
L579.53 527.224
L580.515 526.276
L582.979 524.457
L585.279 524.373
L585.608 524.15
L587.99 524.15
L590.536 524.364
L591.932 516.999
L595.382 516.957
L597.928 515.651
L616.244 515.626
L616.819 515.498
L620.515 515.455
L623.062 513.016
L624.458 512.681
L625.361 512.347
L625.444 512.012
L626.101 510.65
L626.594 510.399
L626.84 509.897
L627.908 509.478
L633.986 509.478
L635.382 509.116
L635.875 509.088
L645.485 508.851
L647.949 508.661
L667.99 508.661
L680.557 494.823
L685.403 494.823
L687.128 499.287
L687.456 498.561
L687.949 498.561
L694.355 494.823
L694.355 494.823" style="fill:none;stroke:#ffba2d;"/>
   </g>
   <g id="line2d_3">
    <path clip-path="url(#p4c22383844)" d="
M80.5555 437.386
L102.979 437.386
L110.535 437.236
L137.968 437.236
L140.515 435.729
L170.494 432.705
L182.979 432.705
L200.556 429.691
L205.402 429.691
L220.515 428.352
L230.535 424.948
L234.888 411.556
L237.517 404.86
L242.938 404.302
L250.494 404.302
L252.958 416.578
L260.515 412.595
L285.484 412.54
L287.948 388.211
L290.494 389.911
L305.443 389.822
L320.556 401.76
L347.989 401.76
L350.535 415.04
L353.082 414.929
L360.72 414.859
L380.515 414.245
L410.495 414.217
L415.423 413.659
L418.133 413.129
L419.858 413.129
L420.433 427.425
L422.979 415.428
L425.772 415.4
L427.086 414.664
L427.989 413.319
L433 410.468
L435.546 410.406
L438.01 410.172
L439.078 410.2
L440.556 408.219
L446.141 408.241
L447.948 406.065
L450.412 406.037
L462.979 406.037
L470.536 405.87
L475.382 406.907
L477.928 406.853
L485.402 406.262
L491.562 406.206
L491.645 406.122
L492.959 406.122
L500.515 400.71
L505.361 399.594
L507.907 397.974
L510.372 397.193
L512.918 375.431
L513.164 375.32
L514.15 375.096
L514.643 374.749
L515.3 374.526
L515.382 372.685
L517.107 372.462
L517.928 371.235
L518.996 372.351
L522.117 372.351
L522.938 371.737
L525.484 385.129
L527.949 385.129
L530.495 385.687
L540.433 385.516
L542.979 377.704
L545.443 372.682
L548.318 371.845
L548.565 371.844
L550.536 370.673
L550.618 371.175
L559.242 371.175
L560.556 377.48
L562.61 377.48
L565.895 377.24
L566.717 377.112
L566.799 376.984
L567.456 376.599
L567.949 376.063
L568.606 375.549
L570.248 374.908
L570.413 374.685
L571.234 374.043
L571.727 374.043
L572.959 373.262
L575.259 373.262
L575.423 372.146
L576.573 371.588
L577.969 371.364
L579.53 370.806
L580.515 369.858
L582.979 368.039
L585.279 367.955
L585.608 367.732
L586.84 367.732
L587.99 390.275
L590.536 390.49
L591.932 383.124
L593.657 383.082
L595.382 360.539
L597.928 359.122
L616.244 359.097
L616.819 358.969
L617.476 353.389
L619.776 353.401
L620.515 347.654
L623.062 345.215
L624.458 344.88
L625.361 344.546
L625.444 344.211
L626.101 342.849
L626.594 342.598
L626.84 342.096
L627.908 341.677
L633.986 341.677
L635.3 341.315
L635.382 340.813
L635.875 340.785
L645.485 340.548
L647.949 340.358
L650.495 340.302
L667.99 340.302
L680.557 326.464
L685.403 326.464
L687.128 330.928
L687.456 330.202
L687.949 330.202
L694.355 326.464
L694.355 326.464" style="fill:none;stroke:#ed1745;"/>
   </g>
   <g id="line2d_4">
    <path clip-path="url(#p4c22383844)" d="
M80.5555 173.31
L102.979 166.614
L110.535 159.79
L117.927 160.861
L122.937 158.741
L137.968 158.719
L140.515 157.045
L170.494 151.682
L177.968 158.378
L179.775 158.375
L182.979 162.392
L200.556 159.379
L205.402 152.683
L220.515 151.344
L230.535 148.721
L234.888 135.329
L237.517 128.633
L242.938 128.075
L250.494 124.058
L252.958 136.334
L260.515 132.351
L263.307 132.351
L270.371 132.11
L285.484 131.803
L287.948 107.474
L290.494 108.91
L305.443 108.652
L320.556 120.591
L321.542 121.009
L327.948 120.591
L347.989 120.312
L350.535 133.425
L353.082 133.313
L357.928 133.243
L360.72 119.293
L380.515 118.606
L397.928 118.578
L406.306 119.002
L407.948 118.974
L410.495 118.333
L415.423 117.775
L418.133 117.244
L419.858 117.214
L420.433 131.51
L422.979 119.513
L425.772 119.485
L427.086 118.749
L427.989 117.404
L433 114.553
L435.546 114.491
L438.01 114.257
L439.078 114.285
L440.556 112.27
L446.141 112.293
L447.948 110.156
L470.536 109.888
L475.382 110.926
L477.928 110.871
L485.402 110.28
L491.398 110.305
L492.959 110.14
L500.515 104.694
L505.361 103.578
L507.907 101.959
L510.372 101.178
L512.918 79.4158
L513.164 79.3042
L514.15 79.081
L514.643 78.7334
L515.3 78.5102
L515.382 76.6699
L517.107 76.4467
L517.928 75.2191
L518.996 76.3351
L522.117 76.3351
L522.938 75.7213
L525.484 89.1133
L527.949 89.1133
L530.495 89.6713
L538.133 89.5003
L540.433 89.0567
L542.979 81.2447
L545.443 76.2227
L547.99 75.3857
L548.318 80.4077
L548.565 80.4073
L550.536 79.2355
L550.618 79.7377
L553 79.7377
L555.875 84.7597
L559.242 84.8379
L560.556 91.1433
L561.46 85.5633
L562.61 90.5853
L565.895 90.3453
L566.717 90.217
L566.799 90.0886
L567.374 89.832
L567.456 84.1236
L567.949 83.5879
L568.606 83.0746
L570.248 82.4329
L570.413 82.2097
L571.234 81.568
L571.727 81.9865
L572.959 81.2053
L573.698 75.6253
L575.259 80.6473
L575.423 79.5313
L577.969 78.22
L579.53 77.662
L580.515 76.7134
L582.979 74.8943
L585.279 74.8106
L585.526 74.5874
L585.608 69.0074
L586.347 108.291
L586.758 108.291
L586.84 74.0294
L587.99 96.5726
L590.536 96.4526
L591.932 89.087
L593.657 89.0452
L595.382 66.502
L597.928 65.0847
L598.832 59.5047
L599.982 64.5267
L610.495 64.5295
L611.563 58.9495
L616.244 58.8379
L616.819 58.7095
L617.476 53.1295
L619.776 53.0919
L620.515 47.3445
L623.062 44.906
L624.458 44.5712
L625.361 44.2364
L625.444 43.9016
L626.101 42.5401
L626.594 42.289
L626.84 41.7868
L627.908 41.3683
L633.986 41.2567
L635.3 40.894
L635.382 40.3918
L635.875 40.3639
L645.485 40.1267
L647.949 39.937
L650.495 39.8812
L667.99 39.8812
L680.557 26.0428
L681.214 34.9708
L685.403 34.9708
L687.128 39.4348
L687.456 38.7094
L687.949 29.7814
L694.355 21.8634
L694.355 21.8634" style="fill:none;stroke:#0f7baf;"/>
   </g>
   <g id="matplotlib.axis_1">
    <g id="xtick_1">
     <g id="line2d_5">
      <path clip-path="url(#p4c22383844)" d="
M110.535 585.397
L110.535 27.3969" style="fill:none;stroke:#000000;stroke-dasharray:1.000000,3.000000;stroke-dashoffset:0.0;stroke-linecap:butt;stroke-width:0.5;"/>
     </g>
     <g id="line2d_6">
      <defs>
       <path d="
M0 0
L0 -4" id="mcb557df647" style="stroke:#000000;stroke-linecap:butt;stroke-width:0.5;"/>
      </defs>
      <g>
       <use style="stroke:#000000;stroke-linecap:butt;stroke-width:0.5;" x="110.534995045" xlink:href="#mcb557df647" y="585.396875"/>
      </g>
     </g>
     <g id="line2d_7">
      <defs>
       <path d="
M0 0
L0 4" id="mdad270ee8e" style="stroke:#000000;stroke-linecap:butt;stroke-width:0.5;"/>
      </defs>
      <g>
       <use style="stroke:#000000;stroke-linecap:butt;stroke-width:0.5;" x="110.534995045" xlink:href="#mdad270ee8e" y="27.396875"/>
      </g>
     </g>
     <g id="text_1">
      <!-- 1994 -->
      <defs>
       <path d="
M10.0156 1.60938
L10.0156 15.0938
Q14.5 12.9844 18.5938 11.9375
Q22.7031 10.8906 26.7031 10.8906
Q35.1094 10.8906 39.7969 15.5469
Q44.4844 20.2188 45.3125 29.3906
Q42 26.9531 38.2344 25.7344
Q34.4688 24.5156 30.0781 24.5156
Q18.8906 24.5156 12.0312 31.0312
Q5.17188 37.5469 5.17188 48.1875
Q5.17188 59.9688 12.8125 67.0469
Q20.4531 74.125 33.2969 74.125
Q47.5625 74.125 55.375 64.5
Q63.1875 54.8906 63.1875 37.3125
Q63.1875 19.2344 54.0469 8.90625
Q44.9219 -1.42188 29 -1.42188
Q23.875 -1.42188 19.1875 -0.65625
Q14.5 0.09375 10.0156 1.60938
M33.2031 36.7188
Q38.1406 36.7188 40.625 39.9062
Q43.1094 43.1094 43.1094 49.5156
Q43.1094 55.8594 40.625 59.0781
Q38.1406 62.3125 33.2031 62.3125
Q28.2656 62.3125 25.7812 59.0781
Q23.2969 55.8594 23.2969 49.5156
Q23.2969 43.1094 25.7812 39.9062
Q28.2656 36.7188 33.2031 36.7188" id="BitstreamVeraSans-Bold-39"/>
       <path d="
M11.7188 12.9844
L28.3281 12.9844
L28.3281 60.1094
L11.2812 56.5938
L11.2812 69.3906
L28.2188 72.9062
L46.0938 72.9062
L46.0938 12.9844
L62.7031 12.9844
L62.7031 0
L11.7188 0
z
" id="BitstreamVeraSans-Bold-31"/>
       <path d="
M36.8125 57.4219
L16.2188 26.9062
L36.8125 26.9062
z

M33.6875 72.9062
L54.5938 72.9062
L54.5938 26.9062
L64.9844 26.9062
L64.9844 13.2812
L54.5938 13.2812
L54.5938 0
L36.8125 0
L36.8125 13.2812
L4.5 13.2812
L4.5 29.3906
z
" id="BitstreamVeraSans-Bold-34"/>
      </defs>
      <g transform="translate(90.8521825447 600.515625)scale(0.15 -0.15)">
       <use xlink:href="#BitstreamVeraSans-Bold-31"/>
       <use x="69.580078125" xlink:href="#BitstreamVeraSans-Bold-39"/>
       <use x="139.16015625" xlink:href="#BitstreamVeraSans-Bold-39"/>
       <use x="208.740234375" xlink:href="#BitstreamVeraSans-Bold-34"/>
      </g>
     </g>
    </g>
    <g id="xtick_2">
     <g id="line2d_8">
      <path clip-path="url(#p4c22383844)" d="
M170.494 585.397
L170.494 27.3969" style="fill:none;stroke:#000000;stroke-dasharray:1.000000,3.000000;stroke-dashoffset:0.0;stroke-linecap:butt;stroke-width:0.5;"/>
     </g>
     <g id="line2d_9">
      <g>
       <use style="stroke:#000000;stroke-linecap:butt;stroke-width:0.5;" x="170.494047634" xlink:href="#mcb557df647" y="585.396875"/>
      </g>
     </g>
     <g id="line2d_10">
      <g>
       <use style="stroke:#000000;stroke-linecap:butt;stroke-width:0.5;" x="170.494047634" xlink:href="#mdad270ee8e" y="27.396875"/>
      </g>
     </g>
     <g id="text_2">
      <!-- 1996 -->
      <defs>
       <path d="
M36.1875 35.9844
Q31.25 35.9844 28.7812 32.7812
Q26.3125 29.5938 26.3125 23.1875
Q26.3125 16.7969 28.7812 13.5938
Q31.25 10.4062 36.1875 10.4062
Q41.1562 10.4062 43.625 13.5938
Q46.0938 16.7969 46.0938 23.1875
Q46.0938 29.5938 43.625 32.7812
Q41.1562 35.9844 36.1875 35.9844
M59.4219 71
L59.4219 57.5156
Q54.7812 59.7188 50.6719 60.7656
Q46.5781 61.8125 42.6719 61.8125
Q34.2812 61.8125 29.5938 57.1406
Q24.9062 52.4844 24.125 43.3125
Q27.3438 45.7031 31.0938 46.8906
Q34.8594 48.0938 39.3125 48.0938
Q50.4844 48.0938 57.3438 41.5469
Q64.2031 35.0156 64.2031 24.4219
Q64.2031 12.7031 56.5312 5.64062
Q48.875 -1.42188 35.9844 -1.42188
Q21.7812 -1.42188 13.9844 8.17188
Q6.20312 17.7812 6.20312 35.4062
Q6.20312 53.4688 15.3125 63.7969
Q24.4219 74.125 40.2812 74.125
Q45.3125 74.125 50.0469 73.3438
Q54.7812 72.5625 59.4219 71" id="BitstreamVeraSans-Bold-36"/>
      </defs>
      <g transform="translate(150.869828884 600.515625)scale(0.15 -0.15)">
       <use xlink:href="#BitstreamVeraSans-Bold-31"/>
       <use x="69.580078125" xlink:href="#BitstreamVeraSans-Bold-39"/>
       <use x="139.16015625" xlink:href="#BitstreamVeraSans-Bold-39"/>
       <use x="208.740234375" xlink:href="#BitstreamVeraSans-Bold-36"/>
      </g>
     </g>
    </g>
    <g id="xtick_3">
     <g id="line2d_11">
      <path clip-path="url(#p4c22383844)" d="
M230.535 585.397
L230.535 27.3969" style="fill:none;stroke:#000000;stroke-dasharray:1.000000,3.000000;stroke-dashoffset:0.0;stroke-linecap:butt;stroke-width:0.5;"/>
     </g>
     <g id="line2d_12">
      <g>
       <use style="stroke:#000000;stroke-linecap:butt;stroke-width:0.5;" x="230.535235912" xlink:href="#mcb557df647" y="585.396875"/>
      </g>
     </g>
     <g id="line2d_13">
      <g>
       <use style="stroke:#000000;stroke-linecap:butt;stroke-width:0.5;" x="230.535235912" xlink:href="#mdad270ee8e" y="27.396875"/>
      </g>
     </g>
     <g id="text_3">
      <!-- 1998 -->
      <defs>
       <path d="
M34.8125 32.625
Q29.5469 32.625 26.7031 29.7344
Q23.875 26.8594 23.875 21.4844
Q23.875 16.1094 26.7031 13.25
Q29.5469 10.4062 34.8125 10.4062
Q40.0469 10.4062 42.8281 13.25
Q45.6094 16.1094 45.6094 21.4844
Q45.6094 26.9062 42.8281 29.7656
Q40.0469 32.625 34.8125 32.625
M21.0938 38.8125
Q14.4531 40.8281 11.0781 44.9688
Q7.71875 49.125 7.71875 55.3281
Q7.71875 64.5469 14.5938 69.375
Q21.4844 74.2188 34.8125 74.2188
Q48.0469 74.2188 54.9219 69.4062
Q61.8125 64.5938 61.8125 55.3281
Q61.8125 49.125 58.4219 44.9688
Q55.0312 40.8281 48.3906 38.8125
Q55.8125 36.7656 59.5938 32.1562
Q63.375 27.5469 63.375 20.5156
Q63.375 9.67188 56.1719 4.125
Q48.9688 -1.42188 34.8125 -1.42188
Q20.6094 -1.42188 13.3594 4.125
Q6.10938 9.67188 6.10938 20.5156
Q6.10938 27.5469 9.89062 32.1562
Q13.6719 36.7656 21.0938 38.8125
M25.4844 53.4219
Q25.4844 49.0781 27.9062 46.7344
Q30.3281 44.3906 34.8125 44.3906
Q39.2031 44.3906 41.5938 46.7344
Q44 49.0781 44 53.4219
Q44 57.7656 41.5938 60.0781
Q39.2031 62.4062 34.8125 62.4062
Q30.3281 62.4062 27.9062 60.0625
Q25.4844 57.7188 25.4844 53.4219" id="BitstreamVeraSans-Bold-38"/>
      </defs>
      <g transform="translate(210.973126537 600.5296875)scale(0.15 -0.15)">
       <use xlink:href="#BitstreamVeraSans-Bold-31"/>
       <use x="69.580078125" xlink:href="#BitstreamVeraSans-Bold-39"/>
       <use x="139.16015625" xlink:href="#BitstreamVeraSans-Bold-39"/>
       <use x="208.740234375" xlink:href="#BitstreamVeraSans-Bold-38"/>
      </g>
     </g>
    </g>
    <g id="xtick_4">
     <g id="line2d_14">
      <path clip-path="url(#p4c22383844)" d="
M290.494 585.397
L290.494 27.3969" style="fill:none;stroke:#000000;stroke-dasharray:1.000000,3.000000;stroke-dashoffset:0.0;stroke-linecap:butt;stroke-width:0.5;"/>
     </g>
     <g id="line2d_15">
      <g>
       <use style="stroke:#000000;stroke-linecap:butt;stroke-width:0.5;" x="290.494288501" xlink:href="#mcb557df647" y="585.396875"/>
      </g>
     </g>
     <g id="line2d_16">
      <g>
       <use style="stroke:#000000;stroke-linecap:butt;stroke-width:0.5;" x="290.494288501" xlink:href="#mdad270ee8e" y="27.396875"/>
      </g>
     </g>
     <g id="text_4">
      <!-- 2000 -->
      <defs>
       <path d="
M46 36.5312
Q46 50.2031 43.4375 55.7812
Q40.875 61.375 34.8125 61.375
Q28.7656 61.375 26.1719 55.7812
Q23.5781 50.2031 23.5781 36.5312
Q23.5781 22.7031 26.1719 17.0312
Q28.7656 11.375 34.8125 11.375
Q40.8281 11.375 43.4062 17.0312
Q46 22.7031 46 36.5312
M64.7969 36.375
Q64.7969 18.2656 56.9844 8.42188
Q49.1719 -1.42188 34.8125 -1.42188
Q20.4062 -1.42188 12.5938 8.42188
Q4.78125 18.2656 4.78125 36.375
Q4.78125 54.5469 12.5938 64.375
Q20.4062 74.2188 34.8125 74.2188
Q49.1719 74.2188 56.9844 64.375
Q64.7969 54.5469 64.7969 36.375" id="BitstreamVeraSans-Bold-30"/>
       <path d="
M28.8125 13.8125
L60.8906 13.8125
L60.8906 0
L7.90625 0
L7.90625 13.8125
L34.5156 37.3125
Q38.0938 40.5312 39.7969 43.6094
Q41.5 46.6875 41.5 50
Q41.5 55.125 38.0625 58.25
Q34.625 61.375 28.9062 61.375
Q24.5156 61.375 19.2812 59.5
Q14.0625 57.625 8.10938 53.9062
L8.10938 69.9219
Q14.4531 72.0156 20.6562 73.1094
Q26.8594 74.2188 32.8125 74.2188
Q45.9062 74.2188 53.1562 68.4531
Q60.4062 62.7031 60.4062 52.3906
Q60.4062 46.4375 57.3281 41.2812
Q54.25 36.1406 44.3906 27.4844
z
" id="BitstreamVeraSans-Bold-32"/>
      </defs>
      <g transform="translate(270.572413501 600.5296875)scale(0.15 -0.15)">
       <use xlink:href="#BitstreamVeraSans-Bold-32"/>
       <use x="69.580078125" xlink:href="#BitstreamVeraSans-Bold-30"/>
       <use x="139.16015625" xlink:href="#BitstreamVeraSans-Bold-30"/>
       <use x="208.740234375" xlink:href="#BitstreamVeraSans-Bold-30"/>
      </g>
     </g>
    </g>
    <g id="xtick_5">
     <g id="line2d_17">
      <path clip-path="url(#p4c22383844)" d="
M350.535 585.397
L350.535 27.3969" style="fill:none;stroke:#000000;stroke-dasharray:1.000000,3.000000;stroke-dashoffset:0.0;stroke-linecap:butt;stroke-width:0.5;"/>
     </g>
     <g id="line2d_18">
      <g>
       <use style="stroke:#000000;stroke-linecap:butt;stroke-width:0.5;" x="350.535476779" xlink:href="#mcb557df647" y="585.396875"/>
      </g>
     </g>
     <g id="line2d_19">
      <g>
       <use style="stroke:#000000;stroke-linecap:butt;stroke-width:0.5;" x="350.535476779" xlink:href="#mdad270ee8e" y="27.396875"/>
      </g>
     </g>
     <g id="text_5">
      <!-- 2002 -->
      <g transform="translate(330.906570529 600.5296875)scale(0.15 -0.15)">
       <use xlink:href="#BitstreamVeraSans-Bold-32"/>
       <use x="69.580078125" xlink:href="#BitstreamVeraSans-Bold-30"/>
       <use x="139.16015625" xlink:href="#BitstreamVeraSans-Bold-30"/>
       <use x="208.740234375" xlink:href="#BitstreamVeraSans-Bold-32"/>
      </g>
     </g>
    </g>
    <g id="xtick_6">
     <g id="line2d_20">
      <path clip-path="url(#p4c22383844)" d="
M410.495 585.397
L410.495 27.3969" style="fill:none;stroke:#000000;stroke-dasharray:1.000000,3.000000;stroke-dashoffset:0.0;stroke-linecap:butt;stroke-width:0.5;"/>
     </g>
     <g id="line2d_21">
      <g>
       <use style="stroke:#000000;stroke-linecap:butt;stroke-width:0.5;" x="410.494529368" xlink:href="#mcb557df647" y="585.396875"/>
      </g>
     </g>
     <g id="line2d_22">
      <g>
       <use style="stroke:#000000;stroke-linecap:butt;stroke-width:0.5;" x="410.494529368" xlink:href="#mdad270ee8e" y="27.396875"/>
      </g>
     </g>
     <g id="text_6">
      <!-- 2004 -->
      <g transform="translate(390.558591868 600.5296875)scale(0.15 -0.15)">
       <use xlink:href="#BitstreamVeraSans-Bold-32"/>
       <use x="69.580078125" xlink:href="#BitstreamVeraSans-Bold-30"/>
       <use x="139.16015625" xlink:href="#BitstreamVeraSans-Bold-30"/>
       <use x="208.740234375" xlink:href="#BitstreamVeraSans-Bold-34"/>
      </g>
     </g>
    </g>
    <g id="xtick_7">
     <g id="line2d_23">
      <path clip-path="url(#p4c22383844)" d="
M470.536 585.397
L470.536 27.3969" style="fill:none;stroke:#000000;stroke-dasharray:1.000000,3.000000;stroke-dashoffset:0.0;stroke-linecap:butt;stroke-width:0.5;"/>
     </g>
     <g id="line2d_24">
      <g>
       <use style="stroke:#000000;stroke-linecap:butt;stroke-width:0.5;" x="470.535717646" xlink:href="#mcb557df647" y="585.396875"/>
      </g>
     </g>
     <g id="line2d_25">
      <g>
       <use style="stroke:#000000;stroke-linecap:butt;stroke-width:0.5;" x="470.535717646" xlink:href="#mdad270ee8e" y="27.396875"/>
      </g>
     </g>
     <g id="text_7">
      <!-- 2006 -->
      <g transform="translate(450.658373896 600.5296875)scale(0.15 -0.15)">
       <use xlink:href="#BitstreamVeraSans-Bold-32"/>
       <use x="69.580078125" xlink:href="#BitstreamVeraSans-Bold-30"/>
       <use x="139.16015625" xlink:href="#BitstreamVeraSans-Bold-30"/>
       <use x="208.740234375" xlink:href="#BitstreamVeraSans-Bold-36"/>
      </g>
     </g>
    </g>
    <g id="xtick_8">
     <g id="line2d_26">
      <path clip-path="url(#p4c22383844)" d="
M530.495 585.397
L530.495 27.3969" style="fill:none;stroke:#000000;stroke-dasharray:1.000000,3.000000;stroke-dashoffset:0.0;stroke-linecap:butt;stroke-width:0.5;"/>
     </g>
     <g id="line2d_27">
      <g>
       <use style="stroke:#000000;stroke-linecap:butt;stroke-width:0.5;" x="530.494770235" xlink:href="#mcb557df647" y="585.396875"/>
      </g>
     </g>
     <g id="line2d_28">
      <g>
       <use style="stroke:#000000;stroke-linecap:butt;stroke-width:0.5;" x="530.494770235" xlink:href="#mdad270ee8e" y="27.396875"/>
      </g>
     </g>
     <g id="text_8">
      <!-- 2008 -->
      <g transform="translate(510.67953586 600.5296875)scale(0.15 -0.15)">
       <use xlink:href="#BitstreamVeraSans-Bold-32"/>
       <use x="69.580078125" xlink:href="#BitstreamVeraSans-Bold-30"/>
       <use x="139.16015625" xlink:href="#BitstreamVeraSans-Bold-30"/>
       <use x="208.740234375" xlink:href="#BitstreamVeraSans-Bold-38"/>
      </g>
     </g>
    </g>
    <g id="xtick_9">
     <g id="line2d_29">
      <path clip-path="url(#p4c22383844)" d="
M590.536 585.397
L590.536 27.3969" style="fill:none;stroke:#000000;stroke-dasharray:1.000000,3.000000;stroke-dashoffset:0.0;stroke-linecap:butt;stroke-width:0.5;"/>
     </g>
     <g id="line2d_30">
      <g>
       <use style="stroke:#000000;stroke-linecap:butt;stroke-width:0.5;" x="590.535958513" xlink:href="#mcb557df647" y="585.396875"/>
      </g>
     </g>
     <g id="line2d_31">
      <g>
       <use style="stroke:#000000;stroke-linecap:butt;stroke-width:0.5;" x="590.535958513" xlink:href="#mdad270ee8e" y="27.396875"/>
      </g>
     </g>
     <g id="text_9">
      <!-- 2010 -->
      <g transform="translate(570.614083513 600.5296875)scale(0.15 -0.15)">
       <use xlink:href="#BitstreamVeraSans-Bold-32"/>
       <use x="69.580078125" xlink:href="#BitstreamVeraSans-Bold-30"/>
       <use x="139.16015625" xlink:href="#BitstreamVeraSans-Bold-31"/>
       <use x="208.740234375" xlink:href="#BitstreamVeraSans-Bold-30"/>
      </g>
     </g>
    </g>
    <g id="xtick_10">
     <g id="line2d_32">
      <path clip-path="url(#p4c22383844)" d="
M650.495 585.397
L650.495 27.3969" style="fill:none;stroke:#000000;stroke-dasharray:1.000000,3.000000;stroke-dashoffset:0.0;stroke-linecap:butt;stroke-width:0.5;"/>
     </g>
     <g id="line2d_33">
      <g>
       <use style="stroke:#000000;stroke-linecap:butt;stroke-width:0.5;" x="650.495011102" xlink:href="#mcb557df647" y="585.396875"/>
      </g>
     </g>
     <g id="line2d_34">
      <g>
       <use style="stroke:#000000;stroke-linecap:butt;stroke-width:0.5;" x="650.495011102" xlink:href="#mdad270ee8e" y="27.396875"/>
      </g>
     </g>
     <g id="text_10">
      <!-- 2012 -->
      <g transform="translate(630.866104852 600.5296875)scale(0.15 -0.15)">
       <use xlink:href="#BitstreamVeraSans-Bold-32"/>
       <use x="69.580078125" xlink:href="#BitstreamVeraSans-Bold-30"/>
       <use x="139.16015625" xlink:href="#BitstreamVeraSans-Bold-31"/>
       <use x="208.740234375" xlink:href="#BitstreamVeraSans-Bold-32"/>
      </g>
     </g>
    </g>
   </g>
   <g id="matplotlib.axis_2">
    <g id="ytick_1">
     <g id="line2d_35">
      <path clip-path="url(#p4c22383844)" d="
M80.5555 585.397
L694.355 585.397" style="fill:none;stroke:#000000;stroke-dasharray:1.000000,3.000000;stroke-dashoffset:0.0;stroke-linecap:butt;stroke-width:0.5;"/>
     </g>
     <g id="line2d_36">
      <defs>
       <path d="
M0 0
L4 0" id="mc8fcea1516" style="stroke:#000000;stroke-linecap:butt;stroke-width:0.5;"/>
      </defs>
      <g>
       <use style="stroke:#000000;stroke-linecap:butt;stroke-width:0.5;" x="80.55546875" xlink:href="#mc8fcea1516" y="585.396875"/>
      </g>
     </g>
     <g id="line2d_37">
      <defs>
       <path d="
M0 0
L-4 0" id="m0d5b0a6425" style="stroke:#000000;stroke-linecap:butt;stroke-width:0.5;"/>
      </defs>
      <g>
       <use style="stroke:#000000;stroke-linecap:butt;stroke-width:0.5;" x="694.35546875" xlink:href="#m0d5b0a6425" y="585.396875"/>
      </g>
     </g>
     <g id="text_11">
      <!-- 0 -->
      <g transform="translate(67.553125 590.856640625)scale(0.15 -0.15)">
       <use xlink:href="#BitstreamVeraSans-Bold-30"/>
      </g>
     </g>
    </g>
    <g id="ytick_2">
     <g id="line2d_38">
      <path clip-path="url(#p4c22383844)" d="
M80.5555 473.797
L694.355 473.797" style="fill:none;stroke:#000000;stroke-dasharray:1.000000,3.000000;stroke-dashoffset:0.0;stroke-linecap:butt;stroke-width:0.5;"/>
     </g>
     <g id="line2d_39">
      <g>
       <use style="stroke:#000000;stroke-linecap:butt;stroke-width:0.5;" x="80.55546875" xlink:href="#mc8fcea1516" y="473.796875"/>
      </g>
     </g>
     <g id="line2d_40">
      <g>
       <use style="stroke:#000000;stroke-linecap:butt;stroke-width:0.5;" x="694.35546875" xlink:href="#m0d5b0a6425" y="473.796875"/>
      </g>
     </g>
     <g id="text_12">
      <!-- 2000 -->
      <g transform="translate(36.71171875 479.256640625)scale(0.15 -0.15)">
       <use xlink:href="#BitstreamVeraSans-Bold-32"/>
       <use x="69.580078125" xlink:href="#BitstreamVeraSans-Bold-30"/>
       <use x="139.16015625" xlink:href="#BitstreamVeraSans-Bold-30"/>
       <use x="208.740234375" xlink:href="#BitstreamVeraSans-Bold-30"/>
      </g>
     </g>
    </g>
    <g id="ytick_3">
     <g id="line2d_41">
      <path clip-path="url(#p4c22383844)" d="
M80.5555 362.197
L694.355 362.197" style="fill:none;stroke:#000000;stroke-dasharray:1.000000,3.000000;stroke-dashoffset:0.0;stroke-linecap:butt;stroke-width:0.5;"/>
     </g>
     <g id="line2d_42">
      <g>
       <use style="stroke:#000000;stroke-linecap:butt;stroke-width:0.5;" x="80.55546875" xlink:href="#mc8fcea1516" y="362.196875"/>
      </g>
     </g>
     <g id="line2d_43">
      <g>
       <use style="stroke:#000000;stroke-linecap:butt;stroke-width:0.5;" x="694.35546875" xlink:href="#m0d5b0a6425" y="362.196875"/>
      </g>
     </g>
     <g id="text_13">
      <!-- 4000 -->
      <g transform="translate(36.20078125 367.656640625)scale(0.15 -0.15)">
       <use xlink:href="#BitstreamVeraSans-Bold-34"/>
       <use x="69.580078125" xlink:href="#BitstreamVeraSans-Bold-30"/>
       <use x="139.16015625" xlink:href="#BitstreamVeraSans-Bold-30"/>
       <use x="208.740234375" xlink:href="#BitstreamVeraSans-Bold-30"/>
      </g>
     </g>
    </g>
    <g id="ytick_4">
     <g id="line2d_44">
      <path clip-path="url(#p4c22383844)" d="
M80.5555 250.597
L694.355 250.597" style="fill:none;stroke:#000000;stroke-dasharray:1.000000,3.000000;stroke-dashoffset:0.0;stroke-linecap:butt;stroke-width:0.5;"/>
     </g>
     <g id="line2d_45">
      <g>
       <use style="stroke:#000000;stroke-linecap:butt;stroke-width:0.5;" x="80.55546875" xlink:href="#mc8fcea1516" y="250.596875"/>
      </g>
     </g>
     <g id="line2d_46">
      <g>
       <use style="stroke:#000000;stroke-linecap:butt;stroke-width:0.5;" x="694.35546875" xlink:href="#m0d5b0a6425" y="250.596875"/>
      </g>
     </g>
     <g id="text_14">
      <!-- 6000 -->
      <g transform="translate(36.45625 256.056640625)scale(0.15 -0.15)">
       <use xlink:href="#BitstreamVeraSans-Bold-36"/>
       <use x="69.580078125" xlink:href="#BitstreamVeraSans-Bold-30"/>
       <use x="139.16015625" xlink:href="#BitstreamVeraSans-Bold-30"/>
       <use x="208.740234375" xlink:href="#BitstreamVeraSans-Bold-30"/>
      </g>
     </g>
    </g>
    <g id="ytick_5">
     <g id="line2d_47">
      <path clip-path="url(#p4c22383844)" d="
M80.5555 138.997
L694.355 138.997" style="fill:none;stroke:#000000;stroke-dasharray:1.000000,3.000000;stroke-dashoffset:0.0;stroke-linecap:butt;stroke-width:0.5;"/>
     </g>
     <g id="line2d_48">
      <g>
       <use style="stroke:#000000;stroke-linecap:butt;stroke-width:0.5;" x="80.55546875" xlink:href="#mc8fcea1516" y="138.996875"/>
      </g>
     </g>
     <g id="line2d_49">
      <g>
       <use style="stroke:#000000;stroke-linecap:butt;stroke-width:0.5;" x="694.35546875" xlink:href="#m0d5b0a6425" y="138.996875"/>
      </g>
     </g>
     <g id="text_15">
      <!-- 8000 -->
      <g transform="translate(36.4421875 144.456640625)scale(0.15 -0.15)">
       <use xlink:href="#BitstreamVeraSans-Bold-38"/>
       <use x="69.580078125" xlink:href="#BitstreamVeraSans-Bold-30"/>
       <use x="139.16015625" xlink:href="#BitstreamVeraSans-Bold-30"/>
       <use x="208.740234375" xlink:href="#BitstreamVeraSans-Bold-30"/>
      </g>
     </g>
    </g>
    <g id="ytick_6">
     <g id="line2d_50">
      <path clip-path="url(#p4c22383844)" d="
M80.5555 27.3969
L694.355 27.3969" style="fill:none;stroke:#000000;stroke-dasharray:1.000000,3.000000;stroke-dashoffset:0.0;stroke-linecap:butt;stroke-width:0.5;"/>
     </g>
     <g id="line2d_51">
      <g>
       <use style="stroke:#000000;stroke-linecap:butt;stroke-width:0.5;" x="80.55546875" xlink:href="#mc8fcea1516" y="27.396875"/>
      </g>
     </g>
     <g id="line2d_52">
      <g>
       <use style="stroke:#000000;stroke-linecap:butt;stroke-width:0.5;" x="694.35546875" xlink:href="#m0d5b0a6425" y="27.396875"/>
      </g>
     </g>
     <g id="text_16">
      <!-- 10000 -->
      <g transform="translate(26.78125 32.856640625)scale(0.15 -0.15)">
       <use xlink:href="#BitstreamVeraSans-Bold-31"/>
       <use x="69.580078125" xlink:href="#BitstreamVeraSans-Bold-30"/>
       <use x="139.16015625" xlink:href="#BitstreamVeraSans-Bold-30"/>
       <use x="208.740234375" xlink:href="#BitstreamVeraSans-Bold-30"/>
       <use x="278.3203125" xlink:href="#BitstreamVeraSans-Bold-30"/>
      </g>
     </g>
    </g>
    <g id="text_17">
     <!-- MW -->
     <defs>
      <path d="
M9.8125 72.9062
L24.5156 72.9062
L43.1094 23.2969
L61.8125 72.9062
L76.5156 72.9062
L76.5156 0
L66.8906 0
L66.8906 64.0156
L48.0938 14.0156
L38.1875 14.0156
L19.3906 64.0156
L19.3906 0
L9.8125 0
z
" id="BitstreamVeraSans-Roman-4d"/>
      <path d="
M3.32812 72.9062
L13.2812 72.9062
L28.6094 11.2812
L43.8906 72.9062
L54.9844 72.9062
L70.3125 11.2812
L85.5938 72.9062
L95.6094 72.9062
L77.2969 0
L64.8906 0
L49.5156 63.2812
L33.9844 0
L21.5781 0
z
" id="BitstreamVeraSans-Roman-57"/>
     </defs>
     <g transform="translate(21.78125 323.6046875)rotate(-90.0)scale(0.2 -0.2)">
      <use xlink:href="#BitstreamVeraSans-Roman-4d"/>
      <use x="86.279296875" xlink:href="#BitstreamVeraSans-Roman-57"/>
     </g>
    </g>
   </g>
   <g id="patch_3">
    <path d="
M80.5555 27.3969
L694.355 27.3969" style="fill:none;stroke:#000000;"/>
   </g>
   <g id="patch_4">
    <path d="
M694.355 585.397
L694.355 27.3969" style="fill:none;stroke:#000000;"/>
   </g>
   <g id="patch_5">
    <path d="
M80.5555 585.397
L694.355 585.397" style="fill:none;stroke:#000000;"/>
   </g>
   <g id="patch_6">
    <path d="
M80.5555 585.397
L80.5555 27.3969" style="fill:none;stroke:#000000;"/>
   </g>
   <g id="text_18">
    <!-- Last 20 years growth in NZ generation capacity -->
    <defs>
     <path d="
M1.21875 54.6875
L18.7031 54.6875
L33.4062 17.5781
L45.9062 54.6875
L63.375 54.6875
L40.375 -5.17188
Q36.9219 -14.3125 32.2969 -17.9375
Q27.6875 -21.5781 20.125 -21.5781
L10.0156 -21.5781
L10.0156 -10.1094
L15.4844 -10.1094
Q19.9219 -10.1094 21.9375 -8.6875
Q23.9688 -7.28125 25.0938 -3.60938
L25.5938 -2.09375
z
" id="BitstreamVeraSans-Bold-79"/>
     <path d="
M63.375 33.2969
L63.375 0
L45.7969 0
L45.7969 5.42188
L45.7969 25.3906
Q45.7969 32.5625 45.4844 35.25
Q45.1719 37.9375 44.3906 39.2031
Q43.3594 40.9219 41.5938 41.875
Q39.8438 42.8281 37.5938 42.8281
Q32.125 42.8281 29 38.5938
Q25.875 34.375 25.875 26.9062
L25.875 0
L8.40625 0
L8.40625 75.9844
L25.875 75.9844
L25.875 46.6875
Q29.8281 51.4688 34.2656 53.7344
Q38.7188 56 44.0938 56
Q53.5625 56 58.4688 50.1875
Q63.375 44.3906 63.375 33.2969" id="BitstreamVeraSans-Bold-68"/>
     <path d="
M49.0312 39.7969
Q46.7344 40.875 44.4531 41.375
Q42.1875 41.8906 39.8906 41.8906
Q33.1562 41.8906 29.5156 37.5625
Q25.875 33.25 25.875 25.2031
L25.875 0
L8.40625 0
L8.40625 54.6875
L25.875 54.6875
L25.875 45.7031
Q29.25 51.0781 33.6094 53.5312
Q37.9844 56 44.0938 56
Q44.9688 56 45.9844 55.9219
Q47.0156 55.8594 48.9688 55.6094
z
" id="BitstreamVeraSans-Bold-72"/>
     <path id="BitstreamVeraSans-Bold-20"/>
     <path d="
M52.5938 52.9844
L52.5938 38.7188
Q49.0312 41.1562 45.4375 42.3281
Q41.8438 43.5 37.9844 43.5
Q30.6719 43.5 26.5938 39.2344
Q22.5156 34.9688 22.5156 27.2969
Q22.5156 19.625 26.5938 15.3438
Q30.6719 11.0781 37.9844 11.0781
Q42.0938 11.0781 45.7812 12.2969
Q49.4688 13.5312 52.5938 15.9219
L52.5938 1.60938
Q48.4844 0.09375 44.2656 -0.65625
Q40.0469 -1.42188 35.7969 -1.42188
Q21 -1.42188 12.6406 6.17188
Q4.29688 13.7656 4.29688 27.2969
Q4.29688 40.8281 12.6406 48.4062
Q21 56 35.7969 56
Q40.0938 56 44.2656 55.25
Q48.4375 54.5 52.5938 52.9844" id="BitstreamVeraSans-Bold-63"/>
     <path d="
M51.125 52.9844
L51.125 39.7031
Q45.5156 42.0469 40.2812 43.2188
Q35.0625 44.3906 30.4219 44.3906
Q25.4375 44.3906 23.0156 43.1406
Q20.6094 41.8906 20.6094 39.3125
Q20.6094 37.2031 22.4375 36.0781
Q24.2656 34.9688 29 34.4219
L32.0781 33.9844
Q45.5156 32.2812 50.1406 28.375
Q54.7812 24.4688 54.7812 16.1094
Q54.7812 7.375 48.3281 2.96875
Q41.8906 -1.42188 29.1094 -1.42188
Q23.6875 -1.42188 17.8906 -0.5625
Q12.1094 0.296875 6 2
L6 15.2812
Q11.2344 12.75 16.7188 11.4688
Q22.2188 10.2031 27.875 10.2031
Q33.0156 10.2031 35.5938 11.6094
Q38.1875 13.0312 38.1875 15.8281
Q38.1875 18.1719 36.4062 19.3125
Q34.625 20.4531 29.2969 21.0938
L26.2188 21.4844
Q14.5469 22.9531 9.85938 26.9062
Q5.17188 30.8594 5.17188 38.9219
Q5.17188 47.6094 11.125 51.7969
Q17.0938 56 29.3906 56
Q34.2344 56 39.5469 55.2656
Q44.875 54.5469 51.125 52.9844" id="BitstreamVeraSans-Bold-73"/>
     <path d="
M32.9062 24.6094
Q27.4375 24.6094 24.6719 22.75
Q21.9219 20.9062 21.9219 17.2812
Q21.9219 13.9688 24.1406 12.0781
Q26.375 10.2031 30.3281 10.2031
Q35.25 10.2031 38.625 13.7344
Q42 17.2812 42 22.6094
L42 24.6094
z

M59.625 31.2031
L59.625 0
L42 0
L42 8.10938
Q38.4844 3.125 34.0781 0.84375
Q29.6875 -1.42188 23.3906 -1.42188
Q14.8906 -1.42188 9.59375 3.53125
Q4.29688 8.5 4.29688 16.4062
Q4.29688 26.0312 10.9062 30.5156
Q17.5312 35.0156 31.6875 35.0156
L42 35.0156
L42 36.375
Q42 40.5312 38.7188 42.4531
Q35.4531 44.3906 28.5156 44.3906
Q22.9062 44.3906 18.0625 43.2656
Q13.2344 42.1406 9.07812 39.8906
L9.07812 53.2188
Q14.7031 54.5938 20.3594 55.2969
Q26.0312 56 31.6875 56
Q46.4844 56 53.0469 50.1719
Q59.625 44.3438 59.625 31.2031" id="BitstreamVeraSans-Bold-61"/>
     <path d="
M27.4844 70.2188
L27.4844 54.6875
L45.5156 54.6875
L45.5156 42.1875
L27.4844 42.1875
L27.4844 19
Q27.4844 15.1875 29 13.8438
Q30.5156 12.5 35.0156 12.5
L44 12.5
L44 0
L29 0
Q18.6562 0 14.3281 4.3125
Q10.0156 8.64062 10.0156 19
L10.0156 42.1875
L1.3125 42.1875
L1.3125 54.6875
L10.0156 54.6875
L10.0156 70.2188
z
" id="BitstreamVeraSans-Bold-74"/>
     <path d="
M3.51562 54.6875
L20.5156 54.6875
L29.6875 17
L38.9219 54.6875
L53.5156 54.6875
L62.7031 17.3906
L71.9219 54.6875
L88.9219 54.6875
L74.5156 0
L55.4219 0
L46.1875 37.5938
L37.0156 0
L17.9219 0
z
" id="BitstreamVeraSans-Bold-77"/>
     <path d="
M62.9844 27.4844
L62.9844 22.5156
L22.125 22.5156
Q22.75 16.3594 26.5625 13.2812
Q30.375 10.2031 37.2031 10.2031
Q42.7188 10.2031 48.5 11.8438
Q54.2969 13.4844 60.4062 16.7969
L60.4062 3.32812
Q54.2031 0.984375 48 -0.21875
Q41.7969 -1.42188 35.5938 -1.42188
Q20.75 -1.42188 12.5156 6.125
Q4.29688 13.6719 4.29688 27.2969
Q4.29688 40.6719 12.375 48.3281
Q20.4531 56 34.625 56
Q47.5156 56 55.25 48.2344
Q62.9844 40.4844 62.9844 27.4844
M45.0156 33.2969
Q45.0156 38.2812 42.1094 41.3281
Q39.2031 44.3906 34.5156 44.3906
Q29.4375 44.3906 26.2656 41.5312
Q23.0938 38.6719 22.3125 33.2969
z
" id="BitstreamVeraSans-Bold-65"/>
     <path d="
M9.1875 72.9062
L27.9844 72.9062
L27.9844 14.2031
L60.9844 14.2031
L60.9844 0
L9.1875 0
z
" id="BitstreamVeraSans-Bold-4c"/>
     <path d="
M9.1875 72.9062
L30.1719 72.9062
L56.6875 22.9062
L56.6875 72.9062
L74.5156 72.9062
L74.5156 0
L53.5156 0
L27 50
L27 0
L9.1875 0
z
" id="BitstreamVeraSans-Bold-4e"/>
     <path d="
M25.875 7.90625
L25.875 -20.7969
L8.40625 -20.7969
L8.40625 54.6875
L25.875 54.6875
L25.875 46.6875
Q29.5 51.4688 33.8906 53.7344
Q38.2812 56 44 56
Q54.1094 56 60.5938 47.9688
Q67.0938 39.9375 67.0938 27.2969
Q67.0938 14.6562 60.5938 6.60938
Q54.1094 -1.42188 44 -1.42188
Q38.2812 -1.42188 33.8906 0.84375
Q29.5 3.125 25.875 7.90625
M37.5 43.3125
Q31.8906 43.3125 28.875 39.1875
Q25.875 35.0625 25.875 27.2969
Q25.875 19.5312 28.875 15.4062
Q31.8906 11.2812 37.5 11.2812
Q43.1094 11.2812 46.0625 15.375
Q49.0312 19.4844 49.0312 27.2969
Q49.0312 35.1094 46.0625 39.2031
Q43.1094 43.3125 37.5 43.3125" id="BitstreamVeraSans-Bold-70"/>
     <path d="
M8.40625 54.6875
L25.875 54.6875
L25.875 0
L8.40625 0
z

M8.40625 75.9844
L25.875 75.9844
L25.875 61.7188
L8.40625 61.7188
z
" id="BitstreamVeraSans-Bold-69"/>
     <path d="
M63.375 33.2969
L63.375 0
L45.7969 0
L45.7969 5.42188
L45.7969 25.4844
Q45.7969 32.5625 45.4844 35.25
Q45.1719 37.9375 44.3906 39.2031
Q43.3594 40.9219 41.5938 41.875
Q39.8438 42.8281 37.5938 42.8281
Q32.125 42.8281 29 38.5938
Q25.875 34.375 25.875 26.9062
L25.875 0
L8.40625 0
L8.40625 54.6875
L25.875 54.6875
L25.875 46.6875
Q29.8281 51.4688 34.2656 53.7344
Q38.7188 56 44.0938 56
Q53.5625 56 58.4688 50.1875
Q63.375 44.3906 63.375 33.2969" id="BitstreamVeraSans-Bold-6e"/>
     <path d="
M34.4219 43.5
Q28.6094 43.5 25.5625 39.3281
Q22.5156 35.1562 22.5156 27.2969
Q22.5156 19.4375 25.5625 15.25
Q28.6094 11.0781 34.4219 11.0781
Q40.1406 11.0781 43.1562 15.25
Q46.1875 19.4375 46.1875 27.2969
Q46.1875 35.1562 43.1562 39.3281
Q40.1406 43.5 34.4219 43.5
M34.4219 56
Q48.5312 56 56.4688 48.375
Q64.4062 40.7656 64.4062 27.2969
Q64.4062 13.8125 56.4688 6.1875
Q48.5312 -1.42188 34.4219 -1.42188
Q20.2656 -1.42188 12.2812 6.1875
Q4.29688 13.8125 4.29688 27.2969
Q4.29688 40.7656 12.2812 48.375
Q20.2656 56 34.4219 56" id="BitstreamVeraSans-Bold-6f"/>
     <path d="
M5.60938 72.9062
L66.8906 72.9062
L66.8906 61.5312
L27.7812 14.2031
L68.0156 14.2031
L68.0156 0
L4.5 0
L4.5 11.375
L43.6094 58.6875
L5.60938 58.6875
z
" id="BitstreamVeraSans-Bold-5a"/>
     <path d="
M45.6094 9.28125
Q42 4.5 37.6406 2.25
Q33.2969 0 27.5938 0
Q17.5781 0 11.0312 7.875
Q4.5 15.7656 4.5 27.9844
Q4.5 40.2344 11.0312 48.0625
Q17.5781 55.9062 27.5938 55.9062
Q33.2969 55.9062 37.6406 53.6562
Q42 51.4219 45.6094 46.5781
L45.6094 54.6875
L63.1875 54.6875
L63.1875 5.51562
Q63.1875 -7.67188 54.8594 -14.625
Q46.5312 -21.5781 30.7188 -21.5781
Q25.5938 -21.5781 20.7969 -20.7969
Q16.0156 -20.0156 11.1875 -18.4062
L11.1875 -4.78125
Q15.7656 -7.42188 20.1562 -8.71875
Q24.5625 -10.0156 29 -10.0156
Q37.5938 -10.0156 41.5938 -6.25
Q45.6094 -2.48438 45.6094 5.51562
z

M34.0781 43.3125
Q28.6562 43.3125 25.625 39.2969
Q22.6094 35.2969 22.6094 27.9844
Q22.6094 20.4531 25.5312 16.5781
Q28.4688 12.7031 34.0781 12.7031
Q39.5469 12.7031 42.5781 16.7031
Q45.6094 20.7031 45.6094 27.9844
Q45.6094 35.2969 42.5781 39.2969
Q39.5469 43.3125 34.0781 43.3125" id="BitstreamVeraSans-Bold-67"/>
    </defs>
    <g transform="translate(119.34765625 22.396875)scale(0.2 -0.2)">
     <use xlink:href="#BitstreamVeraSans-Bold-4c"/>
     <use x="63.720703125" xlink:href="#BitstreamVeraSans-Bold-61"/>
     <use x="131.201171875" xlink:href="#BitstreamVeraSans-Bold-73"/>
     <use x="190.72265625" xlink:href="#BitstreamVeraSans-Bold-74"/>
     <use x="238.525390625" xlink:href="#BitstreamVeraSans-Bold-20"/>
     <use x="273.33984375" xlink:href="#BitstreamVeraSans-Bold-32"/>
     <use x="342.919921875" xlink:href="#BitstreamVeraSans-Bold-30"/>
     <use x="412.5" xlink:href="#BitstreamVeraSans-Bold-20"/>
     <use x="447.314453125" xlink:href="#BitstreamVeraSans-Bold-79"/>
     <use x="512.5" xlink:href="#BitstreamVeraSans-Bold-65"/>
     <use x="580.322265625" xlink:href="#BitstreamVeraSans-Bold-61"/>
     <use x="647.802734375" xlink:href="#BitstreamVeraSans-Bold-72"/>
     <use x="697.119140625" xlink:href="#BitstreamVeraSans-Bold-73"/>
     <use x="756.640625" xlink:href="#BitstreamVeraSans-Bold-20"/>
     <use x="791.455078125" xlink:href="#BitstreamVeraSans-Bold-67"/>
     <use x="863.037109375" xlink:href="#BitstreamVeraSans-Bold-72"/>
     <use x="912.353515625" xlink:href="#BitstreamVeraSans-Bold-6f"/>
     <use x="981.0546875" xlink:href="#BitstreamVeraSans-Bold-77"/>
     <use x="1073.4375" xlink:href="#BitstreamVeraSans-Bold-74"/>
     <use x="1121.24023438" xlink:href="#BitstreamVeraSans-Bold-68"/>
     <use x="1192.43164062" xlink:href="#BitstreamVeraSans-Bold-20"/>
     <use x="1227.24609375" xlink:href="#BitstreamVeraSans-Bold-69"/>
     <use x="1261.5234375" xlink:href="#BitstreamVeraSans-Bold-6e"/>
     <use x="1332.71484375" xlink:href="#BitstreamVeraSans-Bold-20"/>
     <use x="1367.52929688" xlink:href="#BitstreamVeraSans-Bold-4e"/>
     <use x="1451.22070312" xlink:href="#BitstreamVeraSans-Bold-5a"/>
     <use x="1523.73046875" xlink:href="#BitstreamVeraSans-Bold-20"/>
     <use x="1558.54492188" xlink:href="#BitstreamVeraSans-Bold-67"/>
     <use x="1630.12695312" xlink:href="#BitstreamVeraSans-Bold-65"/>
     <use x="1697.94921875" xlink:href="#BitstreamVeraSans-Bold-6e"/>
     <use x="1769.140625" xlink:href="#BitstreamVeraSans-Bold-65"/>
     <use x="1836.96289062" xlink:href="#BitstreamVeraSans-Bold-72"/>
     <use x="1886.27929688" xlink:href="#BitstreamVeraSans-Bold-61"/>
     <use x="1953.75976562" xlink:href="#BitstreamVeraSans-Bold-74"/>
     <use x="2001.5625" xlink:href="#BitstreamVeraSans-Bold-69"/>
     <use x="2035.83984375" xlink:href="#BitstreamVeraSans-Bold-6f"/>
     <use x="2104.54101562" xlink:href="#BitstreamVeraSans-Bold-6e"/>
     <use x="2175.73242188" xlink:href="#BitstreamVeraSans-Bold-20"/>
     <use x="2210.546875" xlink:href="#BitstreamVeraSans-Bold-63"/>
     <use x="2269.82421875" xlink:href="#BitstreamVeraSans-Bold-61"/>
     <use x="2337.3046875" xlink:href="#BitstreamVeraSans-Bold-70"/>
     <use x="2408.88671875" xlink:href="#BitstreamVeraSans-Bold-61"/>
     <use x="2476.3671875" xlink:href="#BitstreamVeraSans-Bold-63"/>
     <use x="2535.64453125" xlink:href="#BitstreamVeraSans-Bold-69"/>
     <use x="2569.921875" xlink:href="#BitstreamVeraSans-Bold-74"/>
     <use x="2617.72460938" xlink:href="#BitstreamVeraSans-Bold-79"/>
    </g>
   </g>
   <g id="legend_1">
    <g id="patch_7">
     <path d="
M88.0555 127.583
L239.152 127.583
L239.152 34.8969
L88.0555 34.8969
L88.0555 127.583
z
" style="fill:#ffffff;stroke:#000000;"/>
    </g>
    <g id="line2d_53">
     <path d="
M98.5555 47.0445
L119.555 47.0445" style="fill:none;stroke:#61bc3a;"/>
    </g>
    <g id="line2d_54"/>
    <g id="text_19">
     <!-- Wind -->
     <defs>
      <path d="
M2.98438 72.9062
L21 72.9062
L33.5938 19.9219
L46.0938 72.9062
L64.2031 72.9062
L76.7031 19.9219
L89.3125 72.9062
L107.172 72.9062
L89.9844 0
L68.3125 0
L55.0781 55.4219
L42 0
L20.3125 0
z
" id="BitstreamVeraSans-Bold-57"/>
      <path d="
M45.6094 46.6875
L45.6094 75.9844
L63.1875 75.9844
L63.1875 0
L45.6094 0
L45.6094 7.90625
Q42 3.07812 37.6406 0.828125
Q33.2969 -1.42188 27.5938 -1.42188
Q17.4844 -1.42188 10.9844 6.60938
Q4.5 14.6562 4.5 27.2969
Q4.5 39.9375 10.9844 47.9688
Q17.4844 56 27.5938 56
Q33.25 56 37.625 53.7344
Q42 51.4688 45.6094 46.6875
M34.0781 11.2812
Q39.7031 11.2812 42.6562 15.375
Q45.6094 19.4844 45.6094 27.2969
Q45.6094 35.1094 42.6562 39.2031
Q39.7031 43.3125 34.0781 43.3125
Q28.5156 43.3125 25.5625 39.2031
Q22.6094 35.1094 22.6094 27.2969
Q22.6094 19.4844 25.5625 15.375
Q28.5156 11.2812 34.0781 11.2812" id="BitstreamVeraSans-Bold-64"/>
     </defs>
     <g transform="translate(136.05546875 52.29453125)scale(0.15 -0.15)">
      <use xlink:href="#BitstreamVeraSans-Bold-57"/>
      <use x="110.302734375" xlink:href="#BitstreamVeraSans-Bold-69"/>
      <use x="144.580078125" xlink:href="#BitstreamVeraSans-Bold-6e"/>
      <use x="215.771484375" xlink:href="#BitstreamVeraSans-Bold-64"/>
     </g>
    </g>
    <g id="line2d_55">
     <path d="
M98.5555 69.0617
L119.555 69.0617" style="fill:none;stroke:#ffba2d;"/>
    </g>
    <g id="line2d_56"/>
    <g id="text_20">
     <!-- Geothermal -->
     <defs>
      <path d="
M8.40625 75.9844
L25.875 75.9844
L25.875 0
L8.40625 0
z
" id="BitstreamVeraSans-Bold-6c"/>
      <path d="
M59.0781 45.6094
Q62.4062 50.6875 66.9688 53.3438
Q71.5312 56 77 56
Q86.4219 56 91.3594 50.1875
Q96.2969 44.3906 96.2969 33.2969
L96.2969 0
L78.7188 0
L78.7188 28.5156
Q78.7656 29.1562 78.7812 29.8281
Q78.8125 30.5156 78.8125 31.7812
Q78.8125 37.5938 77.0938 40.2031
Q75.3906 42.8281 71.5781 42.8281
Q66.6094 42.8281 63.8906 38.7188
Q61.1875 34.625 61.0781 26.8594
L61.0781 0
L43.5 0
L43.5 28.5156
Q43.5 37.5938 41.9375 40.2031
Q40.375 42.8281 36.375 42.8281
Q31.3438 42.8281 28.6094 38.7031
Q25.875 34.5781 25.875 26.9062
L25.875 0
L8.29688 0
L8.29688 54.6875
L25.875 54.6875
L25.875 46.6875
Q29.1094 51.3125 33.2812 53.6562
Q37.4531 56 42.4844 56
Q48.1406 56 52.4844 53.2656
Q56.8438 50.5312 59.0781 45.6094" id="BitstreamVeraSans-Bold-6d"/>
      <path d="
M74.7031 5.42188
Q67.6719 2 60.1094 0.28125
Q52.5469 -1.42188 44.4844 -1.42188
Q26.2656 -1.42188 15.625 8.76562
Q4.98438 18.9531 4.98438 36.375
Q4.98438 54 15.8125 64.1094
Q26.6562 74.2188 45.5156 74.2188
Q52.7812 74.2188 59.4375 72.8438
Q66.1094 71.4844 72.0156 68.7969
L72.0156 53.7188
Q65.9219 57.1719 59.8906 58.875
Q53.8594 60.5938 47.7969 60.5938
Q36.5781 60.5938 30.5 54.3125
Q24.4219 48.0469 24.4219 36.375
Q24.4219 24.8125 30.2812 18.5
Q36.1406 12.2031 46.9219 12.2031
Q49.8594 12.2031 52.375 12.5625
Q54.8906 12.9375 56.8906 13.7188
L56.8906 27.875
L45.4062 27.875
L45.4062 40.4844
L74.7031 40.4844
z
" id="BitstreamVeraSans-Bold-47"/>
     </defs>
     <g transform="translate(136.05546875 74.31171875)scale(0.15 -0.15)">
      <use xlink:href="#BitstreamVeraSans-Bold-47"/>
      <use x="82.080078125" xlink:href="#BitstreamVeraSans-Bold-65"/>
      <use x="149.90234375" xlink:href="#BitstreamVeraSans-Bold-6f"/>
      <use x="218.603515625" xlink:href="#BitstreamVeraSans-Bold-74"/>
      <use x="266.40625" xlink:href="#BitstreamVeraSans-Bold-68"/>
      <use x="337.59765625" xlink:href="#BitstreamVeraSans-Bold-65"/>
      <use x="405.419921875" xlink:href="#BitstreamVeraSans-Bold-72"/>
      <use x="454.736328125" xlink:href="#BitstreamVeraSans-Bold-6d"/>
      <use x="558.935546875" xlink:href="#BitstreamVeraSans-Bold-61"/>
      <use x="626.416015625" xlink:href="#BitstreamVeraSans-Bold-6c"/>
     </g>
    </g>
    <g id="line2d_57">
     <path d="
M98.5555 91.0789
L119.555 91.0789" style="fill:none;stroke:#ed1745;"/>
    </g>
    <g id="line2d_58"/>
    <g id="text_21">
     <!-- Thermal -->
     <defs>
      <path d="
M0.484375 72.9062
L67.6719 72.9062
L67.6719 58.6875
L43.5 58.6875
L43.5 0
L24.7031 0
L24.7031 58.6875
L0.484375 58.6875
z
" id="BitstreamVeraSans-Bold-54"/>
     </defs>
     <g transform="translate(136.05546875 96.32890625)scale(0.15 -0.15)">
      <use xlink:href="#BitstreamVeraSans-Bold-54"/>
      <use x="68.212890625" xlink:href="#BitstreamVeraSans-Bold-68"/>
      <use x="139.404296875" xlink:href="#BitstreamVeraSans-Bold-65"/>
      <use x="207.2265625" xlink:href="#BitstreamVeraSans-Bold-72"/>
      <use x="256.54296875" xlink:href="#BitstreamVeraSans-Bold-6d"/>
      <use x="360.7421875" xlink:href="#BitstreamVeraSans-Bold-61"/>
      <use x="428.22265625" xlink:href="#BitstreamVeraSans-Bold-6c"/>
     </g>
    </g>
    <g id="line2d_59">
     <path d="
M98.5555 113.096
L119.555 113.096" style="fill:none;stroke:#0f7baf;"/>
    </g>
    <g id="line2d_60"/>
    <g id="text_22">
     <!-- Hydro -->
     <defs>
      <path d="
M9.1875 72.9062
L27.9844 72.9062
L27.9844 45.125
L55.7188 45.125
L55.7188 72.9062
L74.5156 72.9062
L74.5156 0
L55.7188 0
L55.7188 30.9062
L27.9844 30.9062
L27.9844 0
L9.1875 0
z
" id="BitstreamVeraSans-Bold-48"/>
     </defs>
     <g transform="translate(136.05546875 118.34609375)scale(0.15 -0.15)">
      <use xlink:href="#BitstreamVeraSans-Bold-48"/>
      <use x="83.69140625" xlink:href="#BitstreamVeraSans-Bold-79"/>
      <use x="148.876953125" xlink:href="#BitstreamVeraSans-Bold-64"/>
      <use x="220.458984375" xlink:href="#BitstreamVeraSans-Bold-72"/>
      <use x="269.775390625" xlink:href="#BitstreamVeraSans-Bold-6f"/>
     </g>
    </g>
   </g>
  </g>
 </g>
 <defs>
  <clipPath id="p4c22383844">
   <rect height="558.0" width="613.8" x="80.55546875" y="27.396875"/>
  </clipPath>
 </defs>
</svg>
